<?xml version="1.0" standalone="no"?>
<!DOCTYPE svg PUBLIC "-//W3C//DTD SVG 20010904//EN"
 "http://www.w3.org/TR/2001/REC-SVG-20010904/DTD/svg10.dtd">
<svg version="1.0" xmlns="http://www.w3.org/2000/svg"
 width="2160.000000pt" height="2160.000000pt" viewBox="0 0 2160.000000 2160.000000"
 preserveAspectRatio="xMidYMid meet">
<metadata>
Created by potrace 1.14, written by Peter Selinger 2001-2017
</metadata>
<g transform="translate(0.000000,2160.000000) scale(0.100000,-0.100000)"
fill="#000000" stroke="none">
<path d="M7243 17789 c-9 -9 -27 -15 -54 -18 -4 -1 -25 -18 -48 -40 -22 -21
-43 -36 -46 -32 -3 3 -3 -3 1 -13 5 -14 4 -17 -4 -12 -11 6 -17 -11 -13 -36 0
-4 -15 -13 -34 -19 -19 -7 -35 -19 -35 -26 0 -7 -4 -13 -9 -13 -5 0 -8 -23 -8
-50 1 -28 -2 -50 -8 -50 -7 0 -7 -3 0 -8 6 -4 11 -23 12 -42 3 -59 15 -134 24
-152 6 -11 5 -19 -2 -23 -7 -5 -4 -14 7 -26 12 -13 13 -19 4 -19 -9 0 -10 -3
-1 -13 6 -8 8 -17 4 -20 -3 -4 -1 -7 5 -7 7 0 12 -5 12 -11 0 -5 -6 -7 -12 -3
-7 4 -4 -2 6 -14 11 -12 16 -25 13 -29 -4 -3 -3 -11 2 -17 6 -6 11 -23 13 -36
2 -14 7 -31 11 -37 5 -8 3 -13 -5 -13 -8 0 -9 -3 -3 -8 6 -4 10 -16 10 -27 0
-11 3 -30 7 -42 4 -13 4 -23 -1 -23 -12 0 -9 -33 4 -42 6 -5 4 -12 -5 -18 -12
-8 -12 -10 -1 -10 11 0 11 -3 0 -17 -12 -15 -12 -16 1 -8 13 7 13 6 2 -7 -10
-13 -10 -17 0 -21 9 -4 10 -6 1 -6 -7 -1 -10 -7 -7 -15 3 -8 1 -24 -6 -35 -8
-15 -8 -21 0 -21 6 0 8 -5 5 -11 -12 -18 -12 -69 -1 -69 6 0 5 -4 -3 -9 -9 -6
-10 -10 -2 -12 11 -4 22 -36 24 -71 1 -9 6 -14 11 -11 5 4 7 -1 3 -11 -4 -9
-3 -14 2 -11 8 5 24 -25 26 -48 0 -4 5 -11 10 -15 6 -4 21 -28 35 -54 13 -27
28 -48 32 -48 4 0 5 -7 2 -15 -4 -9 0 -15 10 -15 9 0 16 -5 16 -11 0 -5 -6 -7
-12 -3 -7 4 -5 -2 5 -13 10 -11 20 -31 23 -44 3 -13 6 -28 7 -34 2 -5 6 -15
10 -22 4 -6 1 -14 -5 -16 -10 -4 -10 -6 0 -6 6 -1 12 -11 12 -24 0 -13 3 -27
7 -31 4 -4 8 -13 9 -19 0 -7 2 -20 2 -30 1 -10 7 -15 13 -12 6 4 9 1 8 -6 -5
-23 30 -80 44 -73 7 4 9 4 5 -1 -8 -8 19 -51 59 -94 12 -14 19 -29 16 -34 -3
-6 -1 -7 5 -3 7 4 12 2 12 -4 0 -6 5 -8 10 -5 6 3 10 1 10 -5 0 -6 11 -15 25
-20 14 -5 25 -15 25 -21 0 -6 6 -9 14 -6 8 3 16 2 18 -4 2 -5 14 -11 27 -14
14 -2 28 -10 31 -16 4 -6 10 -10 14 -10 25 4 46 0 42 -8 -3 -4 6 -7 19 -5 14
1 25 -1 25 -6 0 -4 14 -6 30 -5 17 1 30 -1 30 -5 0 -5 20 -7 45 -5 30 3 43 0
39 -7 -4 -6 2 -6 15 1 16 9 21 9 21 -1 0 -10 2 -10 9 0 6 11 10 10 15 -3 4
-12 10 -14 19 -8 16 12 57 14 57 3 0 -5 8 -9 18 -9 9 0 24 -2 32 -4 8 -2 30
-8 48 -12 17 -4 32 -11 32 -16 0 -5 3 -8 8 -8 19 3 31 -3 60 -31 18 -16 37
-30 44 -30 6 0 9 -3 5 -6 -3 -4 3 -14 13 -23 15 -12 17 -20 10 -31 -7 -10 -10
-11 -10 -2 0 7 -13 -1 -30 -16 -16 -16 -30 -34 -30 -41 0 -6 -4 -11 -8 -11
-15 0 -52 -37 -45 -44 3 -3 1 -6 -5 -6 -6 0 -20 -10 -32 -22 -11 -12 -20 -18
-20 -12 0 5 -6 -2 -13 -16 -8 -14 -19 -24 -25 -22 -7 1 -12 -2 -12 -6 0 -5
-34 -43 -76 -85 -41 -43 -72 -77 -68 -77 3 0 -6 -10 -22 -22 -16 -12 -33 -28
-37 -35 -4 -7 -15 -13 -23 -13 -9 0 -12 -5 -8 -11 4 -7 1 -10 -6 -7 -7 2 -26
-8 -41 -23 -15 -15 -38 -30 -49 -34 -12 -4 -19 -9 -16 -12 5 -6 -18 -33 -28
-33 -3 0 -15 -9 -26 -20 -12 -12 -26 -18 -32 -14 -7 4 -8 3 -4 -4 4 -7 1 -12
-9 -12 -9 0 -13 -4 -10 -10 3 -5 2 -10 -2 -10 -13 0 -73 -57 -67 -63 3 -3 -4
-8 -15 -12 -12 -3 -21 -13 -21 -21 0 -8 -4 -12 -10 -9 -5 3 -10 -3 -10 -15 0
-12 -4 -18 -10 -15 -5 3 -10 2 -10 -3 0 -5 -18 -27 -39 -48 -22 -21 -37 -42
-35 -46 3 -5 0 -7 -8 -6 -7 2 -12 -3 -10 -9 1 -7 -3 -13 -10 -13 -12 0 -19 -6
-75 -60 -18 -17 -33 -28 -33 -26 0 3 -20 -14 -45 -38 -25 -25 -45 -42 -45 -40
0 3 -6 -1 -14 -8 -8 -7 -12 -16 -9 -20 2 -5 -1 -8 -7 -8 -6 0 -8 -4 -5 -10 3
-5 2 -10 -3 -10 -13 0 -33 -50 -26 -63 4 -7 4 -9 -1 -5 -4 4 -14 -4 -22 -18
-16 -32 -16 -37 0 -28 9 6 9 5 0 -8 -7 -8 -10 -18 -6 -21 3 -4 1 -7 -5 -7 -6
0 -9 -7 -6 -15 3 -8 2 -20 -2 -27 -12 -18 -11 -58 1 -58 6 0 7 -3 0 -8 -14
-10 -15 -75 -1 -84 8 -6 8 -8 -1 -8 -14 0 -13 -62 2 -72 6 -5 5 -8 -4 -8 -11
0 -11 -3 0 -17 12 -14 12 -16 0 -8 -10 6 -12 4 -6 -5 14 -22 15 -81 1 -73 -8
5 -8 3 0 -8 5 -8 10 -18 9 -24 -1 -15 -24 -52 -25 -40 0 6 -4 4 -8 -3 -12 -18
-142 -40 -142 -24 0 4 -15 8 -33 9 -60 3 -82 7 -89 18 -5 7 -8 6 -8 -2 0 -6
-13 -10 -30 -9 -16 1 -30 -1 -30 -6 0 -4 -6 -8 -12 -8 -7 0 -24 -12 -38 -27
-14 -15 -18 -23 -10 -19 8 4 6 0 -4 -8 -15 -12 -16 -16 -5 -16 12 0 12 -2 -1
-10 -8 -5 -11 -10 -6 -10 5 0 2 -8 -5 -17 -10 -11 -10 -14 -1 -9 7 4 12 1 12
-8 0 -9 -1 -17 -2 -19 -5 -6 54 -81 85 -109 17 -15 34 -25 38 -22 5 3 9 2 9
-3 0 -12 96 -64 104 -56 3 3 6 2 6 -4 0 -9 21 -17 85 -30 49 -9 99 -43 64 -43
-5 0 -8 -4 -5 -9 3 -4 -6 -13 -19 -19 -14 -7 -25 -16 -25 -22 0 -5 -8 -10 -18
-10 -9 0 -23 -9 -30 -20 -7 -12 -17 -18 -22 -15 -5 3 -11 -4 -15 -15 -4 -11
-11 -18 -16 -15 -5 4 -9 2 -9 -3 0 -5 -9 -12 -21 -15 -12 -3 -18 -10 -14 -16
4 -7 0 -8 -11 -4 -11 4 -15 3 -10 -5 3 -6 -3 -13 -14 -17 -11 -4 -18 -11 -15
-16 4 -5 -2 -12 -12 -16 -10 -4 -32 -21 -50 -39 -17 -18 -33 -31 -35 -29 -1 2
-9 -3 -16 -11 -7 -8 -10 -14 -7 -14 3 0 0 -6 -7 -14 -7 -8 -16 -12 -20 -9 -5
2 -8 -1 -8 -8 0 -7 -15 -27 -34 -45 -19 -18 -31 -35 -28 -38 2 -3 -3 -8 -12
-12 -9 -3 -16 -10 -16 -15 0 -4 -16 -24 -35 -44 -20 -19 -33 -35 -30 -35 3 0
-17 -22 -45 -50 -28 -27 -54 -50 -60 -50 -5 0 -12 -4 -15 -10 -3 -6 1 -7 12
-4 15 4 14 3 -2 -7 -11 -7 -23 -17 -27 -23 -4 -6 -8 -8 -8 -4 0 4 -19 -14 -42
-40 -24 -26 -50 -54 -59 -62 -9 -8 -14 -21 -11 -29 3 -10 0 -12 -12 -8 -10 4
-16 1 -16 -7 0 -7 -10 -24 -22 -38 -13 -13 -29 -36 -37 -51 -8 -15 -18 -27
-23 -27 -5 0 -6 -5 -3 -10 3 -6 0 -13 -9 -16 -9 -3 -12 -12 -9 -21 4 -11 2
-14 -5 -9 -7 4 -12 1 -12 -8 0 -9 -4 -16 -10 -16 -5 0 -10 -6 -10 -14 0 -7 -8
-24 -19 -37 -10 -13 -19 -28 -20 -34 0 -5 -8 -18 -16 -28 -8 -9 -15 -24 -15
-32 0 -8 -5 -15 -11 -15 -5 0 -7 -4 -4 -10 3 -5 2 -10 -3 -10 -5 0 -17 -18
-28 -40 -10 -22 -22 -40 -26 -40 -5 0 -8 -9 -8 -20 0 -11 -4 -20 -10 -20 -5 0
-12 -11 -16 -25 -3 -14 -10 -25 -15 -25 -5 0 -9 -8 -9 -19 0 -10 -7 -24 -15
-31 -8 -7 -12 -16 -10 -21 3 -4 -2 -12 -11 -17 -9 -5 -16 -12 -15 -15 1 -16
-30 -77 -40 -77 -5 0 -7 -5 -3 -11 3 -6 3 -14 -2 -18 -9 -6 -61 -107 -65 -126
-2 -5 -9 -16 -16 -24 -8 -7 -12 -20 -9 -27 3 -8 1 -14 -4 -14 -5 0 -12 -11
-16 -25 -3 -14 -10 -25 -15 -25 -5 0 -9 -9 -9 -21 0 -11 -4 -17 -10 -14 -6 3
-7 -1 -4 -9 3 -9 1 -16 -6 -16 -6 0 -9 -4 -5 -9 3 -5 -2 -16 -11 -25 -8 -9
-16 -25 -17 -36 -1 -11 -5 -20 -10 -20 -4 0 -5 -4 -2 -10 3 -5 2 -10 -3 -10
-5 0 -15 -18 -22 -40 -7 -22 -18 -40 -23 -40 -6 0 -7 -3 -4 -6 3 -4 1 -16 -5
-28 -7 -11 -11 -24 -10 -28 1 -5 -3 -8 -9 -8 -5 0 -7 -4 -4 -10 3 -5 2 -10 -4
-10 -5 0 -8 -11 -7 -25 2 -13 -2 -23 -8 -22 -6 1 -10 -6 -8 -15 2 -10 -3 -18
-9 -18 -7 0 -9 -3 -6 -7 4 -3 1 -13 -6 -21 -10 -13 -9 -14 2 -8 9 6 8 1 -3
-16 -9 -14 -13 -28 -10 -31 4 -4 1 -14 -7 -23 -13 -16 -16 -24 -26 -76 -3 -16
-9 -28 -14 -28 -4 0 -6 -9 -4 -20 2 -11 -1 -20 -6 -20 -6 0 -7 -4 -4 -10 3 -5
0 -20 -6 -32 -7 -13 -13 -36 -14 -53 -1 -16 -3 -30 -4 -30 -1 0 -4 -15 -7 -34
-2 -19 -9 -39 -14 -46 -6 -7 -5 -16 2 -23 9 -9 9 -12 1 -12 -7 0 -10 -10 -7
-26 3 -14 1 -23 -3 -21 -5 3 -8 -7 -7 -21 1 -15 -4 -33 -10 -41 -8 -11 -8 -13
2 -7 6 4 12 3 12 -3 0 -5 -4 -12 -8 -15 -5 -3 -8 -19 -7 -36 1 -16 -3 -30 -9
-30 -6 0 -4 -5 4 -10 8 -5 10 -10 5 -10 -6 0 -10 -12 -9 -27 1 -16 -3 -33 -8
-40 -5 -7 -5 -14 2 -18 6 -3 7 -12 3 -18 -10 -17 -11 -67 -1 -67 5 0 6 -6 1
-12 -4 -7 -8 -44 -8 -83 0 -38 -5 -76 -9 -84 -7 -10 -6 -12 4 -6 10 6 12 3 8
-13 -4 -12 -2 -24 3 -27 4 -3 4 -16 0 -28 -5 -12 -5 -31 -2 -42 4 -11 7 -39 6
-62 0 -24 3 -43 7 -43 4 0 5 -6 2 -13 -3 -8 0 -26 5 -40 8 -19 7 -27 0 -27 -7
0 -6 -6 2 -17 12 -14 12 -16 0 -8 -11 6 -12 5 -5 -6 11 -18 15 -36 17 -76 1
-18 4 -33 7 -33 3 0 6 -10 7 -22 1 -13 4 -41 8 -63 4 -22 8 -47 9 -55 1 -9 6
-22 11 -29 6 -10 4 -12 -4 -6 -10 6 -11 3 -2 -12 6 -11 7 -23 4 -27 -3 -3 -2
-6 4 -6 5 0 9 -12 9 -27 -1 -16 3 -34 7 -40 5 -7 7 -20 3 -28 -3 -8 -1 -15 5
-15 6 0 7 -5 4 -10 -4 -6 0 -24 9 -40 8 -17 10 -27 4 -24 -6 4 -6 -1 1 -14 6
-11 11 -30 11 -41 0 -12 4 -21 9 -21 5 0 8 -8 6 -17 -1 -10 5 -27 14 -37 9
-11 10 -16 4 -12 -7 4 -13 3 -13 -3 0 -5 4 -11 9 -13 6 -1 13 -19 16 -38 3
-19 10 -36 15 -38 5 -2 7 -9 4 -17 -3 -7 0 -16 5 -20 6 -3 9 -11 6 -16 -4 -5
-2 -9 4 -9 6 0 8 -7 5 -15 -4 -8 -1 -15 6 -15 10 0 10 -3 1 -14 -10 -11 -9
-16 4 -24 9 -5 17 -13 17 -18 1 -11 7 -32 18 -59 15 -36 23 -60 26 -75 2 -8 8
-16 13 -18 6 -2 11 -15 11 -28 0 -13 5 -24 10 -24 6 0 10 -11 10 -24 0 -14 5
-28 10 -31 6 -3 10 -15 10 -26 0 -10 4 -19 9 -19 5 0 12 -7 15 -16 3 -8 2 -12
-4 -9 -6 3 -7 -1 -4 -9 3 -9 10 -16 15 -16 5 0 8 -3 7 -7 -4 -14 26 -83 35
-83 4 0 5 -5 2 -11 -4 -6 1 -17 11 -25 11 -9 13 -12 6 -9 -11 6 -11 3 0 -16 7
-13 18 -27 23 -31 6 -4 6 -8 1 -8 -5 0 -3 -7 4 -15 7 -8 9 -15 4 -15 -5 0 -1
-5 9 -11 9 -6 14 -15 11 -21 -4 -6 1 -17 10 -23 9 -7 19 -23 21 -36 3 -12 10
-26 17 -31 7 -4 9 -8 4 -8 -5 0 -3 -6 3 -13 6 -8 9 -17 6 -20 -3 -4 -2 -5 2
-2 7 5 35 -39 49 -77 3 -10 11 -18 16 -18 5 0 6 -4 3 -10 -3 -5 -1 -10 5 -10
6 0 8 -4 5 -10 -3 -6 1 -10 10 -10 9 0 14 -4 10 -9 -3 -5 1 -16 9 -24 8 -8 12
-17 9 -21 -4 -3 1 -6 11 -6 9 0 14 -4 11 -10 -6 -9 21 -59 39 -71 5 -4 5 -12
2 -18 -4 -6 -4 -11 1 -11 4 0 14 -14 21 -30 8 -17 18 -28 23 -24 5 3 8 2 7 -3
-4 -12 25 -73 34 -73 5 0 8 -7 8 -15 0 -9 7 -18 15 -21 8 -4 13 -10 10 -14 -3
-5 2 -16 11 -24 8 -9 12 -16 7 -16 -4 0 -3 -4 4 -8 6 -4 13 -14 15 -22 2 -8
12 -23 23 -33 11 -10 13 -15 6 -11 -9 4 -6 -6 8 -24 12 -18 19 -36 16 -42 -3
-5 1 -10 9 -10 9 0 15 -3 15 -7 -3 -14 25 -73 34 -73 4 0 5 -4 2 -10 -3 -5 -1
-10 6 -10 7 0 9 -3 6 -6 -3 -4 2 -18 13 -32 11 -13 17 -28 14 -33 -3 -5 -1 -9
5 -9 5 0 20 -21 32 -47 13 -27 29 -54 36 -61 7 -8 11 -18 8 -23 -4 -5 1 -9 10
-9 11 0 15 -5 12 -14 -3 -8 3 -22 13 -31 11 -10 17 -22 14 -26 -3 -5 0 -9 5
-9 6 0 11 -7 11 -15 0 -8 4 -15 8 -15 4 0 14 -16 21 -35 7 -19 17 -35 22 -35
6 0 7 -4 4 -10 -3 -5 -1 -10 4 -10 6 0 11 -7 11 -15 0 -8 10 -23 22 -35 12
-11 18 -20 12 -20 -5 0 -1 -5 9 -11 9 -6 15 -14 12 -20 -4 -5 -1 -9 4 -9 6 0
11 -7 11 -15 0 -8 5 -15 10 -15 6 0 10 -7 10 -15 0 -8 5 -15 10 -15 6 0 9 -3
9 -8 -3 -17 2 -30 21 -50 12 -12 18 -22 15 -22 -4 0 4 -15 17 -32 13 -18 22
-35 22 -38 -1 -6 46 -82 55 -90 3 -3 7 -12 9 -20 2 -8 8 -16 13 -18 5 -2 9
-10 9 -18 0 -8 4 -14 8 -14 5 0 14 -12 20 -26 7 -14 17 -22 22 -19 6 4 10 3 9
-2 -4 -22 2 -43 11 -38 6 3 10 -1 10 -9 0 -8 8 -20 18 -25 9 -6 13 -11 8 -11
-4 0 6 -13 23 -29 17 -16 31 -32 31 -35 0 -4 17 -24 38 -46 50 -52 70 -78 93
-122 11 -21 23 -38 28 -38 5 0 12 -11 15 -25 4 -14 11 -25 16 -25 6 0 10 -10
10 -22 0 -12 3 -18 6 -15 9 9 54 -76 46 -87 -3 -5 0 -6 7 -2 8 5 14 0 18 -13
3 -12 8 -21 12 -21 4 0 13 -16 21 -35 7 -19 17 -32 22 -29 4 3 8 -4 8 -16 0
-12 5 -18 10 -15 6 3 10 -1 10 -9 0 -9 5 -16 11 -16 6 0 9 -7 5 -15 -3 -9 0
-15 9 -15 8 0 15 -7 15 -15 0 -8 5 -15 10 -15 6 0 10 -7 10 -15 0 -8 5 -15 10
-15 6 0 10 -7 10 -16 0 -8 5 -12 10 -9 6 3 10 0 10 -7 0 -7 20 -31 45 -52 24
-22 42 -44 38 -49 -3 -6 -1 -7 5 -3 7 4 12 2 12 -5 0 -7 3 -10 6 -6 3 3 18 -5
32 -19 15 -13 30 -24 34 -24 5 0 8 -7 8 -15 0 -8 7 -15 15 -15 21 0 55 -31 48
-44 -3 -6 -3 -8 2 -4 4 4 13 2 20 -5 7 -7 24 -20 39 -31 14 -10 23 -24 19 -30
-3 -6 -3 -8 1 -4 5 4 18 -4 31 -18 12 -13 27 -24 33 -24 5 0 13 -7 16 -16 3
-8 10 -12 16 -9 6 3 7 -1 4 -9 -3 -9 -2 -16 4 -16 6 0 28 -17 50 -37 45 -43
77 -67 86 -64 9 2 31 -21 39 -39 4 -12 6 -12 6 -1 1 10 7 7 20 -8 14 -16 21
-18 24 -9 4 8 6 7 6 -5 1 -9 4 -16 9 -15 13 5 101 -56 95 -66 -3 -5 -1 -6 5
-2 6 3 13 2 17 -4 4 -6 11 -8 16 -5 5 4 9 1 9 -4 0 -6 7 -11 16 -11 9 0 12 -5
8 -12 -5 -7 -2 -9 9 -5 9 3 18 0 21 -9 3 -8 12 -14 21 -14 8 0 15 -4 15 -10 0
-5 5 -10 11 -10 5 0 7 6 4 13 -4 6 1 3 9 -7 9 -11 16 -16 16 -10 0 5 4 3 9 -4
4 -7 18 -14 29 -15 12 -1 22 -5 22 -9 0 -4 11 -8 25 -8 14 0 25 -6 25 -12 0
-9 4 -8 10 2 7 12 10 12 10 1 0 -7 6 -11 15 -7 8 3 15 1 15 -3 0 -5 11 -8 25
-7 13 2 22 -1 19 -5 -5 -9 9 -13 34 -10 6 1 12 -3 12 -10 0 -8 5 -7 17 2 11
10 14 10 9 2 -4 -8 -1 -13 8 -13 24 0 30 -1 48 -11 10 -5 33 -10 53 -11 20 -1
32 -5 28 -11 -4 -6 -1 -7 8 -1 19 12 33 12 41 -1 5 -6 8 -5 8 4 0 11 3 11 15
1 9 -7 15 -8 15 -2 0 11 18 11 37 -1 6 -4 15 -2 18 4 4 5 13 8 20 5 7 -2 16
-2 20 2 4 4 21 8 38 9 70 6 83 9 102 26 10 10 25 15 32 13 7 -3 15 -1 19 5 4
7 10 6 19 -1 9 -8 15 -8 20 0 3 6 11 8 16 5 5 -4 9 -1 9 6 0 8 4 8 15 -1 11
-9 15 -9 15 -1 0 7 4 10 9 6 5 -3 12 -1 16 4 3 6 12 8 20 5 8 -4 12 -11 8 -17
-4 -6 -1 -7 7 -2 15 9 100 13 94 4 -2 -4 3 -9 11 -13 8 -3 17 -1 21 5 4 6 11
6 20 -2 8 -6 14 -8 14 -4 0 4 6 2 14 -4 10 -9 16 -9 21 -1 5 8 11 8 21 -1 8
-6 14 -8 14 -5 0 4 10 2 21 -5 17 -9 20 -8 14 2 -6 8 -4 10 6 3 8 -5 25 -10
38 -12 14 -2 32 -7 40 -11 9 -4 28 -7 44 -6 15 0 27 -3 27 -9 0 -5 3 -6 7 -3
3 4 12 2 20 -4 7 -6 13 -9 13 -6 0 3 16 1 36 -5 50 -13 77 -19 92 -20 6 -1 12
-4 12 -8 0 -4 6 -7 13 -7 22 -1 152 -29 152 -33 0 -4 43 -11 76 -13 21 -1 35
-5 34 -8 -7 -11 230 -7 244 4 12 10 13 9 6 -2 -6 -11 -4 -13 11 -6 16 6 78 12
184 17 8 0 21 5 28 11 7 6 12 6 12 0 0 -11 36 -11 46 0 4 4 13 2 20 -4 8 -7
14 -7 19 1 4 6 13 7 23 2 19 -9 54 -8 71 2 6 4 11 2 11 -5 0 -8 4 -8 15 1 8 7
15 8 15 3 0 -6 8 -10 18 -10 20 1 189 -14 216 -19 10 -2 21 -6 24 -9 3 -2 11
0 19 6 10 9 13 8 13 -1 0 -10 3 -10 14 -1 10 8 16 9 21 1 3 -6 10 -8 14 -6 4
3 35 6 67 8 32 1 65 7 73 12 12 9 13 8 7 -2 -7 -11 -4 -12 11 -3 11 6 23 7 27
4 3 -3 6 -1 6 7 0 9 3 10 14 1 10 -9 15 -8 19 4 4 8 13 12 22 9 8 -3 15 -2 15
4 0 5 11 8 25 7 14 -2 23 1 19 6 -3 5 3 9 14 9 10 0 22 3 26 7 4 5 11 8 14 9
4 0 20 6 35 12 16 7 32 12 37 12 5 0 10 5 12 11 2 5 10 11 19 12 8 2 32 13 52
25 21 12 49 25 62 28 14 3 25 10 25 15 0 5 6 9 14 9 7 0 29 10 47 23 19 13 40
22 47 19 7 -2 15 3 18 12 3 9 10 13 15 10 5 -2 19 1 31 8 13 7 27 11 32 10 5
-2 13 3 17 10 5 7 14 13 21 13 7 1 12 7 10 15 -2 8 0 12 3 8 4 -4 21 0 37 8
16 8 34 12 40 8 7 -4 8 -3 4 4 -4 7 -1 13 6 14 7 0 18 2 23 2 6 1 16 5 23 10
14 8 50 16 90 18 12 1 22 4 22 8 0 3 31 5 70 4 38 0 70 3 70 7 0 4 9 6 20 4
11 -2 20 1 20 7 0 6 3 8 7 5 3 -4 13 -1 21 6 11 8 14 8 9 0 -5 -7 3 -6 22 3
17 8 40 17 52 19 11 2 28 10 37 17 12 10 14 10 8 0 -6 -10 -2 -10 21 0 15 6
33 15 39 20 6 4 16 2 24 -5 10 -9 11 -9 6 1 -6 11 18 18 47 13 4 0 7 4 7 10 0
5 4 8 9 4 5 -3 12 -1 16 5 4 6 10 8 14 5 5 -2 25 5 47 15 21 11 44 20 51 20 6
0 17 8 22 17 7 12 11 13 11 5 0 -10 4 -9 16 2 8 9 20 14 25 10 5 -3 8 0 7 8
-2 7 4 13 12 13 8 0 25 9 38 20 13 11 28 20 32 20 10 0 45 23 65 42 7 7 15 9
19 6 3 -4 6 -1 6 6 0 7 4 10 9 6 5 -3 13 4 16 16 4 11 9 18 12 15 7 -6 173
161 173 175 0 6 4 8 9 4 5 -3 12 4 16 15 4 11 10 18 15 15 4 -3 11 7 14 20 4
14 10 24 14 21 4 -2 8 4 8 14 0 10 -4 16 -8 14 -4 -3 -8 -2 -8 3 0 10 66 103
71 100 2 -1 3 0 2 2 -1 2 3 13 9 25 7 11 11 24 10 29 -1 4 2 7 7 7 10 0 46 70
43 83 -1 4 1 7 6 7 4 0 19 21 32 47 14 26 30 53 35 60 24 29 30 40 33 53 2 8
8 18 13 21 6 3 11 12 12 20 2 8 6 20 10 26 5 7 10 21 12 30 7 34 30 88 40 95
6 5 5 8 -4 8 -10 0 -11 3 -2 13 6 8 8 17 4 20 -3 4 -1 7 6 7 7 0 10 4 6 9 -3
5 -1 12 5 16 5 3 10 17 10 30 0 13 5 27 10 30 6 4 8 11 5 16 -4 5 -2 9 3 9 5
0 9 7 10 15 1 8 3 22 4 30 1 8 6 15 11 15 6 0 8 3 5 6 -4 3 0 20 7 39 8 18 11
35 8 39 -4 3 -2 6 4 6 6 0 13 14 17 30 3 17 9 43 12 60 3 16 10 28 14 25 4 -2
6 7 4 20 -1 14 2 25 6 25 5 0 7 9 5 20 -2 11 2 26 9 32 7 7 10 23 8 36 -4 19
-2 23 8 17 10 -6 12 -4 7 8 -3 9 0 35 8 57 11 30 11 40 2 40 -8 0 -7 3 2 9 8
5 12 18 9 29 -4 15 -2 19 9 15 12 -5 14 -1 9 15 -4 11 -3 23 3 26 5 3 8 14 7
24 -2 9 0 19 5 22 4 3 9 17 11 30 2 14 7 31 11 37 5 7 5 17 2 23 -3 6 -2 10 4
10 5 0 13 15 16 32 4 18 12 39 18 46 5 7 7 15 4 19 -4 3 1 12 11 19 14 11 14
13 2 14 -13 1 -13 2 1 13 17 13 17 14 26 47 3 11 9 20 14 20 5 0 9 9 9 20 0
11 4 20 9 20 5 0 14 14 21 30 7 17 17 30 23 30 6 0 8 3 4 6 -3 4 -1 12 6 20
29 32 37 44 32 44 -4 0 0 7 7 15 32 35 38 45 38 60 0 9 5 13 10 10 9 -6 14 8
11 28 0 4 6 7 14 7 8 0 14 3 14 8 -4 21 3 32 19 32 14 0 15 2 2 10 -11 7 -11
10 -2 10 7 0 10 5 6 12 -4 7 -3 8 4 4 12 -7 35 27 25 38 -3 3 1 6 11 6 9 0 15
4 11 10 -3 5 4 19 15 30 11 11 18 25 15 30 -4 6 -1 10 5 10 6 0 8 5 5 10 -3 6
-2 10 2 10 5 0 16 18 26 40 9 22 22 40 29 40 6 0 8 3 5 6 -3 4 -1 16 5 28 7
11 11 24 10 29 -1 4 3 7 9 7 5 0 7 4 4 10 -3 6 -1 10 4 10 6 0 11 6 11 13 0 6
11 33 25 59 14 26 25 54 25 62 0 8 10 25 23 37 12 12 15 18 7 14 -12 -7 -13
-6 -3 7 7 8 10 18 6 21 -3 4 -1 7 6 7 7 0 9 5 6 10 -3 6 -2 10 3 10 8 0 23 33
19 43 0 1 12 21 26 45 15 23 24 42 21 42 -4 0 0 8 9 18 10 10 14 22 11 25 -4
4 1 10 10 13 14 5 15 9 4 15 -8 6 -9 9 -1 9 6 0 14 14 18 30 4 16 11 30 17 30
6 0 9 3 5 6 -3 4 0 19 9 35 8 16 14 30 13 31 0 2 5 17 12 33 7 17 13 33 14 38
2 4 4 9 5 12 1 3 4 10 5 15 1 6 4 13 5 18 1 4 2 10 1 15 0 4 4 7 10 7 6 0 9 6
6 13 -2 6 5 27 15 45 11 20 13 30 6 26 -8 -5 -7 1 3 16 9 14 15 33 13 43 -1 9
2 17 8 17 6 0 8 9 5 20 -3 11 -1 20 4 20 5 0 12 18 15 40 4 22 10 37 15 34 5
-3 6 2 3 10 -3 8 1 29 9 46 10 19 11 28 4 23 -8 -4 -8 -1 1 9 13 16 22 46 26
85 1 12 6 26 10 30 5 5 6 1 1 -7 -5 -8 -4 -12 0 -7 13 11 14 49 3 71 -7 13 -7
16 1 12 6 -4 11 -2 11 3 0 18 0 20 15 48 8 14 12 30 9 35 -3 4 -2 8 3 8 4 0 9
11 9 25 1 14 5 33 9 43 5 9 9 31 10 49 0 17 6 37 12 45 6 7 9 21 8 30 -2 11 2
15 12 11 13 -5 13 -2 5 14 -7 12 -7 24 -2 29 5 5 11 23 14 39 2 17 5 30 6 30
2 0 10 86 14 162 2 39 6 75 9 80 2 4 4 22 3 40 0 17 2 29 5 27 4 -2 10 3 13
12 4 10 2 13 -7 8 -9 -6 -9 -5 0 7 10 12 10 18 0 29 -10 10 -9 11 2 5 9 -5 12
-3 9 6 -3 8 -1 26 3 42 5 16 4 27 -2 27 -6 0 -7 5 -4 10 4 6 11 8 16 5 5 -3 6
1 3 9 -3 9 -11 13 -18 10 -6 -3 -2 2 8 10 11 9 14 16 8 16 -10 0 -10 5 -2 20
6 11 7 20 2 20 -9 0 -10 29 -1 45 11 20 8 116 -3 109 -7 -5 -8 -2 -3 7 14 21
15 60 3 53 -7 -4 -8 -2 -4 5 14 21 17 61 5 61 -8 0 -8 4 1 15 10 12 10 15 0
15 -10 0 -10 3 0 15 7 8 9 15 4 15 -5 0 -10 21 -12 46 -2 34 1 44 10 38 9 -6
9 -3 -1 9 -7 9 -10 17 -5 17 4 0 3 5 -3 11 -6 6 -9 18 -6 25 3 8 -1 22 -8 31
-10 12 -10 15 -1 9 7 -4 12 -1 12 9 0 9 -5 13 -11 9 -8 -5 -8 -1 0 14 6 12 8
23 3 25 -4 3 -7 39 -7 81 0 42 -3 76 -7 76 -5 0 -8 5 -8 11 0 5 5 7 12 3 7 -5
8 -3 2 7 -5 8 -9 25 -10 39 -1 14 -5 59 -9 100 -4 41 -8 92 -9 113 0 20 -3 37
-6 37 -4 0 -8 34 -13 123 -1 15 -5 27 -9 27 -3 0 -5 8 -4 18 2 9 -2 20 -8 24
-7 5 -7 8 3 8 10 0 11 3 2 14 -8 10 -9 16 -1 21 7 4 6 11 -4 20 -7 8 -12 28
-11 45 1 17 -1 33 -6 35 -4 3 -6 12 -2 20 3 8 0 15 -5 15 -6 0 -9 8 -7 19 2
10 -3 31 -10 45 -8 15 -10 24 -4 20 7 -4 7 0 1 12 -12 24 -32 87 -32 102 0 6
-5 23 -12 39 -7 15 -13 33 -13 38 -1 6 -5 18 -10 28 -4 10 -5 20 -2 24 3 3 0
12 -8 20 -18 18 -20 37 -2 27 6 -4 3 3 -7 15 -11 12 -20 31 -21 42 -1 12 -8
25 -16 30 -12 7 -12 9 0 9 12 0 11 3 -1 18 -8 9 -14 27 -13 39 1 12 -3 21 -9
20 -6 -1 -10 4 -8 11 1 7 -5 20 -13 28 -8 9 -13 20 -10 25 4 5 1 9 -5 9 -6 0
-9 4 -5 9 3 5 -2 16 -10 24 -8 9 -15 23 -15 31 0 9 -5 16 -11 16 -5 0 -8 4 -4
9 3 5 -1 15 -8 23 -13 13 -29 45 -31 61 -1 4 -8 12 -16 17 -10 7 -11 10 -2 10
7 0 4 8 -8 20 -12 12 -18 25 -15 30 4 6 -1 13 -9 16 -9 3 -16 14 -16 23 -1 18
-24 53 -31 46 -3 -2 -5 5 -6 16 -2 21 -27 51 -37 44 -3 -3 -4 -2 -1 1 2 4 -1
16 -7 28 -7 11 -11 24 -10 28 1 4 -6 4 -16 1 -9 -3 -14 -3 -10 2 4 4 -3 16
-15 27 -12 11 -15 17 -7 13 10 -4 9 -2 -2 8 -10 8 -18 17 -18 21 0 13 -28 35
-35 28 -4 -4 -6 0 -3 8 5 15 0 23 -40 65 -13 14 -19 25 -15 25 4 1 -3 10 -16
20 -13 11 -21 20 -17 20 6 0 -15 27 -41 55 -7 8 -13 20 -13 27 0 10 -3 9 -10
-2 -6 -9 -10 -10 -10 -3 0 7 -14 26 -30 43 -17 17 -28 36 -24 41 3 5 2 8 -3 7
-10 -3 -53 39 -69 68 -6 10 -21 24 -33 30 -16 8 -19 13 -9 17 8 4 7 6 -5 6
-21 1 -47 24 -47 41 0 6 -4 8 -10 5 -5 -3 -10 1 -10 10 0 9 -5 13 -10 10 -5
-3 -10 -3 -10 2 0 4 -14 22 -30 40 -17 18 -30 37 -30 42 0 6 -4 11 -10 11 -13
0 -66 60 -62 71 1 5 -3 9 -8 9 -6 0 -22 10 -35 23 -86 81 -115 106 -115 101 0
-3 -13 8 -29 25 -15 16 -31 27 -35 24 -3 -3 -6 -1 -6 6 0 7 -4 10 -9 6 -5 -3
-12 4 -16 15 -3 11 -9 19 -13 19 -20 -3 -32 2 -27 11 3 6 -1 10 -10 10 -9 0
-13 5 -10 10 3 6 -1 10 -9 10 -8 0 -20 8 -25 18 -6 9 -11 13 -11 9 0 -13 -30
20 -30 33 0 6 -4 8 -10 5 -5 -3 -10 -1 -10 4 0 6 -4 11 -9 11 -5 0 -28 17 -50
38 -53 48 -97 82 -108 82 -4 0 -14 9 -21 21 -7 12 -16 19 -19 16 -3 -3 -15 5
-28 19 -12 13 -27 24 -34 24 -6 0 -11 5 -11 10 0 6 -7 10 -15 10 -8 0 -15 5
-15 10 0 6 -7 10 -16 10 -8 0 -12 5 -9 10 3 6 -3 10 -14 10 -12 0 -21 5 -21
10 0 6 -7 10 -16 10 -8 0 -12 5 -9 10 3 6 -2 10 -13 10 -10 0 -28 9 -40 20
-12 11 -28 20 -37 20 -8 0 -15 5 -15 10 0 6 -9 10 -20 10 -11 0 -20 5 -20 10
0 6 -9 10 -20 10 -11 0 -20 5 -20 10 0 6 -9 10 -20 10 -11 0 -20 4 -20 9 0 6
-9 8 -20 6 -11 -2 -20 1 -20 7 0 5 -7 8 -15 4 -8 -3 -15 -1 -15 4 0 6 -9 10
-20 10 -11 0 -20 4 -20 8 0 4 -8 8 -18 9 -31 2 -46 8 -61 21 -7 7 -20 11 -27
8 -8 -3 -14 -2 -14 2 0 4 -21 14 -47 22 -26 7 -59 19 -73 27 -14 7 -31 13 -37
13 -7 0 -13 4 -13 10 0 5 -6 7 -14 4 -8 -3 -17 0 -21 5 -3 6 -11 9 -16 6 -5
-4 -9 -2 -9 3 0 5 -6 9 -12 10 -13 1 -48 9 -58 12 -3 1 -8 2 -12 1 -5 0 -8 3
-8 7 0 4 -10 8 -22 9 -11 1 -24 6 -27 10 -3 5 -13 8 -21 8 -8 -1 -24 3 -35 9
-11 6 -22 11 -25 11 -30 4 -139 39 -136 44 2 3 -9 7 -25 8 -48 3 -59 6 -59 14
0 5 -7 6 -15 3 -8 -4 -21 -1 -28 4 -7 6 -27 13 -44 17 -18 3 -43 9 -56 14 -14
6 -28 7 -31 4 -3 -4 -6 0 -6 7 0 7 -3 11 -6 7 -3 -3 -30 3 -59 13 -29 10 -56
16 -59 13 -3 -4 -6 -1 -6 5 0 6 -19 17 -42 24 -24 6 -45 16 -48 20 -3 4 -15 9
-25 11 -25 5 -55 16 -78 28 -10 5 -22 7 -27 4 -6 -4 -10 -1 -10 4 0 6 -3 10
-7 10 -5 -1 -10 0 -13 1 -3 1 -16 4 -30 6 -14 2 -32 6 -42 7 -9 2 -23 9 -32
16 -12 10 -16 11 -16 1 0 -9 -3 -10 -13 -1 -8 6 -17 8 -20 4 -4 -3 -7 -1 -7 5
0 7 -5 12 -11 12 -5 0 -7 -6 -4 -12 4 -7 -1 -4 -9 6 -10 13 -16 15 -16 7 0
-11 -3 -11 -15 -1 -8 7 -15 9 -15 5 0 -4 -7 -2 -15 5 -12 10 -15 10 -15 0 0
-9 -4 -9 -12 -3 -7 6 -30 14 -51 17 -31 6 -37 5 -31 -6 6 -10 5 -10 -9 0 -9 8
-25 11 -37 7 -13 -4 -20 -2 -20 7 0 10 -3 9 -10 -2 -7 -11 -10 -11 -10 -2 0
10 -5 10 -20 2 -15 -8 -20 -8 -20 2 0 9 -3 9 -10 -2 -5 -8 -10 -10 -10 -4 0
12 -29 12 -48 0 -6 -4 -12 -3 -12 2 0 5 -15 9 -32 9 -18 1 -45 3 -60 6 -16 2
-28 0 -28 -6 0 -6 -7 -2 -16 9 -8 10 -13 14 -10 8 3 -7 -9 -11 -34 -11 -22 0
-40 4 -40 10 0 5 -7 4 -15 -3 -12 -10 -15 -10 -15 0 0 10 -3 10 -15 0 -8 -7
-15 -8 -15 -3 0 6 -12 11 -27 11 -16 1 -44 4 -63 8 -19 3 -50 7 -67 7 -18 1
-33 5 -33 8 0 3 -16 5 -35 4 -19 -1 -35 2 -35 7 0 5 -9 4 -19 -1 -14 -8 -22
-7 -31 4 -7 9 -19 12 -29 7 -20 -9 -52 -9 -69 1 -7 5 -12 3 -12 -5 0 -9 -3 -9
-10 2 -9 13 -10 13 -10 0 0 -13 -1 -13 -10 0 -5 8 -10 10 -10 4 0 -14 -32 -13
-42 1 -5 6 -8 6 -8 -1 0 -10 -74 -10 -142 0 -17 3 -28 0 -28 -7 0 -8 -3 -7 -9
2 -6 9 -11 10 -15 2 -5 -8 -13 -8 -27 -1 -14 8 -19 7 -19 -1 0 -8 -4 -8 -15 1
-10 8 -15 9 -15 1 0 -7 -8 -8 -26 -1 -14 6 -23 6 -19 1 3 -6 -16 -9 -45 -7
-28 1 -53 -1 -56 -4 -3 -3 -14 -6 -25 -6 -10 -1 -22 -3 -26 -4 -5 -1 -22 -1
-39 0 -18 1 -35 -3 -39 -9 -3 -6 -12 -11 -18 -11 -7 0 -6 4 3 10 21 14 -5 13
-31 -1 -15 -8 -24 -7 -35 2 -12 10 -15 10 -12 -1 2 -10 -8 -14 -34 -15 -21 0
-38 -3 -38 -7 0 -5 -6 -8 -13 -8 -8 0 -40 -11 -73 -24 -46 -19 -62 -22 -73
-13 -11 9 -13 9 -8 1 4 -7 1 -14 -6 -17 -15 -6 -47 15 -47 31 0 6 -4 12 -10
14 -5 2 -11 14 -14 28 -2 14 -5 27 -6 30 -2 3 -2 8 -1 13 0 4 -5 7 -12 7 -8 0
-7 4 3 10 13 9 13 10 0 10 -13 0 -13 1 0 10 9 6 11 10 3 10 -7 0 -10 7 -7 15
3 8 2 20 -2 27 -5 7 -9 26 -10 42 -2 16 -9 33 -16 37 -10 7 -10 9 2 9 10 0 11
3 4 8 -6 4 -15 17 -18 30 -4 12 -19 34 -32 47 -14 14 -22 25 -18 25 4 0 -17
23 -45 50 -28 28 -55 50 -60 50 -4 0 -16 11 -27 24 -10 14 -21 23 -25 21 -4
-3 -9 6 -11 20 -3 15 -1 25 6 25 6 0 4 5 -4 10 -8 5 -10 10 -5 10 6 0 10 38
10 95 0 52 2 95 5 95 3 0 5 16 5 35 -1 19 2 35 6 35 4 0 6 8 4 18 -1 9 3 32
11 50 7 17 11 32 9 32 -3 0 4 15 14 33 10 17 21 44 25 60 3 15 10 27 15 27 5
0 8 11 7 25 -2 13 1 22 5 19 5 -3 9 1 10 8 4 54 4 88 -1 130 -4 26 -2 48 2 48
5 0 6 6 2 12 -12 19 -12 48 0 48 7 0 8 3 1 8 -6 4 -10 18 -10 32 1 14 -1 30
-4 35 -6 11 -10 29 -13 58 -1 9 -5 17 -8 17 -3 0 -6 10 -7 23 0 31 -6 51 -18
59 -6 5 -4 8 5 8 12 0 12 2 2 9 -7 4 -14 27 -15 49 -1 23 -5 42 -9 42 -5 0 -8
11 -8 25 0 14 -4 25 -10 25 -5 0 -10 14 -10 30 0 17 -5 30 -11 30 -5 0 -8 4
-4 9 3 5 1 12 -5 16 -6 4 -8 11 -5 16 4 5 2 9 -2 9 -5 0 -16 17 -25 38 -9 20
-28 50 -42 65 -14 15 -26 33 -26 38 0 6 -4 7 -10 4 -5 -3 -10 1 -10 10 0 10
-5 13 -12 9 -6 -4 -8 -3 -5 3 4 6 -9 28 -28 49 -19 21 -35 42 -35 46 0 4 -6 8
-14 8 -8 0 -18 9 -21 20 -3 11 -11 20 -16 20 -6 0 -26 17 -44 38 -19 20 -35
33 -35 29 0 -4 -6 -2 -14 5 -8 7 -12 16 -9 21 2 4 -1 7 -6 7 -6 0 -27 16 -48
35 -20 19 -41 31 -47 28 -6 -3 -8 -3 -4 1 9 11 -37 52 -82 73 -8 4 -24 15 -34
25 -11 10 -27 18 -35 18 -14 0 -14 1 -1 10 13 8 12 10 -2 10 -10 0 -18 4 -18
10 0 5 -7 6 -17 3 -9 -4 -14 -2 -11 3 3 5 -3 17 -14 27 -10 9 -18 15 -18 12 0
-7 -23 11 -55 43 -12 12 -27 22 -33 22 -6 0 -16 8 -21 18 -6 9 -11 13 -11 8 0
-5 -9 -1 -20 9 -11 10 -20 14 -20 9 0 -5 -4 -4 -8 1 -9 13 -112 67 -112 59 0
-3 -7 2 -16 10 -8 9 -20 14 -25 11 -5 -4 -9 -1 -9 4 0 6 -11 11 -23 11 -13 0
-27 3 -31 7 -3 4 -14 8 -23 9 -9 2 -28 6 -42 10 -14 4 -28 8 -31 9 -26 6 -87
29 -96 36 -6 5 -14 6 -17 2 -4 -3 -9 2 -13 11 -3 9 -10 13 -15 10 -5 -3 -12 2
-15 10 -3 9 -12 16 -20 16 -8 0 -14 5 -14 10 0 6 -6 10 -14 10 -8 0 -17 7 -20
16 -4 9 -9 14 -12 11 -4 -3 -13 1 -21 9 -8 8 -19 12 -24 9 -5 -4 -9 -1 -9 5 0
6 -4 8 -10 5 -5 -3 -10 -1 -10 5 0 6 -4 9 -9 5 -5 -3 -12 -1 -16 5 -4 6 -10 8
-15 5 -5 -3 -20 -1 -34 5 -18 7 -26 6 -26 -1 0 -8 -5 -7 -15 1 -12 10 -15 10
-15 0 0 -9 -3 -10 -13 -1 -9 7 -17 7 -24 0z"/>
</g>
</svg>
