<?xml version="1.0" standalone="no"?>
<!DOCTYPE svg PUBLIC "-//W3C//DTD SVG 20010904//EN"
 "http://www.w3.org/TR/2001/REC-SVG-20010904/DTD/svg10.dtd">
<svg version="1.0" xmlns="http://www.w3.org/2000/svg"
 width="2600.000000pt" height="2600.000000pt" viewBox="0 0 2600.000000 2600.000000"
 preserveAspectRatio="xMidYMid meet">
<metadata>
Created by potrace 1.14, written by Peter Selinger 2001-2017
</metadata>
<g transform="translate(0.000000,2600.000000) scale(0.100000,-0.100000)"
fill="#000000" stroke="none">
<path d="M7603 25150 c-12 -19 -28 -21 -50 -7 -9 6 -11 3 -7 -7 4 -11 0 -13
-15 -9 -22 6 -29 -12 -8 -21 6 -3 3 -4 -8 -1 -27 6 -50 -9 -39 -26 6 -12 5
-12 -8 -1 -13 10 -17 10 -22 -3 -3 -9 -10 -14 -15 -11 -5 3 -14 -1 -21 -9 -11
-13 -10 -15 6 -10 11 4 9 0 -6 -8 -14 -9 -29 -13 -35 -9 -5 3 -4 -2 4 -12 8
-9 10 -16 5 -15 -5 1 -16 1 -24 0 -12 -1 -13 -3 -1 -10 10 -7 10 -10 1 -16 -7
-4 -16 -1 -21 6 -6 9 -6 1 -2 -20 5 -27 3 -32 -7 -26 -10 6 -12 4 -7 -9 6 -14
3 -17 -10 -12 -10 4 -14 4 -10 0 4 -4 2 -14 -5 -21 -9 -11 -9 -17 3 -25 11 -8
11 -9 -3 -5 -9 3 -22 -1 -29 -9 -8 -9 -16 -11 -23 -5 -7 6 -18 6 -26 1 -8 -5
-17 -7 -20 -5 -4 2 -7 -2 -7 -10 0 -11 5 -10 26 3 l26 16 -25 -25 c-14 -14
-28 -24 -31 -22 -12 5 -17 -35 -5 -47 8 -8 7 -10 -6 -5 -15 6 -16 3 -9 -22 9
-36 3 -65 -12 -57 -8 5 -8 2 1 -7 6 -7 12 -17 12 -22 0 -4 -6 -5 -12 -1 -9 5
-9 2 1 -9 11 -14 11 -20 1 -33 -8 -8 -9 -14 -4 -13 21 4 24 -2 10 -17 -12 -12
-13 -20 -6 -35 6 -11 8 -24 5 -29 -3 -5 0 -7 7 -5 10 4 13 -6 12 -39 -1 -37 1
-44 15 -39 15 4 15 4 0 -6 -19 -12 -17 -60 3 -72 10 -7 10 -9 -2 -9 -12 -1
-12 -2 2 -10 13 -8 15 -17 8 -40 -7 -23 -5 -32 7 -39 11 -6 12 -10 4 -15 -14
-9 -14 -26 0 -26 5 0 7 6 3 13 -5 8 -3 8 9 -2 16 -13 14 -36 -3 -26 -10 6 -8
-15 3 -32 5 -8 4 -13 -2 -13 -6 0 -11 -5 -11 -10 0 -7 6 -7 18 -1 14 7 17 5
17 -14 0 -18 -3 -21 -13 -13 -9 8 -11 7 -6 -6 3 -9 10 -16 15 -16 5 0 9 -5 9
-11 0 -5 -6 -7 -12 -4 -7 4 -5 0 5 -8 17 -14 24 -33 9 -23 -4 2 -9 -4 -9 -15
-2 -18 0 -19 14 -7 12 9 15 10 9 1 -4 -8 -2 -13 4 -13 6 0 8 -5 5 -10 -4 -6
-12 -8 -18 -4 -7 3 -4 -1 6 -9 14 -11 15 -16 5 -20 -10 -4 -10 -6 0 -6 6 -1
12 -10 12 -22 0 -11 5 -17 10 -14 14 9 13 -8 -2 -23 -9 -9 -9 -12 0 -12 6 0 9
-6 6 -14 -3 -8 0 -17 7 -22 8 -5 10 -3 4 6 -5 9 -4 11 3 6 8 -5 9 -13 3 -24
-6 -12 -5 -24 5 -36 7 -10 11 -23 8 -28 -11 -17 -11 -58 -1 -65 6 -4 7 -1 2 7
-5 9 -4 11 3 6 9 -5 7 -15 -6 -34 -10 -15 -12 -23 -4 -18 10 6 11 1 6 -18 -4
-16 -2 -26 5 -26 6 0 11 -5 11 -11 0 -5 -4 -8 -9 -4 -5 3 -13 1 -16 -5 -4 -6
-1 -9 5 -8 7 2 14 -5 15 -15 3 -13 -1 -17 -12 -13 -12 5 -13 4 -5 -7 7 -8 9
-17 5 -20 -3 -4 -2 -7 4 -7 15 0 23 -39 11 -47 -7 -3 -8 -1 -4 5 4 7 2 12 -3
12 -14 0 -14 -17 -1 -25 8 -5 7 -12 -2 -23 -10 -12 -10 -14 0 -8 13 8 16 -3 6
-28 -3 -9 -10 -13 -15 -10 -5 3 -6 -2 -3 -10 3 -9 11 -13 16 -10 6 4 2 -5 -7
-20 -17 -25 -16 -26 1 -26 17 -1 17 -2 -3 -13 -25 -14 -26 -24 -7 -51 11 -16
10 -23 -4 -44 -10 -15 -11 -23 -4 -19 6 5 12 4 12 -1 0 -6 -7 -13 -15 -16 -12
-4 -14 -10 -5 -25 6 -11 10 -24 9 -28 -4 -24 2 -53 10 -49 5 4 7 -3 4 -14 -3
-11 -1 -20 5 -20 5 0 13 -7 16 -16 6 -15 4 -15 -10 -3 -16 13 -16 12 -4 -11 7
-13 19 -31 27 -38 7 -8 11 -18 8 -23 -8 -12 20 -51 30 -41 4 4 2 -4 -5 -17
-10 -19 -10 -22 1 -16 9 6 11 3 6 -9 -5 -12 1 -19 20 -27 14 -5 23 -12 19 -16
-3 -3 0 -13 7 -22 11 -14 10 -14 -6 -2 -9 8 -20 12 -22 9 -3 -3 6 -11 20 -18
14 -7 25 -22 25 -32 0 -10 5 -18 11 -18 8 0 7 -5 -1 -15 -11 -13 -10 -14 5 -9
14 6 16 3 10 -17 -3 -13 -3 -19 2 -14 4 6 15 11 23 13 11 3 9 -2 -5 -18 -15
-16 -15 -20 -3 -15 9 4 19 1 24 -6 5 -8 3 -10 -7 -5 -8 4 -6 1 4 -7 9 -8 17
-20 17 -26 0 -7 5 -9 10 -6 6 3 10 1 10 -4 0 -6 -5 -11 -11 -11 -5 0 3 -12 18
-26 15 -15 21 -22 12 -15 -12 8 -16 7 -16 -4 0 -7 3 -14 6 -13 31 3 39 -4 37
-29 -2 -18 4 -33 18 -45 18 -15 19 -19 6 -28 -12 -7 -12 -10 -1 -10 8 0 11 -6
7 -16 -4 -11 -2 -15 7 -11 8 3 14 -1 14 -9 0 -7 -4 -11 -9 -8 -4 3 -8 -2 -8
-11 0 -12 5 -15 16 -11 14 5 15 4 5 -8 -9 -11 -9 -15 1 -19 10 -4 10 -6 1 -6
-9 -1 -10 -8 -3 -25 6 -16 5 -28 -3 -37 -10 -11 -9 -11 6 0 15 12 17 10 17
-27 0 -23 6 -45 15 -52 8 -7 15 -18 15 -24 0 -6 -5 -4 -10 4 -6 9 -10 10 -10
3 0 -7 10 -22 23 -33 12 -12 18 -21 12 -20 -24 5 -26 -1 -4 -21 13 -11 18 -18
12 -14 -7 3 -13 2 -13 -3 0 -6 7 -13 15 -16 9 -3 15 -14 13 -23 -2 -10 2 -17
9 -16 7 2 10 -4 7 -12 -4 -8 -1 -15 6 -15 6 0 8 -4 5 -10 -3 -5 1 -10 9 -10 9
0 16 -5 16 -11 0 -5 -5 -7 -12 -3 -7 4 -8 3 -4 -5 4 -6 11 -9 16 -6 5 3 11 1
15 -5 3 -5 1 -10 -4 -10 -6 0 -11 -4 -11 -9 0 -5 9 -7 20 -4 12 3 20 0 20 -6
0 -7 -6 -9 -12 -6 -7 4 -5 0 4 -8 10 -8 14 -18 10 -22 -4 -5 1 -5 10 -2 10 3
20 1 24 -5 5 -7 2 -8 -6 -3 -8 5 -11 3 -8 -6 3 -8 10 -13 16 -12 6 2 9 -4 5
-13 -4 -10 2 -17 16 -21 18 -5 19 -8 9 -21 -10 -12 -10 -14 0 -8 6 4 12 2 12
-3 0 -6 7 -11 16 -11 8 0 12 -4 9 -10 -3 -5 4 -10 17 -11 23 -1 23 -1 -2 -9
-24 -8 -24 -8 -3 -9 13 -1 22 -7 20 -13 -1 -8 6 -12 17 -10 12 2 16 -1 10 -9
-5 -9 -1 -11 14 -7 16 4 19 2 15 -10 -5 -11 -2 -13 8 -8 8 4 5 0 -6 -9 -20
-17 -20 -17 3 -10 16 4 24 2 28 -10 5 -12 9 -13 14 -5 5 9 10 6 15 -9 6 -19 9
-20 23 -9 9 7 13 9 10 3 -8 -14 12 -29 42 -34 38 -5 62 -20 53 -34 -4 -7 2 -5
12 3 10 8 16 10 12 3 -4 -6 -3 -14 3 -18 5 -3 10 2 10 12 1 17 1 17 10 1 6
-10 19 -15 30 -13 22 4 27 -10 8 -19 -7 -3 0 -2 16 1 20 4 27 3 22 -6 -4 -6
-1 -11 9 -11 9 0 14 4 11 8 -3 5 1 9 8 9 9 0 11 -8 8 -21 -5 -20 -5 -20 12 -3
10 9 20 17 23 17 4 0 3 -3 0 -7 -4 -3 -2 -12 4 -19 12 -15 41 -7 33 10 -3 6 4
0 15 -13 12 -13 21 -18 21 -12 0 6 5 11 11 11 5 0 7 -6 3 -12 -5 -9 -2 -8 10
1 13 11 19 12 29 2 9 -10 9 -11 -3 -8 -8 2 -12 2 -8 0 4 -3 10 -4 14 -3 4 1
11 -4 16 -12 6 -9 7 -5 3 12 -3 14 -3 20 2 14 11 -16 75 -16 67 -1 -4 7 5 1
21 -13 l27 -25 -6 25 c-3 14 -3 19 0 13 3 -7 12 -13 20 -13 9 0 13 -4 9 -9 -3
-5 0 -13 6 -17 8 -4 9 -3 5 4 -4 7 -2 12 4 12 6 0 8 6 5 13 -4 6 -1 5 7 -3 15
-17 43 -26 33 -10 -3 5 -1 10 4 10 6 0 11 -5 11 -11 0 -8 4 -8 13 0 10 8 17 7
27 -2 10 -9 11 -9 6 1 -4 6 -2 12 3 12 6 0 11 -8 11 -17 0 -15 2 -16 10 -3 5
8 10 10 10 5 0 -7 15 -9 36 -7 29 4 35 2 28 -9 -6 -12 -5 -12 9 0 15 12 20 11
39 -5 12 -11 18 -13 14 -6 -4 6 -2 12 3 12 6 0 11 -6 11 -13 0 -8 14 -13 36
-14 20 -1 40 -7 44 -13 6 -9 9 -9 13 1 4 10 6 10 6 2 1 -7 8 -13 17 -13 9 0
12 -5 8 -12 -6 -10 -4 -10 7 0 16 15 33 16 23 0 -5 -7 -1 -9 13 -6 13 4 27 -2
37 -14 11 -12 24 -17 34 -13 9 3 13 3 10 -1 -9 -8 16 -34 32 -34 7 0 9 -7 6
-16 -3 -8 -2 -12 4 -9 6 3 10 1 10 -6 0 -9 3 -9 14 0 12 10 14 9 9 -7 -3 -12
2 -22 12 -26 15 -5 15 -9 4 -24 -11 -14 -11 -15 1 -4 19 16 43 15 37 -2 -7
-17 11 -36 27 -30 6 2 12 -4 13 -15 1 -11 -5 -22 -14 -25 -12 -5 -13 -3 -7 7
5 7 2 5 -8 -5 -12 -13 -18 -15 -21 -6 -4 8 -6 7 -6 -4 -1 -23 -21 -34 -33 -17
-7 11 -9 9 -7 -6 2 -34 0 -38 -16 -25 -13 11 -14 10 -9 -5 6 -14 4 -16 -6 -10
-10 6 -12 4 -7 -8 5 -15 -17 -33 -36 -28 -5 1 -6 -3 -2 -9 3 -5 1 -10 -4 -10
-6 0 -11 -5 -11 -11 0 -5 6 -7 13 -4 6 4 4 0 -5 -8 -10 -8 -15 -17 -11 -21 4
-4 0 -4 -9 -1 -9 4 -18 0 -21 -9 -4 -9 -13 -16 -21 -16 -10 0 -13 -6 -9 -17 6
-15 4 -16 -8 -6 -13 10 -16 10 -16 -5 0 -9 5 -21 11 -25 6 -4 -1 -5 -15 -1
-17 3 -30 1 -34 -7 -6 -8 -4 -10 6 -5 8 4 5 1 -5 -8 -10 -8 -22 -13 -27 -11
-4 3 -11 0 -15 -6 -4 -8 -3 -9 4 -5 7 4 12 2 12 -3 0 -6 -5 -11 -11 -11 -5 0
-8 -4 -5 -9 3 -4 -6 -7 -19 -5 -14 1 -28 -3 -32 -8 -3 -6 -1 -8 4 -5 6 4 13 1
16 -7 4 -10 -1 -13 -19 -11 -19 2 -22 -1 -13 -11 8 -10 6 -12 -11 -9 -19 4
-20 2 -8 -12 9 -12 9 -15 1 -9 -8 4 -13 2 -13 -4 0 -6 -4 -9 -9 -5 -5 3 -12 1
-16 -5 -3 -5 0 -10 7 -10 7 -1 3 -6 -10 -13 -12 -7 -19 -17 -15 -22 4 -4 2 -5
-5 -1 -7 4 -15 1 -18 -8 -3 -9 -11 -13 -18 -9 -6 4 -4 -1 4 -12 14 -17 13 -17
-9 -10 -16 5 -21 4 -17 -4 4 -6 2 -11 -5 -11 -8 0 -7 -5 2 -17 13 -15 12 -15
-9 -4 -13 7 -26 10 -30 7 -3 -3 0 -6 6 -6 7 0 12 -5 12 -11 0 -5 -4 -8 -9 -5
-8 5 -24 -29 -22 -45 0 -4 -9 -5 -19 -2 -16 4 -19 2 -13 -12 4 -12 3 -16 -4
-12 -12 8 -26 -20 -18 -34 4 -5 -1 -6 -9 -3 -9 3 -13 11 -9 17 3 6 1 7 -6 3
-6 -4 -9 -11 -7 -15 3 -4 -6 -14 -19 -21 -13 -7 -22 -17 -19 -22 3 -4 -3 -8
-13 -8 -15 0 -16 -2 -3 -10 13 -8 12 -10 -2 -10 -10 0 -18 -4 -18 -10 0 -5 -7
-6 -17 -3 -12 5 -14 3 -8 -7 6 -10 4 -12 -8 -7 -9 3 -16 3 -16 -1 1 -4 1 -14
0 -22 -1 -13 -2 -13 -11 0 -9 13 -10 13 -10 0 0 -30 -22 -41 -44 -23 -12 10
-16 11 -9 4 15 -18 5 -41 -15 -34 -11 5 -14 2 -9 -10 3 -9 3 -16 -1 -16 -4 1
-16 1 -27 0 -15 -1 -17 -3 -7 -10 11 -7 11 -9 -2 -14 -8 -3 -17 -1 -20 6 -2 7
-5 2 -5 -10 -1 -25 -11 -29 -28 -12 -9 9 -10 6 -6 -11 4 -15 2 -21 -4 -17 -6
4 -14 0 -17 -9 -4 -10 -12 -14 -22 -10 -15 6 -15 4 -3 -11 7 -10 10 -15 5 -11
-13 11 -48 -12 -42 -27 3 -9 0 -12 -8 -9 -7 3 -16 -2 -19 -10 -4 -9 -14 -16
-23 -16 -10 0 -14 -5 -10 -15 3 -8 2 -14 -2 -14 -27 4 -41 -3 -36 -18 3 -10
-2 -7 -10 7 l-16 25 4 -28 c3 -18 1 -25 -6 -21 -8 5 -9 1 -4 -12 4 -10 4 -15
0 -11 -4 4 -13 -1 -21 -11 -13 -15 -13 -15 -4 5 19 37 12 37 -18 0 -15 -20
-32 -33 -37 -29 -5 4 -3 0 4 -9 11 -14 9 -16 -10 -15 -17 1 -22 -4 -20 -17 3
-15 -1 -17 -20 -12 -22 7 -22 6 -4 -7 15 -12 16 -17 6 -23 -9 -6 -11 -4 -6 6
4 8 1 6 -7 -3 -8 -10 -18 -14 -22 -10 -5 4 -5 -1 -2 -11 6 -15 4 -16 -16 -6
-18 9 -20 9 -9 -2 16 -18 15 -29 -4 -29 -8 0 -12 -4 -9 -10 3 -5 -1 -10 -9
-10 -8 0 -18 -5 -22 -12 -4 -6 -3 -8 3 -5 5 3 10 0 10 -8 0 -10 -5 -11 -19 -4
-12 6 -18 6 -18 -1 0 -5 5 -10 11 -10 7 0 0 -11 -15 -25 -15 -14 -31 -23 -36
-20 -5 3 -12 0 -16 -6 -4 -8 -3 -9 4 -5 7 4 12 1 12 -8 0 -10 -6 -13 -17 -9
-12 5 -14 3 -8 -7 6 -10 4 -12 -10 -6 -16 6 -16 4 -4 -11 12 -15 12 -16 -3
-10 -12 4 -18 1 -18 -9 0 -9 5 -12 12 -8 7 4 8 3 4 -4 -4 -6 -14 -8 -23 -5
-13 5 -15 2 -10 -11 4 -9 3 -15 -2 -12 -5 3 -18 -3 -29 -13 -17 -14 -19 -20
-9 -31 10 -10 7 -10 -13 0 -23 12 -24 12 -11 -4 8 -9 10 -16 5 -15 -22 4 -35
-2 -28 -13 5 -7 2 -9 -8 -5 -20 7 -38 -11 -31 -32 4 -9 3 -13 -2 -9 -4 4 -17
2 -29 -4 -11 -7 -25 -11 -30 -10 -5 2 -3 -4 4 -13 11 -13 10 -14 -5 -9 -12 5
-16 4 -11 -4 3 -6 2 -13 -4 -17 -5 -3 -10 0 -11 7 0 7 -5 2 -11 -12 -6 -14
-10 -29 -9 -33 1 -5 -3 -6 -8 -2 -6 3 -8 13 -5 23 5 15 5 15 -6 -1 -6 -9 -9
-21 -6 -26 3 -5 -2 -8 -12 -7 -9 0 -16 -4 -15 -11 2 -7 -3 -10 -11 -7 -8 3
-17 0 -22 -7 -5 -8 -3 -10 6 -4 9 6 11 4 6 -4 -5 -7 -14 -10 -21 -7 -7 2 -16
-5 -19 -17 -5 -18 -8 -20 -16 -7 -8 13 -10 12 -10 -3 0 -12 -4 -16 -12 -11
-10 6 -10 4 0 -8 10 -13 10 -18 1 -24 -8 -5 -10 -3 -5 7 4 8 1 6 -7 -3 -8 -10
-18 -14 -23 -10 -4 4 -2 -2 6 -12 14 -18 14 -19 -8 -7 -22 12 -23 11 -13 -8
14 -26 14 -28 -5 -35 -13 -5 -14 -4 -6 7 9 10 8 14 -3 14 -8 0 -13 -3 -10 -5
3 -3 -2 -17 -12 -31 -13 -20 -13 -24 -2 -16 8 6 7 2 -4 -7 -10 -9 -20 -27 -22
-40 -3 -13 -12 -28 -20 -34 -13 -9 -13 -13 -3 -17 9 -4 8 -6 -3 -6 -13 -1 -17
-10 -15 -36 1 -19 -2 -35 -7 -35 -4 0 -6 -4 -3 -9 4 -5 0 -12 -6 -14 -10 -4
-10 -6 0 -6 6 -1 12 -6 12 -12 0 -5 -4 -8 -9 -5 -5 3 -11 -1 -15 -9 -3 -8 3
-19 12 -24 16 -10 15 -10 -2 -11 -15 0 -16 -3 -6 -15 11 -13 10 -14 -1 -10
-10 4 -15 -4 -15 -26 -1 -22 1 -27 7 -18 7 10 8 9 6 -6 -2 -11 -7 -28 -12 -38
-4 -9 -5 -26 -2 -36 2 -10 1 -25 -4 -32 -4 -7 -3 -21 2 -32 8 -14 6 -22 -8
-34 -13 -10 -14 -13 -3 -10 10 3 16 -2 16 -13 0 -10 -4 -17 -7 -14 -4 2 -10 0
-14 -6 -3 -5 -1 -10 5 -10 6 0 8 -5 3 -12 -11 -18 -13 -40 -5 -52 10 -16 8
-40 -3 -48 -6 -4 -1 -8 9 -8 20 0 20 0 0 -16 -10 -8 -14 -13 -9 -10 6 2 17 1
25 -5 13 -7 13 -9 -1 -9 -11 0 -15 -9 -13 -32 4 -74 4 -74 14 -58 5 8 10 10
10 4 0 -5 -5 -15 -12 -22 -9 -9 -9 -12 0 -12 7 0 12 -5 12 -11 0 -5 -4 -8 -9
-5 -10 6 -10 -26 0 -34 4 -3 9 -16 13 -30 l7 -25 -16 25 c-11 16 -14 18 -10 6
3 -11 -2 -28 -12 -40 -10 -12 -11 -15 -3 -8 18 16 27 15 27 -3 0 -8 -5 -11
-10 -8 -6 4 -8 0 -4 -10 4 -12 1 -17 -11 -17 -15 0 -15 -2 -2 -10 15 -9 13
-11 -12 -14 -6 0 -13 -7 -16 -15 -3 -9 0 -11 8 -6 8 5 11 4 6 -3 -4 -6 -14 -8
-23 -5 -11 5 -14 3 -8 -6 6 -11 3 -11 -16 0 -21 11 -22 10 -12 -2 10 -13 8
-15 -15 -14 -15 1 -35 -3 -46 -8 -12 -6 -16 -6 -12 1 3 6 1 14 -5 18 -8 5 -9
3 -4 -6 6 -10 4 -12 -10 -6 -14 5 -16 4 -7 -7 9 -10 8 -14 -3 -14 -8 0 -15 5
-15 10 0 5 -7 3 -17 -4 -13 -11 -17 -11 -20 -1 -3 6 -9 12 -14 12 -6 0 -7 -6
-3 -12 6 -10 4 -10 -7 0 -17 15 -33 16 -23 0 4 -6 -3 -4 -17 5 -28 20 -43 22
-33 5 5 -10 4 -10 -6 -1 -7 6 -19 9 -28 5 -12 -4 -14 -1 -8 14 6 15 5 16 -5 7
-10 -10 -15 -9 -26 5 -8 9 -12 11 -8 5 4 -8 0 -13 -9 -13 -9 0 -16 5 -16 10 0
6 -5 10 -11 10 -5 0 -7 -4 -4 -10 3 -5 2 -10 -4 -10 -5 0 -12 6 -14 13 -4 10
-6 10 -6 0 -1 -7 -6 -13 -12 -13 -5 0 -7 6 -3 13 5 8 2 8 -9 -2 -13 -10 -17
-10 -17 -1 0 10 -3 10 -15 0 -8 -7 -15 -8 -15 -3 0 5 -7 10 -15 10 -12 0 -12
-3 -2 -16 9 -12 6 -12 -16 2 -16 10 -31 16 -35 13 -3 -3 0 -6 6 -6 7 0 12 -5
12 -11 0 -6 -7 -9 -15 -6 -8 4 -26 0 -40 -7 -18 -9 -22 -16 -13 -19 7 -3 3 -6
-10 -6 -13 -1 -20 -5 -17 -11 3 -5 1 -10 -5 -10 -7 0 -9 -7 -6 -16 3 -8 2 -13
-3 -10 -4 3 -16 -1 -26 -8 -14 -10 -15 -15 -5 -21 9 -6 11 -4 5 5 -5 9 -4 11
4 6 6 -4 9 -12 5 -17 -3 -5 -9 -7 -14 -4 -5 3 -11 1 -15 -5 -3 -5 -1 -10 4
-10 14 0 9 -34 -8 -54 -12 -14 -12 -16 2 -11 12 5 14 -1 11 -30 -2 -26 0 -34
9 -28 9 5 9 3 0 -8 -13 -16 4 -49 26 -49 6 0 11 -5 11 -11 0 -5 -4 -7 -10 -4
-6 3 -7 -1 -4 -9 7 -19 24 -21 24 -4 0 6 3 8 6 5 4 -4 1 -14 -6 -22 -7 -9 -9
-15 -4 -14 26 5 36 -1 25 -15 -10 -12 -8 -14 11 -9 18 4 20 3 8 -6 -13 -10
-13 -11 0 -12 8 -1 19 -1 24 0 5 1 3 -5 -4 -14 -11 -13 -10 -15 3 -9 9 3 20
-2 26 -13 27 -47 28 -48 47 -32 11 9 15 9 10 2 -4 -7 -2 -14 3 -14 6 -1 16 -2
21 -3 6 0 16 -12 23 -25 7 -14 19 -26 27 -29 9 -3 7 2 -5 12 -19 16 -19 16 8
5 15 -7 27 -18 27 -26 0 -7 8 -13 18 -13 14 0 15 2 2 10 -11 7 -12 10 -2 10 8
0 16 -10 20 -22 5 -21 6 -21 13 -2 7 16 8 17 8 2 1 -17 5 -19 38 -22 7 -1 21
-9 32 -18 14 -12 22 -13 31 -5 9 9 15 7 26 -7 13 -19 50 -33 39 -16 -7 11 22
7 32 -5 4 -4 2 -5 -6 0 -9 5 -12 4 -8 -3 4 -5 17 -8 29 -4 13 3 19 1 15 -5 -3
-5 0 -10 8 -10 8 0 12 4 9 9 -11 17 8 7 38 -22 17 -16 38 -30 47 -31 10 0 12
-2 4 -6 -7 -2 -13 -9 -13 -14 0 -6 5 -7 12 -3 7 4 8 3 4 -5 -4 -6 -11 -9 -16
-6 -5 3 -16 -2 -24 -11 -9 -9 -23 -14 -30 -11 -8 3 -13 -1 -12 -10 0 -8 -10
-22 -24 -31 -13 -10 -21 -12 -16 -4 4 6 3 12 -1 12 -5 0 -14 -10 -19 -22 -6
-13 -9 -17 -7 -10 1 7 -2 10 -8 6 -6 -3 -8 -15 -5 -27 4 -15 2 -17 -7 -8 -16
16 -27 14 -27 -5 0 -14 -3 -14 -15 -4 -13 11 -14 10 -10 -2 7 -18 -20 -42 -36
-32 -8 5 -9 3 -4 -6 6 -10 4 -12 -10 -6 -16 6 -16 4 -4 -11 13 -15 12 -16 -9
-11 -20 6 -22 4 -10 -10 10 -12 10 -14 1 -8 -8 4 -13 2 -13 -6 0 -10 -2 -10
-9 1 -7 11 -11 9 -21 -8 -7 -14 -17 -20 -26 -17 -10 4 -12 2 -8 -6 5 -8 1 -9
-12 -4 -10 4 -15 4 -12 0 9 -9 -9 -44 -23 -44 -6 0 -7 6 -3 13 4 6 3 8 -1 4
-14 -12 -15 -38 -2 -31 7 3 3 -1 -7 -10 -10 -8 -22 -13 -26 -11 -4 3 -14 -3
-21 -12 -12 -14 -12 -16 0 -8 10 5 12 4 7 -3 -4 -7 -13 -12 -21 -12 -7 0 -16
-7 -19 -16 -3 -9 -13 -14 -21 -11 -9 4 -12 1 -8 -9 4 -10 -2 -17 -16 -21 -11
-3 -18 -10 -14 -16 4 -6 0 -8 -10 -4 -12 4 -14 2 -10 -11 6 -15 5 -15 -10 -3
-15 12 -17 12 -12 -2 4 -8 1 -18 -6 -23 -8 -5 -10 -3 -4 6 5 9 4 11 -4 6 -9
-6 -9 -11 -1 -21 9 -11 6 -13 -14 -11 -16 2 -23 -1 -19 -9 2 -7 -1 -16 -8 -21
-8 -4 -10 -3 -5 4 5 8 1 10 -10 5 -10 -4 -13 -8 -7 -10 7 -3 9 -11 6 -19 -3
-7 -10 -11 -16 -7 -6 4 -8 0 -4 -9 4 -12 0 -15 -16 -11 -18 4 -19 3 -7 -6 13
-9 12 -11 -4 -11 -13 0 -17 -5 -13 -19 3 -14 1 -18 -9 -14 -8 3 -11 10 -7 17
3 6 2 7 -3 3 -5 -5 -9 -18 -9 -30 0 -13 -10 -27 -25 -34 -14 -7 -19 -13 -10
-13 12 -1 11 -3 -3 -11 -9 -5 -23 -7 -30 -4 -6 4 -4 0 6 -8 17 -14 16 -15 -4
-20 -14 -4 -18 -10 -13 -19 6 -10 4 -10 -9 1 -15 12 -17 12 -11 -3 4 -9 1 -16
-6 -16 -10 0 -10 -3 -1 -14 10 -12 9 -14 -7 -10 -11 3 -24 -2 -33 -13 -12 -16
-12 -17 1 -8 9 6 7 2 -3 -8 -16 -14 -17 -20 -6 -35 11 -14 11 -15 0 -5 -14 12
-41 7 -41 -9 0 -5 5 -6 12 -2 7 5 8 3 4 -5 -5 -7 -14 -10 -22 -7 -8 3 -13 2
-13 -2 4 -22 -2 -42 -11 -37 -5 3 -10 1 -10 -5 0 -6 -5 -8 -10 -5 -6 3 -13 -2
-17 -12 -11 -28 -46 -73 -57 -73 -7 0 -8 3 -1 8 6 4 17 16 25 27 11 15 8 14
-12 -4 -15 -13 -26 -29 -25 -35 1 -6 -3 -10 -10 -9 -7 2 -10 -3 -7 -11 3 -8 0
-17 -7 -22 -7 -4 -10 -3 -5 4 3 6 2 14 -4 17 -6 4 -10 3 -9 -2 4 -23 -3 -31
-23 -28 -21 4 -22 3 -5 -9 17 -13 23 -28 10 -24 -15 4 -53 -13 -48 -21 2 -5
-5 -17 -18 -27 -16 -14 -18 -14 -9 -2 9 11 10 18 2 23 -6 4 -9 3 -8 -2 3 -10
-20 -53 -39 -71 -7 -8 -21 -11 -30 -8 -14 6 -14 4 -2 -11 8 -10 9 -14 2 -10
-13 8 -37 -26 -25 -37 3 -4 -1 -4 -9 -1 -9 3 -22 -2 -30 -12 -13 -17 -13 -17
6 -3 20 14 20 14 1 -7 -10 -13 -24 -20 -30 -16 -6 3 -7 2 -3 -2 4 -5 -3 -15
-15 -22 l-23 -14 25 6 c19 5 22 4 10 -4 -8 -6 -22 -11 -32 -11 -11 0 -15 -6
-11 -20 3 -12 0 -20 -6 -20 -7 0 -9 -5 -5 -12 5 -8 0 -7 -11 2 -10 8 -16 10
-12 3 4 -6 2 -15 -4 -18 -5 -4 -8 -14 -5 -22 3 -8 2 -12 -2 -10 -12 6 -39 -28
-36 -47 2 -14 0 -15 -12 -5 -12 10 -13 9 -7 -6 5 -15 3 -17 -12 -12 -15 6 -16
5 -5 -8 15 -18 0 -20 -19 -2 -8 6 -5 -1 5 -18 17 -27 17 -29 1 -16 -15 12 -17
12 -11 -4 6 -14 4 -16 -6 -10 -10 6 -12 3 -8 -13 4 -12 1 -25 -4 -29 -7 -4 -8
-1 -3 7 5 8 3 11 -4 9 -7 -3 -11 -7 -10 -9 6 -11 -23 -50 -36 -50 -8 0 -15 -5
-15 -11 0 -5 4 -8 8 -5 5 3 9 -1 9 -9 0 -8 -3 -13 -5 -10 -3 3 -11 -3 -19 -13
-8 -9 -11 -11 -7 -3 5 10 3 12 -5 7 -9 -6 -9 -11 -1 -21 8 -10 8 -15 -1 -21
-8 -5 -10 -3 -5 7 4 8 1 6 -7 -3 -8 -10 -18 -14 -22 -10 -5 4 -5 2 -1 -5 4 -7
14 -10 24 -7 9 2 7 -1 -4 -7 -12 -6 -25 -24 -28 -40 -3 -16 -9 -29 -13 -28
-20 3 -27 -2 -13 -11 13 -8 12 -10 -4 -10 -16 0 -17 -2 -5 -17 13 -15 12 -15
-9 -4 -22 12 -23 11 -13 -7 9 -16 6 -23 -12 -36 -12 -9 -17 -14 -10 -11 6 3
15 0 19 -6 4 -7 3 -9 -4 -5 -6 3 -13 2 -17 -4 -4 -6 -11 -7 -17 -4 -6 4 -8 2
-5 -4 10 -15 -3 -43 -17 -35 -6 4 -6 0 2 -9 11 -14 8 -20 -23 -44 -19 -15 -33
-29 -30 -33 3 -3 10 1 15 9 8 12 10 12 10 2 0 -8 -15 -28 -32 -45 -18 -17 -26
-27 -18 -22 13 7 13 6 2 -7 -10 -13 -10 -17 0 -22 7 -3 4 -4 -6 -3 -10 1 -21
-4 -24 -12 -3 -9 0 -11 8 -6 9 6 11 4 6 -4 -5 -7 -14 -10 -21 -7 -14 5 -15
-11 -2 -31 6 -9 3 -11 -7 -7 -11 4 -16 0 -16 -11 0 -9 -4 -13 -10 -10 -5 3 -7
0 -4 -8 3 -8 1 -18 -5 -22 -6 -3 -11 -15 -11 -26 0 -17 -11 -24 -33 -20 -4 1
-2 -9 4 -21 11 -21 11 -22 -5 -9 -14 12 -16 12 -10 -3 3 -9 1 -16 -5 -16 -6 0
-11 -5 -11 -11 0 -5 5 -7 12 -3 7 5 8 3 4 -5 -5 -7 -14 -10 -22 -7 -12 5 -12
2 -3 -15 6 -12 7 -19 2 -16 -4 3 -17 -2 -28 -10 -16 -13 -17 -15 -2 -10 21 8
23 -9 2 -17 -9 -3 -15 -14 -13 -23 2 -10 -2 -17 -10 -15 -6 1 -12 -1 -11 -5 3
-20 -14 -52 -25 -46 -6 4 -4 -2 4 -12 12 -15 12 -17 1 -10 -11 6 -13 4 -8 -8
4 -10 0 -20 -11 -26 -9 -5 -16 -13 -16 -18 1 -4 -3 -7 -9 -5 -6 2 -4 -4 3 -13
11 -13 10 -15 -1 -10 -10 4 -15 -2 -16 -16 -1 -12 -8 -26 -15 -30 -7 -5 -8 -9
-3 -9 6 0 1 -7 -9 -15 -14 -11 -16 -15 -5 -15 12 0 12 -2 -1 -10 -8 -5 -16
-14 -16 -20 -1 -5 -2 -15 -3 -21 0 -5 -5 -8 -10 -5 -5 3 -12 -1 -15 -10 -3 -8
-2 -12 4 -9 6 3 10 1 10 -4 0 -6 -7 -11 -15 -11 -9 0 -12 -6 -8 -17 5 -12 3
-14 -8 -8 -12 8 -12 6 0 -8 12 -15 12 -17 0 -12 -10 4 -15 -2 -17 -15 -4 -43
-6 -49 -14 -44 -5 3 -5 10 -2 16 4 7 2 8 -5 4 -6 -4 -9 -12 -6 -17 4 -5 -1
-12 -10 -15 -14 -6 -14 -8 2 -20 14 -11 14 -14 3 -12 -8 2 -14 -3 -12 -9 1 -7
-6 -13 -15 -13 -15 0 -16 -2 -3 -10 13 -9 13 -10 0 -10 -13 0 -13 -1 0 -10 13
-8 12 -10 -3 -10 -9 0 -16 -6 -15 -12 2 -7 -3 -12 -10 -10 -8 1 -11 -2 -8 -7
4 -5 0 -12 -6 -15 -7 -3 -2 -3 11 0 21 6 22 4 10 -9 -8 -8 -18 -12 -23 -9 -5
3 -6 -3 -2 -13 6 -16 4 -16 -11 -4 -15 13 -15 12 -6 -5 9 -16 7 -23 -11 -38
-18 -15 -19 -19 -6 -28 11 -7 11 -10 2 -10 -8 0 -10 -5 -6 -12 6 -10 5 -10 -7
-1 -12 10 -15 9 -16 -5 -4 -51 -8 -60 -23 -54 -13 5 -13 4 0 -13 9 -11 10 -16
2 -11 -8 5 -14 -2 -18 -24 -4 -18 -12 -29 -19 -27 -6 3 -11 -4 -11 -17 1 -12
-4 -20 -12 -18 -8 1 -11 -2 -8 -7 4 -5 3 -11 -1 -14 -5 -2 -3 -2 4 -1 6 2 14
-3 16 -10 3 -8 -1 -13 -11 -12 -11 1 -17 -7 -17 -19 -1 -12 -7 -19 -15 -17
-11 3 -11 0 1 -14 8 -10 9 -15 4 -12 -6 4 -17 -2 -24 -14 -7 -11 -8 -17 -2
-14 5 4 13 1 17 -5 4 -7 3 -9 -3 -6 -6 4 -19 -1 -29 -9 -10 -9 -13 -13 -6 -9
18 9 15 -6 -5 -21 -15 -12 -16 -13 -2 -8 10 3 20 -1 25 -8 4 -7 4 -10 -1 -6
-12 11 -45 -11 -39 -26 3 -7 -2 -19 -11 -26 -8 -7 -15 -18 -15 -25 0 -8 -6
-16 -12 -18 -10 -4 -10 -6 0 -6 6 -1 12 -6 12 -12 0 -6 -7 -9 -15 -5 -13 5
-14 2 -4 -15 6 -12 7 -19 1 -15 -5 3 -13 -1 -16 -10 -4 -10 -2 -13 7 -9 6 4 3
-1 -7 -9 -11 -9 -16 -16 -10 -16 5 0 2 -5 -6 -10 -11 -7 -11 -10 -2 -10 7 0
10 -5 7 -10 -4 -6 -10 -8 -15 -5 -5 3 -12 0 -16 -6 -4 -7 -3 -10 2 -7 5 3 16
-1 24 -10 13 -14 12 -15 -3 -9 -11 4 -17 1 -17 -8 0 -7 -5 -17 -12 -21 -7 -5
-8 -3 -3 6 5 9 4 11 -4 6 -9 -6 -9 -11 -1 -21 8 -10 5 -17 -12 -29 -12 -9 -17
-16 -11 -16 7 0 15 5 18 10 3 6 11 10 17 10 6 0 -2 -12 -18 -26 -16 -15 -23
-23 -15 -19 9 5 12 3 9 -6 -3 -8 -11 -13 -17 -11 -15 3 -14 -11 1 -26 9 -9 8
-12 -6 -12 -9 0 -14 -4 -11 -10 3 -5 1 -10 -4 -10 -6 0 -11 -5 -11 -11 0 -5 4
-7 10 -4 6 3 10 -1 10 -9 0 -9 -3 -15 -7 -15 -22 4 -24 -3 -7 -23 19 -22 19
-22 0 -8 -18 14 -19 13 -14 -13 4 -23 3 -25 -9 -15 -11 9 -13 8 -11 -3 2 -8 8
-17 13 -21 6 -4 1 -8 -10 -9 l-20 0 20 -9 c18 -8 18 -9 2 -9 -10 -1 -16 -5
-13 -10 9 -14 -5 -42 -17 -34 -6 4 -7 1 -2 -7 5 -8 1 -19 -11 -28 -12 -9 -14
-13 -4 -9 10 3 16 -2 16 -13 0 -10 -4 -16 -8 -14 -4 3 -8 -5 -8 -18 0 -13 -6
-30 -12 -37 -11 -11 -10 -12 2 -6 10 6 9 2 -3 -12 -14 -16 -15 -23 -6 -29 8
-5 10 -3 4 6 -5 9 -4 11 4 6 17 -11 3 -26 -17 -19 -15 6 -15 5 -3 -10 8 -11 9
-17 3 -17 -7 0 -9 -7 -5 -17 4 -11 3 -14 -5 -9 -8 5 -10 2 -6 -8 3 -9 3 -24
-1 -33 -5 -10 -7 -27 -6 -38 2 -17 0 -18 -9 -5 -10 13 -11 12 -6 -3 3 -10 6
-21 6 -23 0 -3 6 -2 13 1 6 4 5 0 -5 -7 -11 -10 -13 -19 -7 -30 6 -11 5 -19
-2 -24 -8 -5 -9 -3 -4 7 5 8 4 10 0 6 -12 -10 -16 -39 -5 -32 4 3 6 -4 3 -15
-3 -11 -10 -20 -15 -20 -6 0 -6 -6 1 -14 9 -11 9 -15 0 -18 -7 -2 -13 -14 -14
-26 -1 -11 1 -19 4 -17 3 1 6 -7 6 -20 0 -16 -3 -20 -11 -14 -8 7 -10 0 -8
-21 2 -19 0 -29 -6 -25 -6 3 -7 -1 -4 -9 3 -9 11 -13 18 -10 6 3 2 -2 -8 -10
-11 -9 -14 -16 -8 -16 7 0 12 -5 12 -11 0 -5 -4 -7 -10 -4 -14 9 -12 -8 3 -24
10 -11 9 -13 -3 -9 -12 5 -15 -2 -11 -35 2 -30 0 -38 -9 -32 -9 6 -11 4 -4 -6
12 -20 14 -40 3 -33 -5 3 -9 0 -9 -5 0 -6 5 -11 11 -11 8 0 8 -4 0 -14 -6 -7
-8 -22 -4 -31 4 -13 3 -16 -6 -10 -10 6 -11 3 -2 -14 8 -14 8 -21 1 -21 -7 0
-8 -6 -1 -18 6 -11 6 -24 1 -32 -6 -9 -5 -17 3 -22 8 -5 6 -8 -6 -8 -10 0 -15
-5 -12 -10 4 -6 11 -7 17 -4 7 4 8 2 4 -4 -4 -6 -14 -9 -24 -6 -14 5 -15 4 -2
-5 13 -10 12 -13 -5 -28 -16 -13 -17 -15 -2 -10 11 4 17 1 17 -9 0 -8 -5 -12
-11 -8 -8 5 -8 1 0 -14 14 -27 14 -35 -1 -27 -7 4 -4 -1 6 -9 17 -14 18 -16 3
-16 -21 0 -21 -8 0 -32 16 -18 16 -18 0 -12 -22 8 -22 -5 1 -23 16 -13 16 -14
0 -9 -15 4 -16 1 -7 -21 8 -22 7 -24 -8 -19 -14 6 -14 4 3 -15 10 -12 14 -19
7 -16 -6 4 -14 3 -18 -3 -3 -5 -1 -10 4 -10 6 0 11 -7 11 -16 0 -9 -5 -12 -12
-8 -9 5 -9 2 1 -9 7 -9 10 -17 6 -17 -4 0 -2 -6 4 -14 8 -10 9 -16 1 -21 -6
-3 -8 -11 -4 -16 10 -16 10 -99 0 -99 -5 0 -4 -6 2 -12 5 -7 8 -23 6 -36 -3
-17 0 -21 8 -16 10 6 10 5 1 -7 -17 -22 -13 -61 7 -54 13 4 13 3 -1 -7 -11
-10 -14 -21 -8 -40 4 -17 3 -28 -2 -28 -6 0 -3 -10 5 -22 21 -29 21 -48 0 -22
-8 10 -13 13 -9 6 4 -7 1 -20 -6 -28 -10 -12 -9 -13 4 -9 8 4 18 2 22 -4 3 -6
-1 -14 -10 -17 -14 -6 -14 -8 2 -21 10 -8 12 -11 4 -7 -11 5 -13 3 -8 -10 4
-10 7 -20 7 -22 0 -3 4 -2 10 1 6 3 7 -1 4 -9 -3 -9 -10 -14 -14 -11 -5 3 -12
1 -15 -5 -4 -6 -3 -10 2 -9 22 4 33 -3 33 -18 0 -15 -2 -16 -10 -3 -8 13 -10
12 -10 -2 0 -10 4 -18 10 -18 5 0 6 -7 3 -17 -4 -11 -3 -14 5 -9 17 11 15 0
-5 -20 -16 -16 -16 -16 7 -10 23 6 23 6 8 -7 -10 -8 -18 -17 -18 -20 0 -4 8
-4 18 -1 14 5 14 3 -2 -10 -20 -16 -20 -16 0 -16 16 0 17 -2 4 -10 -10 -6 -11
-10 -2 -10 6 0 12 -5 12 -11 0 -5 -4 -8 -8 -5 -5 3 -9 -1 -9 -9 0 -8 5 -11 10
-8 6 4 8 0 4 -10 -4 -10 1 -21 11 -27 15 -10 14 -11 -6 -6 -19 4 -21 2 -11
-10 6 -7 16 -11 23 -7 6 3 2 -4 -8 -16 -15 -17 -16 -20 -4 -16 12 5 15 0 16
-19 0 -14 -5 -26 -10 -26 -5 0 -2 -7 6 -16 9 -8 16 -20 16 -27 0 -6 -7 -2 -15
9 -15 17 -15 16 -1 -12 8 -17 13 -44 10 -60 -3 -23 -2 -26 7 -14 8 12 10 9 6
-13 -2 -15 -1 -30 3 -32 4 -3 6 -19 5 -35 -2 -24 1 -30 12 -26 9 4 11 2 7 -6
-13 -20 -12 -66 1 -62 6 3 12 -2 12 -10 0 -8 -5 -12 -11 -9 -6 3 -8 3 -4 -2 4
-4 2 -15 -5 -23 -11 -13 -9 -14 13 -2 14 7 22 9 18 5 -4 -5 -2 -15 5 -24 10
-14 10 -14 -5 -3 -14 12 -16 10 -11 -9 4 -15 3 -20 -5 -15 -18 11 -14 0 5 -15
14 -12 16 -12 8 0 -6 10 -4 12 4 6 9 -5 10 -10 2 -18 -7 -7 -5 -14 6 -22 13
-10 13 -14 3 -20 -9 -6 -11 -4 -5 5 5 9 4 11 -3 6 -17 -10 -15 -26 2 -26 8 0
18 -5 22 -12 5 -7 2 -9 -9 -5 -11 4 -14 2 -10 -9 3 -7 9 -14 13 -14 10 0 8
-20 -4 -39 -6 -9 -5 -12 1 -8 6 4 13 0 16 -8 4 -10 1 -12 -11 -9 -9 3 -6 -2 8
-10 14 -8 19 -15 11 -16 -10 0 -11 -3 -2 -13 8 -10 7 -17 -2 -27 -10 -10 -9
-11 2 -5 11 6 13 4 8 -8 -3 -10 -2 -17 4 -17 6 0 7 -5 4 -10 -3 -5 0 -10 7
-10 9 0 9 -3 -2 -10 -8 -5 -10 -10 -4 -10 7 0 15 -7 18 -16 5 -14 4 -15 -9 -4
-13 11 -14 10 -9 -4 3 -9 10 -16 14 -16 4 0 10 -9 13 -20 3 -11 2 -18 -2 -15
-4 2 -8 -2 -8 -10 0 -8 5 -11 10 -8 6 4 8 -5 5 -21 -4 -18 -1 -29 8 -33 10 -4
11 -10 4 -23 -7 -13 -6 -21 2 -26 7 -4 8 -3 4 4 -4 7 -2 10 7 6 14 -5 16 -31
5 -49 -7 -12 16 -47 25 -38 4 3 7 1 7 -5 0 -7 -5 -12 -11 -12 -6 0 -4 -7 5
-15 8 -9 12 -23 9 -32 -4 -11 -3 -14 5 -9 7 4 12 1 12 -9 0 -9 -5 -13 -11 -10
-6 4 -5 -2 2 -13 7 -12 18 -18 24 -15 5 4 7 3 3 -2 -4 -4 -3 -14 4 -22 9 -11
7 -12 -8 -6 -16 6 -17 4 -7 -9 7 -8 10 -18 6 -21 -3 -4 2 -7 12 -7 14 0 15 -3
5 -15 -7 -8 -10 -16 -6 -16 3 -1 10 -2 15 -3 5 0 13 -5 18 -10 5 -5 3 -6 -5
-2 -7 4 -12 1 -12 -9 0 -10 5 -13 12 -9 8 5 7 0 -2 -11 -14 -17 -13 -17 10
-11 17 5 21 4 11 -2 -11 -8 -10 -14 5 -38 11 -15 13 -25 7 -21 -19 12 -16 -4
5 -20 16 -14 16 -14 0 -9 -24 7 -23 1 4 -24 21 -20 35 -56 17 -44 -5 3 -9 0
-9 -5 0 -6 7 -11 15 -11 8 0 15 -5 15 -11 0 -5 -4 -7 -10 -4 -6 3 -7 -1 -4 -9
3 -9 11 -13 17 -9 5 3 7 1 4 -4 -4 -6 0 -16 8 -23 11 -9 12 -17 4 -31 -8 -16
-6 -21 13 -29 13 -5 18 -9 12 -9 -6 -1 -11 -8 -11 -16 0 -11 3 -12 14 -3 11 9
12 7 4 -14 -12 -31 -4 -42 17 -25 13 10 14 9 8 -1 -4 -7 -2 -20 6 -30 12 -15
11 -16 -5 -3 -15 12 -17 12 -11 -3 3 -9 11 -16 18 -16 6 0 4 -5 -4 -10 -13 -8
-13 -10 2 -10 12 0 15 -5 11 -16 -4 -10 4 -25 23 -41 16 -13 24 -22 17 -19 -6
4 -14 2 -18 -4 -3 -5 -2 -10 4 -10 6 0 15 -10 22 -21 8 -15 8 -19 0 -15 -6 4
-11 2 -11 -3 0 -6 6 -11 14 -11 8 0 18 -5 22 -12 4 -7 3 -8 -4 -4 -20 12 -13
-5 10 -23 16 -14 18 -20 8 -26 -9 -6 -11 -4 -5 5 6 9 4 11 -5 5 -9 -6 -11 -4
-5 5 6 9 4 11 -5 5 -10 -6 -8 -12 8 -26 12 -9 22 -25 22 -34 0 -10 5 -13 13
-9 8 5 8 2 -2 -9 -10 -13 -10 -17 -1 -17 7 0 10 -7 6 -16 -3 -9 3 -27 13 -40
11 -14 18 -33 16 -44 -3 -13 1 -18 14 -15 18 3 22 -19 7 -43 -4 -7 -5 -16 -2
-19 3 -4 6 -1 6 5 0 7 8 12 18 11 11 0 12 -2 4 -6 -10 -4 -9 -9 5 -20 17 -14
17 -14 -2 -9 -18 6 -18 4 3 -13 15 -13 18 -21 10 -24 -8 -4 -7 -6 4 -6 9 -1
20 -6 24 -13 5 -8 2 -9 -11 -4 -14 5 -16 4 -7 -7 7 -8 8 -18 4 -22 -4 -5 -1
-5 5 -1 8 4 13 1 13 -9 0 -10 5 -13 12 -9 9 5 9 2 -1 -9 -16 -20 -2 -23 19 -5
12 11 12 10 3 -2 -8 -10 -9 -21 -3 -30 14 -21 12 -32 -2 -25 -7 4 -3 -2 9 -13
13 -11 23 -25 23 -32 0 -17 26 -40 35 -32 5 4 5 1 1 -6 -5 -7 -13 -10 -20 -5
-7 4 -4 0 6 -9 11 -9 20 -21 21 -25 1 -4 5 -7 9 -6 13 5 9 -15 -4 -20 -10 -4
-10 -6 0 -6 6 -1 12 -8 12 -16 0 -8 5 -15 10 -15 6 0 10 -7 10 -16 0 -9 5 -12
13 -8 9 6 9 4 -1 -8 -10 -13 -10 -18 -1 -24 8 -5 9 -3 4 6 -5 8 -4 11 3 6 6
-4 9 -13 6 -20 -3 -8 4 -16 16 -19 12 -3 19 -10 16 -15 -3 -6 -3 -12 1 -15 5
-2 2 -2 -4 -1 -7 2 -13 0 -13 -5 0 -5 9 -11 21 -14 12 -3 18 -10 15 -16 -3 -5
1 -17 10 -25 8 -9 12 -16 8 -16 -4 0 1 -7 12 -16 10 -8 14 -13 8 -10 -6 3 -11
-1 -11 -9 0 -8 4 -12 9 -9 4 3 8 -2 8 -11 0 -9 4 -14 8 -11 4 2 14 -5 22 -17
12 -21 12 -21 -6 -8 -10 8 -2 -2 19 -22 20 -20 37 -40 37 -44 0 -4 -7 0 -14 9
-18 25 -29 23 -14 -2 7 -11 19 -20 26 -20 7 0 10 -4 7 -10 -3 -5 -1 -10 4 -10
6 0 11 -7 11 -15 0 -9 9 -25 20 -37 10 -12 17 -25 14 -30 -3 -5 -2 -8 3 -7 19
3 27 -2 15 -10 -10 -6 -9 -11 4 -22 15 -12 17 -12 9 0 -5 10 -4 12 4 7 9 -6 9
-11 0 -22 -10 -12 -9 -13 6 -8 13 5 16 4 11 -4 -4 -7 -2 -12 3 -12 6 0 11 -5
11 -11 0 -5 -6 -7 -12 -3 -9 5 -9 2 1 -9 7 -9 20 -17 27 -17 8 0 14 -5 14 -11
0 -5 -6 -7 -12 -4 -7 4 -6 1 3 -7 9 -7 14 -19 11 -27 -3 -10 0 -12 11 -8 11 4
14 0 12 -19 -1 -13 3 -24 9 -24 6 0 17 -9 24 -20 15 -25 4 -27 -14 -3 -13 17
-14 17 -8 0 4 -10 15 -22 25 -27 11 -6 16 -18 14 -31 -4 -17 -2 -19 11 -8 8 6
17 9 21 5 3 -3 1 -6 -5 -6 -20 0 -13 -28 8 -35 11 -3 20 -10 20 -15 0 -5 -7
-7 -15 -4 -8 4 -15 1 -15 -6 0 -6 4 -9 8 -6 5 3 16 -4 25 -15 20 -22 22 -33 5
-23 -7 4 -8 3 -4 -5 6 -9 11 -9 24 1 13 11 14 11 8 0 -4 -7 -2 -19 4 -27 6 -8
8 -20 4 -26 -5 -8 -2 -10 8 -6 22 8 30 -3 15 -21 -9 -13 -9 -14 1 -8 7 4 12 1
13 -8 3 -30 4 -34 13 -43 6 -5 6 -2 1 7 -8 13 -7 13 9 1 13 -11 14 -16 4 -22
-9 -6 -8 -9 7 -10 11 -1 24 -1 28 0 5 1 6 -3 2 -9 -4 -6 -1 -19 7 -28 12 -15
11 -16 -4 -3 -26 20 -22 6 7 -23 14 -14 25 -34 25 -45 0 -11 5 -23 12 -27 7
-5 8 -3 3 6 -5 9 -4 11 4 6 9 -6 9 -11 0 -22 -9 -11 -8 -14 9 -14 11 0 23 -7
26 -16 5 -14 4 -15 -9 -4 -21 17 -19 7 4 -19 11 -12 18 -31 16 -42 -2 -10 -1
-18 3 -18 19 3 32 -2 32 -12 0 -5 -4 -8 -8 -5 -5 3 -9 -1 -9 -8 0 -8 8 -12 21
-9 17 4 18 3 6 -6 -12 -8 -12 -11 -1 -11 11 0 11 -3 1 -16 -8 -8 -9 -14 -4
-13 5 1 16 1 24 0 13 -1 13 -2 0 -11 -13 -9 -13 -10 0 -11 8 -1 18 -1 23 0 4
0 7 -4 7 -9 0 -6 -7 -10 -15 -10 -8 0 -15 -4 -15 -10 0 -5 7 -7 17 -3 13 5 15
2 11 -15 -4 -13 -2 -19 6 -16 14 5 45 -46 39 -63 -3 -7 0 -13 6 -13 6 0 11 -7
11 -16 0 -10 6 -14 14 -11 10 4 13 1 9 -8 -3 -8 -10 -12 -17 -9 -6 3 -2 -2 9
-11 11 -9 20 -22 20 -30 0 -8 9 -22 20 -30 11 -9 13 -13 5 -9 -13 7 -13 5 -2
-9 8 -9 10 -22 6 -29 -6 -9 -3 -9 9 1 15 12 17 12 11 -4 -5 -12 -4 -16 3 -12
6 4 14 0 17 -9 3 -8 2 -12 -4 -9 -6 3 -7 -1 -4 -9 3 -9 16 -16 28 -17 20 0 20
-1 1 -9 -15 -6 -16 -9 -4 -9 9 -1 22 -12 29 -26 7 -13 18 -22 24 -18 6 3 5 0
-1 -8 -17 -17 -16 -29 2 -29 9 0 12 -6 9 -15 -4 -8 -1 -15 6 -15 6 0 9 -4 5
-9 -3 -5 4 -12 15 -16 16 -5 19 -12 14 -32 -5 -18 -3 -24 5 -19 6 4 11 1 11
-8 0 -9 4 -16 9 -16 5 0 11 -9 14 -21 4 -13 10 -18 17 -14 9 6 9 2 1 -14 -10
-18 -9 -21 10 -21 18 0 19 -2 9 -15 -11 -13 -10 -14 4 -9 9 4 16 3 15 -2 -5
-26 2 -45 14 -38 7 5 6 0 -3 -11 -9 -11 -10 -16 -2 -11 7 4 12 2 12 -4 0 -6 5
-8 13 -4 8 5 8 2 -2 -9 -11 -15 -11 -17 2 -17 8 0 18 -7 21 -16 9 -23 8 -26
-6 -19 -7 4 -3 -2 9 -13 12 -11 19 -22 16 -26 -4 -3 0 -6 8 -6 8 0 23 -13 34
-28 15 -22 16 -24 2 -13 -15 12 -17 12 -11 -3 3 -9 13 -16 21 -16 10 0 12 -6
8 -22 -7 -23 -7 -23 8 -3 11 14 15 16 15 5 -2 -37 3 -61 12 -55 6 3 10 -1 10
-10 0 -9 4 -13 10 -10 6 4 10 -5 10 -20 0 -22 3 -25 23 -21 12 3 16 3 10 0
-18 -8 -16 -37 1 -31 11 4 13 1 9 -10 -5 -12 -3 -14 8 -8 11 7 11 5 -1 -10 -9
-11 -10 -16 -2 -11 8 5 12 0 12 -13 0 -12 5 -21 10 -21 6 0 10 -9 10 -21 0
-11 3 -18 8 -16 4 3 14 -2 22 -11 13 -14 12 -15 -3 -9 -14 5 -16 3 -8 -12 6
-10 7 -22 3 -26 -4 -5 -1 -5 6 -1 7 4 9 13 5 19 -4 7 1 6 11 -2 13 -11 14 -16
4 -22 -10 -7 -10 -9 0 -9 6 0 12 -5 12 -11 0 -13 26 -40 32 -34 3 3 5 -2 5
-10 0 -8 -4 -12 -9 -9 -4 3 -5 -2 -2 -10 3 -9 14 -16 23 -16 14 0 14 -2 1 -10
-13 -9 -13 -10 0 -11 8 -1 19 -1 24 0 5 1 3 -6 -5 -15 -8 -10 -9 -15 -4 -12 6
4 16 -2 23 -12 7 -12 8 -21 2 -25 -15 -10 22 -53 40 -47 12 5 13 3 2 -10 -10
-13 -9 -16 9 -21 14 -4 20 -11 16 -21 -4 -10 3 -18 21 -25 20 -9 21 -10 5 -7
-20 4 -21 2 -12 -16 6 -11 19 -23 30 -25 10 -3 17 -9 14 -13 -3 -5 1 -15 9
-23 11 -11 12 -17 3 -26 -9 -9 -8 -11 5 -6 26 10 42 -4 26 -23 -11 -13 -11
-15 2 -10 8 3 22 -2 30 -10 13 -14 12 -15 -1 -10 -9 4 -16 1 -16 -7 0 -8 9
-12 26 -9 18 3 22 2 12 -5 -16 -10 -5 -35 13 -28 7 3 13 -1 13 -9 0 -7 -5 -10
-10 -7 -6 3 -7 1 -3 -5 4 -7 13 -12 20 -12 8 0 20 -8 27 -17 13 -16 12 -17 -4
-4 -15 12 -17 12 -12 -1 3 -9 18 -21 32 -27 14 -6 23 -14 20 -18 -4 -3 -2 -14
4 -25 7 -13 17 -17 32 -14 12 3 16 3 10 0 -7 -3 -13 -12 -13 -20 0 -9 4 -12
10 -9 5 3 10 -3 10 -14 0 -11 9 -22 20 -26 11 -3 20 -15 20 -26 0 -10 6 -19
14 -19 18 0 47 -40 39 -53 -3 -6 -1 -7 5 -3 7 4 20 2 29 -4 16 -10 16 -11 1
-6 -12 3 -15 1 -11 -10 3 -8 12 -13 20 -10 8 3 12 2 9 -2 -3 -5 4 -15 15 -22
10 -8 19 -23 19 -33 0 -10 4 -15 10 -12 5 3 10 -1 10 -9 0 -9 5 -16 11 -16 5
0 7 -4 4 -10 -3 -5 1 -10 11 -10 11 0 15 -6 11 -20 -3 -11 0 -18 7 -17 6 1 10
-4 9 -10 -2 -7 0 -12 5 -12 21 4 31 -3 26 -16 -4 -8 -1 -15 5 -15 5 0 15 -10
21 -22 10 -21 10 -21 -3 -5 -8 9 -17 17 -21 17 -4 0 3 -13 16 -29 13 -15 27
-26 32 -23 5 3 6 0 2 -6 -3 -6 -1 -14 5 -17 5 -4 8 -14 4 -23 -3 -9 -3 -13 1
-10 12 12 33 -16 22 -29 -7 -9 -6 -15 6 -19 9 -3 14 -10 11 -15 -3 -4 4 -6 16
-4 18 4 19 2 7 -12 -9 -12 -9 -15 0 -9 7 4 12 1 12 -9 0 -9 4 -14 9 -11 5 4 8
-5 6 -19 -2 -22 0 -23 13 -13 11 9 13 9 9 1 -4 -6 0 -18 8 -26 18 -18 20 -31
3 -21 -7 4 -8 3 -4 -4 4 -6 14 -8 24 -5 15 6 16 5 2 -12 -14 -17 -13 -18 2
-13 10 4 19 1 22 -8 3 -9 1 -12 -4 -9 -6 3 -10 1 -10 -4 0 -6 7 -11 16 -11 8
0 13 -3 11 -7 -7 -11 19 -33 28 -25 4 4 3 -3 -4 -15 -14 -27 -14 -33 0 -33 5
0 7 4 4 10 -3 5 1 10 9 10 9 0 15 -3 15 -7 -5 -28 3 -53 16 -53 13 0 14 -4 5
-21 -10 -19 -10 -20 9 -10 25 14 41 14 21 1 -12 -8 -13 -12 -2 -19 8 -4 14
-12 15 -17 1 -5 6 -8 11 -6 5 2 4 -3 -2 -11 -15 -18 -3 -30 15 -15 11 8 12 7
7 -6 -3 -9 -1 -16 6 -16 6 0 8 -4 5 -10 -3 -5 -1 -10 5 -10 11 0 35 -48 31
-64 -1 -5 5 -6 13 -3 10 4 14 0 11 -14 -4 -18 9 -24 40 -20 6 1 2 -5 -8 -13
-18 -14 -17 -15 4 -21 17 -6 19 -9 8 -16 -11 -7 -9 -9 7 -9 16 0 23 -8 27 -29
3 -16 14 -31 23 -35 17 -6 17 -6 1 12 -9 10 -17 22 -17 26 0 4 11 -6 25 -22
14 -17 25 -38 25 -48 0 -16 2 -17 10 -4 8 13 10 12 10 -2 0 -10 5 -18 11 -18
5 0 8 -4 5 -9 -4 -5 5 -8 19 -6 20 2 23 0 14 -11 -9 -11 -7 -14 11 -14 13 0
21 -3 17 -6 -3 -4 1 -13 9 -21 8 -8 11 -19 8 -25 -4 -7 -2 -8 5 -4 6 4 14 0
17 -8 3 -9 15 -16 26 -16 11 0 26 -7 34 -15 9 -8 13 -15 9 -15 -4 0 0 -7 9
-15 17 -17 30 -20 21 -5 -10 16 1 11 16 -7 10 -11 10 -14 2 -9 -7 4 -13 2 -13
-3 0 -6 9 -11 20 -11 18 0 25 -11 21 -34 -1 -5 6 -3 15 5 10 8 15 9 11 3 -7
-13 19 -28 33 -19 4 3 6 -5 2 -17 -4 -17 -2 -20 11 -15 12 4 14 2 10 -11 -3
-9 -3 -14 1 -10 5 4 18 -4 31 -18 22 -24 42 -33 30 -14 -3 6 -1 10 4 10 11 0
15 -21 11 -50 -1 -12 1 -13 11 -2 16 15 30 16 26 0 -1 -7 3 -12 10 -13 18 0
34 -19 36 -43 0 -11 4 -20 7 -19 3 0 25 -9 50 -21 25 -12 37 -21 28 -22 -9 0
-20 5 -23 10 -3 6 -11 10 -18 10 -19 0 27 -29 48 -30 14 0 16 -3 7 -8 -9 -6
-5 -12 13 -22 14 -7 25 -20 25 -27 0 -8 5 -11 10 -8 6 3 10 1 10 -5 0 -6 5 -8
12 -4 8 5 9 0 6 -14 -4 -12 -3 -20 2 -17 11 7 32 -20 22 -29 -4 -4 -2 -7 3 -6
23 5 36 -1 29 -12 -5 -9 -2 -9 9 1 15 12 17 11 17 -13 0 -14 4 -26 10 -26 5 0
6 8 3 17 -6 15 -5 16 9 3 11 -11 13 -19 6 -28 -8 -9 -7 -11 7 -6 14 6 16 4 10
-7 -8 -12 -6 -12 8 0 15 12 17 12 11 -4 -5 -13 -4 -16 4 -11 7 4 12 2 12 -4 0
-6 5 -8 12 -4 7 5 9 2 5 -9 -4 -12 -1 -15 14 -12 17 4 19 2 8 -11 -10 -12 -9
-13 5 -8 9 4 16 1 16 -6 0 -7 8 -10 20 -7 13 3 20 0 20 -10 0 -8 -4 -11 -10
-8 -5 3 -10 2 -10 -4 0 -5 14 -8 31 -6 25 3 30 1 24 -13 -3 -9 -3 -13 1 -9 4
4 19 -3 33 -15 14 -13 19 -15 12 -5 -12 15 -12 17 3 11 9 -3 16 -14 16 -23 0
-14 2 -14 10 -1 8 12 10 12 10 -5 0 -17 2 -17 10 -5 8 13 10 12 10 -2 0 -10 7
-18 15 -18 8 0 15 -5 15 -11 0 -7 11 -9 28 -5 15 3 21 3 14 0 -19 -9 -14 -24
8 -24 11 0 20 -7 20 -15 0 -8 11 -17 25 -21 14 -3 22 -10 19 -15 -8 -13 10
-11 25 4 11 10 11 8 1 -12 -6 -13 -8 -21 -2 -18 5 4 24 -5 42 -18 19 -14 36
-25 39 -25 3 0 -3 7 -13 15 -11 8 -15 15 -9 15 7 0 21 -12 32 -26 12 -15 21
-21 21 -13 0 11 2 11 9 -1 6 -8 7 -18 4 -23 -3 -5 4 -4 15 2 17 9 22 8 27 -9
3 -11 13 -20 21 -20 27 0 29 -1 42 -23 8 -12 11 -15 8 -5 -3 12 -1 15 9 11 8
-3 13 -8 11 -12 -2 -3 8 -15 23 -26 21 -15 23 -16 12 -2 -12 15 -12 17 3 11 9
-3 16 -14 16 -23 0 -14 2 -14 10 -1 7 12 10 12 10 1 0 -8 6 -11 16 -7 8 3 13
2 10 -3 -3 -5 6 -17 20 -26 15 -9 24 -13 20 -7 -3 6 5 9 19 8 23 -1 30 -8 26
-29 -1 -5 3 -6 9 -2 6 3 7 12 3 18 -5 8 -2 8 9 -1 8 -7 24 -10 34 -6 16 5 17
4 4 -6 -13 -10 -11 -11 7 -7 15 3 20 1 16 -9 -4 -10 0 -12 11 -8 9 3 13 11 9
17 -3 6 -1 7 6 3 6 -4 9 -11 6 -16 -8 -13 18 -18 37 -8 14 7 16 5 11 -8 -5
-13 -3 -15 13 -6 14 7 24 7 36 -2 10 -7 16 -15 13 -18 -3 -2 2 -5 10 -5 8 0
12 4 10 8 -3 4 2 9 10 12 10 4 12 1 8 -10 -5 -12 -2 -15 10 -10 10 4 17 2 17
-4 0 -6 9 -9 20 -6 17 4 20 2 15 -16 -5 -16 -4 -18 3 -8 6 8 15 10 23 5 11 -6
10 -3 -1 12 -14 19 -14 19 7 1 12 -11 27 -16 34 -11 9 5 10 2 6 -10 -4 -9 -3
-14 2 -11 5 3 13 1 16 -5 5 -8 11 -7 21 1 11 9 14 9 14 -1 0 -9 4 -9 17 1 15
12 16 12 10 -4 -4 -10 -3 -16 2 -12 5 3 11 2 14 -2 2 -5 2 -3 1 4 -2 7 2 15 8
19 6 4 8 3 4 -4 -3 -6 -1 -14 5 -17 18 -12 83 -13 96 -3 7 6 14 5 19 -3 4 -8
3 -9 -4 -5 -8 5 -10 1 -5 -9 3 -9 9 -13 12 -8 3 5 20 8 36 8 17 -1 41 6 55 14
23 13 24 13 11 -2 -8 -10 -9 -17 -3 -17 6 0 13 4 17 10 3 5 13 6 22 3 12 -5
14 -3 8 7 -6 9 -1 8 14 -3 25 -17 55 -12 44 7 -3 6 -1 6 8 -2 16 -15 33 -16
23 0 -5 7 -3 8 7 3 18 -12 49 -14 43 -3 -8 13 10 10 25 -5 9 -7 11 -8 7 0 -3
6 6 15 25 22 26 9 30 8 25 -4 -5 -13 -2 -13 18 1 16 10 26 12 31 5 8 -14 25
-14 25 0 0 5 -5 7 -12 3 -7 -4 -8 -3 -4 5 6 9 11 9 22 0 11 -9 14 -8 14 5 0
10 5 14 10 11 6 -4 8 -12 4 -18 -3 -7 1 -4 9 6 8 9 22 17 31 17 9 0 16 5 16
11 0 5 5 7 10 4 6 -3 10 -1 10 5 0 6 5 8 10 5 6 -3 10 -1 10 5 0 7 6 10 13 7
6 -2 18 3 25 12 7 9 12 12 11 6 -3 -24 3 -26 27 -10 15 9 23 12 20 6 -4 -6 0
-11 9 -11 9 0 13 5 10 10 -3 6 -2 10 4 10 5 0 12 -6 14 -12 4 -10 6 -9 6 1 1
10 4 11 15 2 11 -9 16 -9 22 0 5 8 3 10 -7 4 -10 -6 -11 -5 -4 3 13 14 68 24
60 11 -4 -5 -10 -7 -15 -4 -5 3 -11 1 -15 -4 -3 -6 4 -8 17 -5 13 3 29 6 36 6
6 1 12 6 12 12 0 7 3 7 8 1 9 -12 54 -16 46 -4 -9 14 6 10 22 -6 11 -11 21
-12 33 -5 12 6 22 5 31 -3 10 -10 12 -8 6 7 -7 20 -7 20 15 0 12 -10 19 -14
16 -7 -4 6 -2 15 4 19 7 4 9 3 5 -4 -3 -6 -2 -13 3 -16 5 -4 12 -2 16 4 4 7
14 5 28 -5 28 -20 46 -19 21 1 -18 15 -18 15 3 4 12 -5 27 -18 33 -28 10 -14
11 -15 6 0 -8 26 7 31 22 6 10 -17 12 -18 7 -4 -5 18 -5 19 12 4 12 -10 35
-15 66 -14 35 1 47 -2 47 -13 0 -11 3 -10 13 4 11 14 16 15 22 5 6 -9 4 -11
-5 -5 -9 5 -11 4 -6 -4 4 -6 13 -8 19 -4 18 11 38 12 31 2 -3 -5 -11 -6 -17
-2 -7 4 -6 0 2 -10 14 -18 26 -23 17 -8 -6 9 53 20 73 13 6 -2 11 -11 12 -20
0 -11 2 -12 6 -4 2 6 9 12 14 12 6 0 8 -4 5 -8 -7 -12 38 -9 46 3 5 6 8 3 8
-7 0 -15 4 -16 26 -8 21 8 25 8 21 -3 -3 -8 1 -14 9 -14 7 0 11 4 8 9 -3 4 2
5 10 2 9 -3 13 -10 10 -15 -3 -5 -1 -9 5 -9 5 0 12 6 14 13 4 9 6 9 6 0 1 -7
6 -13 12 -13 5 0 7 6 3 13 -5 6 10 -1 32 -18 21 -16 34 -22 27 -14 -10 12 -8
15 8 15 11 0 18 -5 15 -11 -2 -6 5 -12 16 -12 17 -2 18 0 6 14 -12 15 -11 15
9 3 12 -8 19 -18 16 -24 -4 -5 -1 -6 8 0 20 12 40 14 33 3 -3 -5 -10 -6 -16
-3 -7 4 -8 2 -4 -5 4 -6 11 -9 16 -6 4 3 11 -1 13 -7 4 -10 6 -9 6 1 1 11 4
11 18 0 9 -8 14 -9 10 -3 -3 6 1 11 9 11 9 0 13 -6 10 -14 -3 -8 -2 -12 3 -8
5 3 11 2 14 -2 2 -5 2 -2 1 5 -4 16 1 15 21 -5 13 -13 21 -14 35 -6 13 9 23 6
45 -13 31 -27 44 -32 26 -10 -10 12 -8 13 9 9 12 -3 24 -12 27 -19 2 -7 11
-10 18 -8 7 3 16 1 20 -5 10 -16 25 -13 25 5 0 13 5 11 21 -7 11 -13 18 -18
14 -11 -4 7 0 12 10 12 12 0 15 -5 11 -17 -5 -15 -4 -15 9 1 14 19 21 11 16
-17 -1 -5 3 -6 9 -2 6 3 7 11 4 17 -4 6 0 6 13 -1 11 -6 24 -7 28 -3 5 4 5 1
1 -5 -4 -7 -2 -13 3 -13 6 0 11 6 11 13 0 8 3 8 8 2 4 -6 18 -12 32 -13 14 0
26 -6 28 -12 3 -7 9 -7 20 2 12 10 14 10 8 1 -4 -7 -2 -14 3 -14 21 -3 26 -4
41 -14 13 -8 13 -7 1 8 -7 9 -18 14 -24 10 -6 -3 -7 -1 -3 6 8 12 19 8 49 -17
13 -12 20 -13 29 -4 8 8 15 7 25 -6 12 -16 13 -16 7 0 -3 10 -1 18 5 18 6 0
11 -6 11 -12 0 -8 3 -9 8 -3 4 6 21 10 37 10 17 0 33 5 37 10 4 6 8 -1 8 -15
0 -14 4 -20 8 -15 9 12 32 13 51 1 9 -6 12 -5 7 2 -3 6 -2 13 4 17 5 3 10 1
10 -5 0 -7 8 -9 20 -5 13 4 20 2 21 -7 0 -7 4 -4 9 7 5 11 9 14 9 6 1 -11 4
-11 16 -1 12 10 15 10 15 -1 1 -10 4 -9 11 3 5 9 16 15 24 12 8 -4 12 -10 9
-15 -3 -5 2 -6 10 -3 9 3 13 11 9 18 -3 6 4 2 16 -8 19 -17 21 -17 15 -3 -5
13 -2 16 12 10 12 -5 15 -3 9 6 -4 7 5 5 21 -5 15 -11 25 -14 21 -7 -4 6 -3
14 3 18 5 3 10 2 10 -3 0 -6 7 -12 15 -16 13 -5 14 -2 4 17 -11 20 -11 21 4 8
10 -7 17 -10 17 -5 0 4 5 3 12 -4 15 -15 28 -15 28 -1 0 5 -6 7 -13 3 -6 -4
-9 -3 -4 1 9 11 57 13 50 2 -2 -4 8 -5 24 -1 44 10 48 10 45 -4 -1 -8 2 -11 8
-7 6 4 9 13 6 21 -4 11 1 10 22 -3 26 -17 27 -17 12 1 -14 18 -14 19 8 7 17
-9 22 -9 22 1 0 9 3 9 10 -2 9 -13 10 -13 10 0 0 13 1 13 10 0 6 -10 10 -11
10 -2 0 6 5 12 11 12 5 0 8 -4 5 -8 -2 -4 4 -8 14 -8 15 0 17 3 7 15 -10 12
-9 13 11 2 17 -9 22 -9 23 1 0 7 4 4 9 -7 5 -11 9 -14 9 -6 1 7 7 11 16 7 8
-3 15 0 15 7 0 8 4 6 10 -3 7 -11 10 -11 10 -2 0 10 5 10 20 2 16 -9 20 -8 20
5 0 13 2 14 14 3 8 -7 11 -17 8 -22 -3 -5 0 -6 6 -2 6 4 10 12 8 19 -1 7 -1 9
1 4 3 -4 10 -4 15 -1 6 4 8 2 4 -4 -3 -6 -1 -14 5 -18 8 -5 9 -3 4 6 -6 10 -4
12 8 7 10 -4 17 -1 18 6 0 7 4 3 9 -8 8 -18 9 -18 10 5 2 16 4 19 7 8 2 -9 11
-19 19 -22 8 -3 13 -2 10 2 -2 4 -1 14 5 22 7 12 9 12 9 -3 0 -10 5 -15 10
-12 6 4 7 12 3 18 -4 7 0 7 10 -1 9 -8 21 -11 27 -7 6 4 10 3 9 -2 -4 -22 2
-25 16 -7 13 16 14 16 9 1 -6 -17 6 -23 20 -10 9 9 56 12 56 3 0 -3 -6 -12
-12 -20 -11 -12 -10 -12 4 -1 9 7 23 9 30 5 10 -6 11 -5 1 7 -11 13 -9 15 7
14 11 -1 23 -5 27 -10 5 -4 2 -5 -4 -1 -7 4 -13 2 -13 -4 0 -8 9 -10 26 -6 19
5 24 4 18 -6 -6 -9 -3 -9 9 1 19 15 19 15 36 -14 12 -20 12 -20 6 1 -4 14 -1
21 9 21 9 0 12 -5 9 -10 -3 -5 0 -7 8 -5 8 3 26 1 42 -3 15 -4 27 -5 27 -1 0
4 11 7 24 7 13 0 22 -4 19 -9 -3 -4 5 -5 17 -1 17 6 21 4 15 -6 -5 -8 2 -5 15
6 13 11 20 15 17 9 -9 -16 18 -25 32 -11 8 8 11 6 11 -8 0 -13 3 -16 8 -8 11
17 63 11 57 -7 -3 -8 4 -4 16 10 11 14 18 20 15 14 -3 -7 1 -15 10 -18 8 -3
13 -2 10 3 -3 5 1 14 9 21 13 11 14 10 10 -2 -4 -9 0 -18 9 -21 10 -4 13 -1 9
9 -4 10 0 12 11 8 9 -3 13 -11 9 -18 -4 -6 1 -4 11 4 22 18 76 23 76 7 0 -7 4
-6 10 3 9 13 10 13 10 0 0 -13 1 -13 10 0 8 12 13 13 29 3 17 -11 19 -10 14 3
-5 14 -3 15 15 5 15 -8 22 -8 25 2 4 8 6 8 6 -2 1 -11 5 -10 17 5 12 15 14 15
10 2 -4 -14 -2 -15 21 -3 15 8 30 12 35 9 4 -3 5 1 2 9 -3 8 1 14 10 14 8 0
13 -4 10 -9 -3 -4 0 -8 5 -8 6 0 11 5 11 12 0 6 3 8 7 5 3 -4 12 1 20 11 8 9
12 12 9 6 -3 -7 3 -14 14 -17 11 -3 18 -1 14 4 -3 5 0 9 6 9 6 0 8 6 4 13 -5
9 -4 9 6 0 11 -10 16 -9 27 5 10 12 12 12 8 2 -4 -9 0 -8 8 3 15 18 15 18 20
0 4 -15 5 -15 6 -2 0 9 8 20 17 23 12 5 14 3 8 -7 -5 -7 -2 -5 7 4 10 11 20
14 26 8 6 -6 17 -2 31 11 20 19 22 19 31 2 10 -15 10 -15 8 3 -1 11 -7 27 -12
35 -7 12 -6 13 7 3 8 -7 18 -10 22 -6 4 4 4 -1 1 -12 -6 -18 -6 -18 5 -2 6 9
16 14 22 11 7 -4 8 -2 4 4 -4 7 -1 12 9 12 9 0 13 5 10 10 -3 6 -1 10 4 10 6
0 11 -4 11 -10 0 -5 5 -10 11 -10 5 0 7 5 3 12 -5 8 -2 9 10 5 9 -4 14 -3 11
2 -5 10 33 27 49 22 5 -1 3 6 -5 15 -13 16 -12 16 9 5 19 -10 22 -9 22 6 0 15
2 16 10 3 8 -13 10 -13 10 1 0 11 8 15 26 13 20 -2 23 0 14 11 -9 11 -7 12 11
8 17 -5 20 -3 14 8 -6 11 -5 12 5 2 11 -10 18 -9 35 7 11 11 31 21 43 23 12 2
29 12 38 23 8 10 13 12 9 4 -5 -12 -4 -12 7 1 7 9 21 15 30 13 10 -1 26 8 36
20 9 13 23 21 30 18 6 -2 12 1 12 7 0 6 9 11 19 11 15 0 19 6 16 20 -2 12 0
18 6 15 5 -4 7 -10 4 -15 -3 -5 -1 -11 5 -15 5 -3 10 1 10 10 0 12 5 15 16 11
12 -4 15 -2 10 9 -7 20 -1 19 20 -3 16 -15 17 -15 12 0 -4 10 -1 19 8 22 8 3
13 2 10 -3 -4 -5 5 -4 19 2 14 7 23 18 20 25 -3 7 0 10 5 7 5 -3 18 -1 29 5
17 9 19 7 16 -10 -2 -12 0 -18 6 -15 5 4 7 10 4 14 -2 5 3 17 11 27 14 17 15
17 10 1 -4 -11 -2 -16 5 -11 6 3 8 15 6 26 -5 16 -3 17 10 6 12 -10 17 -9 28
5 6 9 14 14 17 12 3 -3 17 1 32 9 18 9 23 16 14 19 -7 3 -3 6 10 6 16 1 21 5
16 14 -5 8 -2 8 9 -2 20 -16 23 -2 5 19 -7 8 -4 7 8 -3 19 -15 22 -15 40 -1
10 8 13 12 5 8 -9 -4 -12 -3 -8 4 4 5 17 8 30 5 17 -4 19 -3 7 6 -12 8 -11 10
7 8 12 0 19 -5 16 -10 -3 -5 4 -3 15 4 12 7 19 16 17 20 -3 3 7 4 22 1 20 -4
24 -2 18 9 -8 12 -6 12 8 0 15 -12 17 -11 18 5 0 11 3 14 6 7 6 -16 35 -17 51
-1 9 9 12 9 12 0 0 -7 5 -12 11 -12 5 0 7 5 3 12 -5 8 -2 9 9 5 11 -4 17 -1
17 9 0 8 5 12 10 9 6 -4 8 -10 5 -15 -3 -5 0 -12 6 -16 8 -4 9 -3 5 4 -4 7 -1
12 8 12 9 0 16 5 16 11 0 6 7 3 16 -5 18 -19 31 -21 16 -3 -8 9 -4 12 14 13
13 1 24 -2 24 -7 0 -5 5 -9 11 -9 5 0 8 4 5 9 -3 5 1 11 9 14 8 4 12 1 9 -6
-5 -14 34 -16 54 -3 7 4 12 2 12 -4 0 -6 5 -8 10 -5 6 4 7 11 4 17 -4 6 -2 8
4 4 5 -3 13 0 16 6 3 7 4 2 1 -12 -3 -14 -2 -19 1 -12 3 6 11 9 16 6 6 -4 8
-2 5 3 -4 6 0 14 9 17 8 3 13 2 10 -2 -3 -5 2 -9 10 -9 9 0 13 6 10 14 -3 8
-1 11 4 8 6 -3 10 -1 10 6 0 7 7 4 15 -7 11 -13 14 -14 13 -4 -2 8 4 15 12 15
8 0 21 7 28 15 12 13 13 12 7 -5 -5 -17 -3 -17 19 4 25 24 25 24 21 2 -2 -12
0 -19 6 -16 5 4 9 13 9 22 0 13 3 13 15 3 13 -11 14 -10 10 2 -7 18 23 21 44
4 11 -8 13 -8 8 0 -4 7 0 15 9 18 9 3 12 11 8 18 -5 9 -3 9 9 -1 13 -10 17
-10 17 -1 0 10 3 10 15 0 13 -11 14 -10 8 6 -6 17 -5 18 12 4 12 -9 16 -10 11
-2 -6 9 -1 11 18 8 15 -3 24 -1 21 5 -4 5 -1 9 5 9 6 0 9 4 6 9 -3 4 12 5 34
1 30 -6 38 -4 31 4 -7 9 -3 12 17 11 15 -1 37 4 49 12 14 8 24 9 28 3 8 -13
25 -13 25 1 0 5 -5 7 -10 4 -5 -3 -10 -1 -10 4 0 14 13 14 28 -1 9 -9 13 -7
18 5 3 10 17 17 31 17 17 0 22 4 17 13 -5 8 -2 8 9 -2 15 -12 17 -11 17 4 0
15 2 16 17 4 14 -12 16 -12 8 0 -6 11 -4 13 9 8 10 -4 15 -3 11 3 -4 6 5 10
20 10 15 0 24 4 20 10 -3 6 -2 10 4 10 5 0 12 -6 15 -12 4 -7 4 -2 2 11 -4 18
-2 21 7 12 16 -16 30 -13 23 5 -5 14 -4 15 9 4 12 -10 15 -9 15 6 0 16 2 17
10 4 7 -11 10 -11 10 -2 0 7 5 10 10 7 6 -3 10 -2 10 4 0 5 -6 12 -12 14 -10
4 -10 6 -1 6 6 1 15 -4 19 -10 4 -8 12 -3 20 12 7 13 13 18 14 12 0 -7 5 -13
11 -13 5 0 7 4 4 10 -6 9 16 15 39 11 5 -1 3 6 -5 15 -10 13 -10 16 -1 10 7
-4 19 -2 27 4 8 7 15 9 15 5 0 -4 12 4 26 19 15 14 32 26 39 26 6 0 22 11 35
25 19 20 26 23 39 12 11 -9 13 -9 8 0 -5 8 1 15 18 19 13 3 23 9 21 13 -3 4 4
13 16 20 15 9 18 10 13 0 -6 -8 -4 -10 4 -5 7 5 10 14 8 20 -3 7 1 13 9 13 7
0 11 -5 8 -11 -3 -6 8 5 24 24 17 19 28 38 26 41 -2 4 2 7 9 6 6 0 21 1 32 2
17 1 18 3 5 11 -13 8 -13 10 2 10 10 0 22 9 28 20 6 11 15 18 20 15 6 -4 7 1
3 11 -4 12 -3 15 5 10 7 -4 12 -2 12 4 0 6 5 8 10 5 6 -3 10 1 10 10 0 11 5
15 15 11 8 -3 14 -2 14 2 -4 22 2 42 11 37 6 -3 10 -1 10 6 0 8 3 9 14 0 11
-9 12 -6 8 14 -3 18 0 25 12 25 14 0 21 11 17 32 0 5 2 7 7 7 20 -3 32 2 29
14 -1 6 6 11 16 11 15 -2 16 1 5 14 -8 10 -9 13 -1 9 13 -8 46 20 38 33 -3 4
3 14 13 21 15 13 16 12 4 -3 -10 -12 -10 -18 -1 -24 7 -4 9 -3 5 4 -3 6 -1 14
5 17 5 4 8 14 5 22 -3 8 -2 12 3 9 5 -3 19 3 31 14 13 11 19 20 14 20 -5 0 -3
4 5 9 18 12 23 41 8 42 -7 0 -3 4 8 9 16 7 16 9 4 9 -17 1 -34 29 -24 39 3 3
5 0 5 -6 0 -7 5 -12 11 -12 5 0 8 4 4 9 -3 5 -1 12 5 16 6 4 8 11 5 16 -4 5
-1 17 4 26 8 14 11 15 11 3 0 -8 8 0 16 17 9 18 20 30 25 27 5 -3 6 2 3 10 -4
9 0 18 9 22 9 3 14 15 12 30 -1 13 2 24 6 24 5 0 9 -5 9 -12 0 -6 3 -8 8 -4 7
7 8 11 11 37 0 5 7 7 14 3 7 -5 7 -2 -2 10 -12 15 -12 17 0 14 8 -2 13 2 12 9
-2 6 5 14 15 17 10 4 19 17 20 33 1 15 7 30 13 34 7 4 9 17 6 29 -5 18 -3 19
11 8 12 -10 14 -10 8 0 -4 6 -3 12 3 12 6 0 8 7 5 15 -4 8 -1 15 5 15 6 0 11
7 11 17 0 9 3 13 7 10 7 -8 35 42 29 52 -6 10 21 31 30 23 5 -4 0 3 -11 16
-16 20 -16 22 -2 16 10 -3 17 -1 17 6 0 6 4 9 9 5 5 -3 13 0 17 6 4 8 3 9 -4
5 -7 -4 -12 -2 -12 3 0 6 5 11 11 11 5 0 7 5 4 10 -3 6 1 10 11 10 14 0 15 2
3 17 -8 9 -9 14 -3 10 7 -4 14 3 18 18 4 14 13 25 22 25 8 0 12 5 9 10 -3 6 2
10 12 10 17 1 17 1 0 14 -16 12 -16 14 -2 20 11 4 14 2 9 -6 -4 -7 -3 -8 4 -4
7 4 12 14 12 22 0 8 4 13 8 10 5 -3 9 1 9 9 0 8 -4 12 -9 9 -4 -3 -5 2 -2 10
3 9 10 16 16 16 5 0 6 5 3 10 -3 6 -1 10 4 10 6 0 10 6 8 13 -1 6 3 11 10 10
7 -2 10 3 7 11 -3 8 -1 17 5 21 6 3 11 12 11 18 0 7 -4 6 -10 -3 -6 -9 -10
-10 -10 -3 0 6 5 15 10 18 5 3 10 15 10 26 0 11 5 17 10 14 6 -3 10 -2 10 4 0
5 -6 12 -12 14 -8 3 -6 6 5 6 15 1 16 4 6 24 -11 20 -11 21 5 8 15 -13 16 -12
6 13 -7 20 -7 25 2 20 8 -5 9 -2 5 10 -6 14 -3 17 9 12 15 -6 15 -4 3 11 -13
15 -12 16 6 9 16 -6 17 -5 8 5 -10 10 -9 15 5 26 9 8 11 12 5 8 -8 -4 -13 0
-13 10 0 11 5 15 14 12 11 -5 13 0 6 23 -8 28 8 59 23 44 3 -3 3 3 0 15 -3 12
1 29 8 38 12 14 12 16 -1 9 -8 -4 -4 2 10 14 19 17 21 20 6 16 -16 -6 -17 -4
-6 9 7 8 9 15 6 15 -4 0 -2 9 4 20 6 11 15 18 20 15 5 -3 11 -1 14 4 4 5 1 13
-5 17 -8 5 -9 3 -4 -6 5 -9 4 -11 -3 -6 -9 5 -9 13 -2 27 6 11 8 25 4 31 -5 7
-3 8 5 4 7 -5 10 -15 7 -23 -3 -8 -1 -11 5 -8 5 4 7 16 3 27 -4 14 -2 18 5 14
7 -5 8 -1 4 10 -4 12 -3 15 5 10 18 -11 15 0 -5 20 -17 17 -17 18 0 11 17 -6
20 5 21 64 0 10 5 15 13 12 9 -4 11 0 6 13 -4 11 -3 15 4 11 7 -5 10 2 8 18
-1 14 2 28 7 31 4 3 5 10 2 16 -5 7 -1 9 9 5 11 -4 14 -2 10 8 -3 8 -10 12
-17 9 -6 -3 -3 1 6 9 14 11 15 16 5 26 -7 7 -7 12 -2 11 22 -5 27 1 14 18 -7
9 -9 14 -5 10 12 -10 38 11 30 24 -4 6 0 15 7 20 11 7 9 8 -5 4 -15 -5 -17 -4
-8 7 7 8 9 17 5 20 -3 4 2 7 12 7 18 0 18 1 -1 16 -10 8 -14 13 -9 11 6 -3 19
2 30 10 20 15 20 15 -2 8 -18 -5 -22 -3 -17 9 3 9 11 13 18 9 6 -4 5 1 -3 11
-11 13 -11 16 -2 14 8 -2 15 5 16 14 2 10 -1 18 -6 18 -6 0 -7 5 -4 10 5 8 12
7 23 -2 14 -12 14 -10 3 10 -9 16 -9 27 -2 36 7 9 7 16 -2 26 -10 10 -9 11 2
5 11 -6 13 -3 8 14 -4 17 -2 20 7 12 9 -8 13 -7 13 4 0 8 -5 15 -11 15 -5 0
-1 7 10 15 19 15 19 15 -1 9 -17 -5 -16 -3 5 16 14 12 19 19 13 15 -17 -8 -17
7 0 24 8 10 8 12 0 7 -6 -3 -15 -1 -19 5 -4 8 -3 9 4 5 7 -4 12 -2 12 4 0 6 4
9 9 5 5 -3 13 0 17 6 4 7 3 9 -4 5 -6 -3 -13 -2 -17 4 -3 5 0 10 7 10 9 0 9 3
-2 10 -13 8 -12 10 4 10 20 0 20 0 0 15 -18 15 -18 15 0 8 13 -4 17 -3 12 5
-4 7 0 15 9 18 9 4 12 10 7 13 -5 3 -13 17 -17 31 -7 24 -7 24 8 5 17 -22 19
-2 3 24 -7 10 -6 12 4 6 10 -6 12 -3 8 13 -3 12 -3 21 1 20 20 -2 22 4 5 17
-19 14 -19 14 1 11 18 -4 20 1 20 49 0 29 3 51 8 48 15 -9 28 8 17 22 -8 10
-8 15 1 21 8 5 9 3 4 -6 -6 -9 -4 -11 5 -5 10 6 10 11 -4 20 -15 11 -14 13 6
19 19 5 20 8 8 16 -13 9 -8 14 11 12 4 -1 5 7 2 18 -3 11 -10 17 -17 13 -6 -3
-7 -2 -3 3 5 5 12 9 15 9 19 1 30 18 26 41 -4 20 -1 25 10 21 10 -4 13 -1 9 9
-3 7 1 14 8 14 7 0 9 3 6 6 -4 4 -13 1 -22 -6 -13 -11 -14 -10 -9 4 3 9 10 16
16 16 5 0 6 5 2 12 -5 8 -2 9 10 5 14 -6 15 -3 6 13 -10 18 -7 24 11 22 4 -1
6 7 6 16 0 36 3 43 16 36 9 -6 9 -4 0 7 -7 7 -13 18 -13 24 0 5 5 3 10 -5 8
-13 10 -12 10 3 0 12 4 16 13 11 7 -5 6 0 -3 11 -14 17 -13 18 3 12 10 -4 16
-3 12 2 -3 5 1 12 7 15 7 3 2 3 -12 0 l-25 -7 25 21 c22 19 23 23 10 33 -13 9
-12 10 4 5 13 -5 17 -2 12 9 -3 9 0 15 10 15 9 0 12 -5 8 -12 -4 -7 -3 -8 5
-4 9 6 9 11 0 22 -8 10 -8 14 0 14 6 0 11 5 11 11 0 5 -6 7 -12 4 -7 -4 -5 0
4 8 10 8 14 18 10 22 -4 5 -1 5 6 1 7 -4 12 -1 12 9 0 9 5 13 10 10 6 -3 10 1
10 10 0 10 -5 13 -12 9 -7 -4 -8 -3 -4 5 4 6 11 9 16 6 10 -6 24 14 25 35 0 8
8 14 18 14 15 -2 16 1 5 14 -11 13 -10 15 5 9 15 -6 17 -3 11 15 -5 17 -3 20
10 15 14 -5 15 -3 6 13 -8 16 -7 18 8 15 14 -2 18 3 16 26 -1 16 2 26 7 23 5
-3 6 -11 2 -17 -5 -8 -2 -8 9 0 8 7 19 9 23 5 5 -4 5 -1 1 6 -4 7 -12 10 -17
7 -19 -12 -8 8 17 31 14 13 22 29 19 34 -3 6 -1 10 5 10 6 0 8 5 4 12 -5 8 -2
9 9 5 18 -7 19 12 2 26 -6 5 -1 7 11 4 17 -4 20 -1 17 14 -3 11 0 19 6 19 7 0
9 -5 5 -12 -4 -7 -3 -8 5 -4 9 6 9 11 -1 24 -7 9 -8 13 -2 9 7 -4 14 2 17 13
4 14 11 18 24 14 13 -4 14 -3 5 3 -7 6 -10 17 -6 27 5 14 9 15 15 4 7 -10 9
-9 9 5 0 12 4 16 13 11 7 -5 6 0 -3 11 -14 17 -13 18 2 12 13 -4 15 -2 11 10
-5 12 -3 14 8 8 12 -8 12 -6 0 8 -12 15 -12 17 4 11 13 -5 16 -4 11 4 -4 8 0
12 10 12 16 0 16 1 -2 15 -19 15 -19 15 0 8 15 -5 18 -3 13 10 -6 15 -4 16 14
6 13 -6 19 -7 15 -1 -3 6 -3 12 1 15 5 2 3 3 -4 1 -6 -1 -10 3 -9 9 2 17 36
64 36 50 0 -6 -7 -19 -16 -27 -8 -9 -11 -16 -5 -16 15 0 34 39 27 56 -3 9 -2
12 5 9 6 -4 9 1 7 11 -2 11 2 18 10 17 10 -3 17 16 13 39 0 4 6 5 14 2 18 -7
20 7 4 23 -9 9 -7 11 7 9 28 -5 41 10 39 44 -1 16 2 30 7 30 5 0 6 5 2 12 -5
7 -3 8 6 3 10 -6 12 -4 6 10 -6 16 -4 16 10 4 16 -13 16 -12 6 8 -12 22 -1 40
17 29 5 -3 7 8 6 24 -1 17 2 27 7 24 5 -3 8 2 6 12 -2 11 3 19 11 19 8 0 16 6
19 14 3 9 0 11 -9 7 -8 -4 -6 -1 3 7 10 8 15 17 11 20 -3 4 -1 7 6 7 7 0 9 5
6 10 -4 6 -11 7 -17 4 -7 -4 -8 -2 -4 4 5 9 13 9 28 1 16 -9 19 -8 12 3 -14
22 -13 37 3 31 13 -5 14 -3 3 18 -12 23 -12 23 5 9 17 -14 17 -13 10 9 -5 16
-4 21 4 16 8 -4 10 2 7 20 -4 23 -3 25 11 13 14 -11 15 -10 9 10 -5 13 -3 22
3 22 6 0 11 5 11 11 0 5 -6 7 -12 4 -7 -4 -4 1 7 10 11 9 19 19 18 23 0 4 3 6
9 4 5 -1 6 3 2 10 -15 23 -13 37 4 31 11 -5 14 -2 9 10 -4 11 -1 17 8 17 10 0
12 6 8 18 -6 15 -5 16 12 2 17 -14 17 -14 4 7 -11 19 -11 24 0 35 11 11 12 10
6 -1 -5 -10 -4 -12 4 -7 6 4 9 11 6 16 -3 5 -1 12 5 15 8 5 7 12 -2 23 -10 12
-10 14 0 8 7 -4 12 -1 12 9 0 10 5 13 13 9 9 -6 9 -5 0 7 -16 19 2 40 26 32
11 -4 10 -1 -4 10 -15 13 -16 16 -5 17 21 0 43 37 28 46 -7 5 -5 11 7 21 14
10 15 13 4 14 -8 0 -4 4 9 9 17 7 21 15 18 35 -3 14 -2 24 2 21 10 -6 28 17
26 34 0 8 11 25 25 38 16 14 19 20 9 16 -24 -8 -22 1 5 27 12 12 15 19 7 15
-12 -6 -12 -5 1 6 9 7 14 19 11 27 -3 10 0 11 9 5 11 -6 10 -3 -1 11 -9 11
-10 16 -2 11 7 -4 12 -2 12 4 0 6 5 8 12 4 6 -4 8 -3 4 4 -3 6 -2 13 4 17 6 4
7 12 3 18 -14 22 -11 36 5 30 11 -5 13 -3 7 7 -6 10 -4 12 11 7 18 -7 18 -7 0
8 -11 8 -14 15 -7 15 7 0 9 5 5 13 -6 9 -5 9 8 -1 13 -10 15 -9 10 14 -4 21
-2 25 9 19 11 -7 11 -5 -1 10 -8 10 -10 16 -4 12 16 -10 25 18 11 32 -9 9 -8
11 4 6 10 -4 20 -1 25 6 4 8 3 10 -4 5 -7 -4 -12 -3 -12 2 0 6 7 13 15 16 13
5 14 10 5 27 -11 19 -10 20 12 8 19 -10 21 -10 12 2 -15 19 -14 51 1 45 8 -3
11 5 9 22 -1 15 2 32 8 39 6 7 8 19 4 28 -3 8 0 14 7 12 7 -1 11 6 11 15 -1
10 4 18 11 18 9 0 11 8 7 22 -3 14 -1 19 6 14 7 -4 9 2 6 20 -3 19 -1 24 8 18
10 -5 10 -4 1 6 -10 10 -8 19 8 41 14 20 16 29 7 32 -8 4 -7 6 4 6 9 1 20 6
24 13 5 8 2 9 -10 5 -14 -6 -15 -4 -4 16 7 12 12 26 13 30 0 4 7 12 15 17 8 6
10 10 3 10 -11 0 -12 17 -2 35 4 6 5 18 4 28 -2 9 1 15 6 11 5 -3 7 -10 4 -15
-4 -5 -1 -9 4 -9 14 0 14 6 1 31 -9 15 -7 19 7 19 17 1 17 1 1 14 -17 12 -16
14 5 24 14 7 17 11 7 12 -11 0 -8 7 10 21 14 12 18 19 9 16 -9 -3 -16 1 -16 9
0 8 3 12 5 9 3 -3 14 2 24 12 17 16 17 17 1 36 -10 11 -12 17 -5 13 6 -4 12
-2 12 4 0 6 5 8 13 4 9 -6 9 -5 0 7 -10 13 -10 19 1 35 11 15 12 22 3 33 -10
12 -9 14 4 9 12 -5 15 -1 13 17 -1 13 -5 29 -9 35 -3 6 -1 9 7 8 8 -2 13 6 12
19 -1 13 4 19 11 17 6 -3 12 2 12 10 0 8 -5 12 -11 9 -6 -4 -5 0 1 9 7 8 10
18 6 21 -3 4 2 7 12 7 18 0 18 1 -1 16 -10 8 -13 13 -6 9 11 -5 17 6 13 28 0
4 7 7 16 7 15 0 15 1 -2 13 -14 11 -15 16 -5 22 9 5 11 4 6 -3 -5 -8 -1 -10 9
-5 13 4 14 8 4 14 -7 4 -14 15 -15 23 -1 9 2 14 7 10 15 -9 10 8 -8 29 -10 11
-13 17 -7 14 7 -4 18 1 25 10 8 9 9 14 3 10 -7 -4 -14 0 -17 7 -4 10 0 14 11
11 13 -2 18 4 20 22 1 14 6 31 12 38 5 6 8 21 5 34 -2 12 0 19 6 16 5 -4 9 -1
9 5 0 6 5 8 12 4 7 -4 8 -3 4 5 -4 6 -11 9 -15 7 -4 -3 -8 1 -8 8 0 8 6 12 14
9 11 -4 11 0 3 21 -8 21 -7 28 5 32 8 4 15 17 15 31 0 16 -4 22 -12 17 -7 -4
-8 -3 -4 5 6 9 11 9 24 -1 9 -7 13 -8 9 -2 -12 21 -15 64 -5 70 7 4 8 2 4 -4
-4 -7 -3 -12 2 -12 15 0 23 28 10 36 -7 4 -8 3 -4 -4 5 -8 1 -10 -10 -5 -15 6
-15 7 0 15 14 8 15 12 5 24 -17 21 11 15 29 -6 7 -9 6 -1 -3 19 -9 18 -12 30
-7 27 6 -4 13 -2 17 4 6 9 -8 14 -28 11 -5 -1 -6 3 -2 8 3 6 12 8 19 5 8 -3
17 0 22 7 4 8 3 10 -4 5 -7 -4 -12 -2 -12 3 0 6 8 11 18 12 10 0 12 3 5 6 -7
2 -13 9 -13 15 0 6 7 7 16 4 14 -5 15 -4 4 9 -7 8 -17 12 -23 8 -6 -3 -7 -1
-3 5 4 6 14 8 22 5 14 -5 15 -3 4 17 -8 15 -9 20 -1 15 8 -4 10 2 7 19 -3 14
0 29 6 32 7 5 8 2 3 -6 -5 -8 -4 -11 3 -6 6 4 9 13 6 21 -3 8 -2 20 2 27 16
24 14 45 -2 24 -8 -11 -14 -15 -14 -8 0 7 9 17 20 24 11 7 20 16 20 21 0 4 -4
5 -10 2 -5 -3 -10 1 -10 10 0 10 5 13 13 9 8 -5 8 -3 -2 9 -11 14 -11 18 3 23
15 6 15 8 1 18 -11 8 -12 15 -4 26 9 12 10 12 5 -4 -6 -16 -4 -17 9 -6 15 12
15 14 0 22 -18 10 -10 32 8 22 7 -3 3 2 -7 10 -11 9 -17 17 -13 17 4 1 11 2
16 3 5 0 13 5 18 10 5 5 3 6 -4 2 -20 -11 -20 58 0 84 10 12 9 13 -3 3 -13 -9
-15 -7 -15 18 0 16 7 34 15 39 12 8 12 10 1 10 -11 0 -11 3 0 17 12 15 12 16
-1 8 -12 -6 -13 -5 -2 6 15 16 16 33 0 23 -7 -5 -8 -3 -4 5 5 7 14 10 22 7 11
-4 10 0 -2 20 -10 14 -13 24 -8 23 23 -4 26 2 8 17 -10 8 -14 13 -8 10 7 -3
17 1 24 9 11 13 10 14 -3 9 -14 -5 -14 -2 -4 19 6 14 16 23 21 20 5 -4 6 -1 2
6 -4 6 -11 9 -16 6 -5 -3 -11 -1 -15 5 -3 5 1 10 9 10 8 0 18 5 22 12 4 7 3 8
-4 4 -16 -10 -15 7 1 23 10 11 7 12 -13 7 -21 -6 -22 -5 -7 4 10 6 14 16 10
23 -4 7 1 6 10 -2 16 -13 17 -12 7 13 -13 34 -13 39 0 31 15 -9 12 2 -6 19
-14 15 -13 16 8 17 13 0 17 3 11 6 -7 2 -13 11 -13 19 0 9 5 12 10 9 6 -3 10
-1 10 4 0 6 -4 11 -10 11 -5 0 -10 5 -10 11 0 5 5 7 10 4 16 -10 7 18 -10 32
-13 11 -13 12 3 7 15 -6 16 -3 7 20 -5 15 -6 25 -1 22 10 -6 22 30 13 38 -9
10 -8 55 2 49 5 -3 6 0 4 8 -3 8 -11 13 -17 12 -15 -4 -14 14 2 20 9 3 9 8 -3
23 -14 18 -14 18 6 1 17 -14 21 -15 21 -2 0 8 -5 15 -11 15 -6 0 -5 5 2 12 7
7 12 17 12 23 0 5 -4 4 -9 -3 -7 -11 -9 -10 -14 3 -5 11 -3 14 5 9 8 -5 9 -2
4 11 -5 15 -4 16 9 5 13 -11 14 -10 9 4 -3 9 -10 16 -15 16 -5 0 -9 5 -9 11 0
6 7 9 14 6 10 -4 13 -1 9 8 -3 8 -8 13 -12 10 -4 -2 -8 2 -8 10 0 8 4 12 9 9
4 -3 8 2 8 11 0 9 -4 14 -8 11 -5 -3 -9 1 -9 9 0 8 4 12 8 10 19 -12 16 26 -4
41 -15 11 -16 15 -5 11 10 -4 20 -1 24 5 4 6 3 8 -3 5 -6 -4 -16 0 -22 7 -10
12 -8 14 11 10 13 -2 17 -2 10 2 -6 3 -9 11 -5 17 4 7 0 8 -13 4 -18 -7 -18
-7 0 8 15 11 16 15 5 16 -8 0 -6 4 6 9 17 7 17 9 3 9 -21 1 -23 12 -5 30 10
11 10 13 0 7 -7 -4 -13 -3 -13 2 0 6 7 12 15 16 8 3 15 11 14 18 0 10 -2 10
-6 1 -6 -17 -20 -16 -27 2 -3 8 0 14 6 12 6 -1 13 4 16 12 3 10 0 12 -12 8 -9
-4 -16 -2 -16 3 0 6 5 10 12 10 6 0 8 3 5 7 -4 3 1 12 11 20 16 12 16 13 0 7
-21 -7 -24 6 -6 24 9 9 9 15 -1 25 -10 10 -11 8 -5 -8 4 -11 4 -17 0 -14 -13
12 -15 48 -3 45 7 -1 9 -1 5 1 -5 3 -8 12 -8 21 0 15 -2 15 -11 2 -9 -12 -10
-12 -5 3 3 10 6 21 6 23 0 3 4 3 9 -1 5 -3 13 0 17 6 5 8 3 9 -6 4 -10 -6 -12
-4 -7 8 4 11 2 14 -7 11 -14 -5 -16 32 -3 54 8 11 2 16 -16 13 -5 -1 -6 3 -3
8 4 5 16 8 28 6 11 -3 17 -1 14 3 -4 4 -13 7 -19 7 -8 0 -11 14 -9 38 2 21 -1
36 -6 33 -5 -3 -9 1 -9 9 0 8 4 12 9 9 14 -9 9 9 -9 28 -14 15 -14 18 -2 13
10 -4 16 0 16 9 0 8 -4 13 -8 10 -4 -2 -10 0 -14 6 -3 5 1 10 9 10 19 0 20 5
6 30 -7 13 -7 21 1 25 7 5 4 14 -7 26 -10 11 -12 19 -6 19 7 0 12 5 12 11 0 5
-4 8 -9 5 -5 -3 -11 1 -15 9 -3 8 0 17 6 21 7 5 8 2 3 -7 -5 -8 -4 -10 0 -6
12 10 15 38 4 31 -5 -3 -10 0 -10 5 -4 35 -2 46 10 43 7 -1 10 2 6 7 -3 6 -13
7 -23 4 -14 -6 -15 -4 -5 8 7 9 10 28 7 43 -3 21 -1 26 8 20 10 -6 9 -3 -1 9
-7 9 -10 17 -5 17 5 0 0 8 -11 17 -16 13 -17 15 -2 10 9 -4 17 -2 17 3 0 6 -6
10 -12 10 -9 0 -8 4 2 10 13 8 13 10 0 10 -11 0 -11 3 -2 12 15 15 15 28 1 28
-5 0 -7 -6 -3 -12 5 -9 2 -9 -9 1 -18 14 -22 22 -9 20 19 -3 25 2 12 11 -13 8
-12 10 4 10 18 0 18 1 -1 18 -10 9 -14 14 -8 10 6 -4 10 3 10 17 0 16 -4 21
-15 17 -11 -4 -9 1 4 17 16 17 16 20 4 16 -9 -4 -19 -1 -24 6 -4 7 -3 10 2 6
6 -3 16 -2 24 4 11 6 12 9 2 9 -7 0 -10 5 -7 10 3 5 1 10 -4 10 -6 0 -11 5
-11 11 0 5 4 8 8 5 5 -3 9 2 9 10 0 8 -6 13 -14 10 -7 -3 -13 -1 -13 4 0 6 8
10 18 10 15 1 15 2 -2 11 -15 9 -16 13 -5 20 11 7 9 9 -6 9 -14 0 -16 3 -7 8
10 7 11 48 1 60 -6 8 -4 49 4 60 6 8 5 12 -3 12 -9 0 -9 4 1 17 11 13 11 15 1
9 -9 -5 -13 -3 -11 5 4 36 -2 70 -12 64 -6 -4 -5 2 3 14 11 18 10 22 -6 34
-15 11 -16 16 -6 22 9 6 11 4 5 -5 -5 -9 -4 -11 3 -6 9 5 8 17 -3 43 -18 41
-18 46 -6 38 5 -3 13 0 17 6 4 7 3 9 -3 6 -6 -4 -17 1 -24 10 -8 9 -9 14 -3
10 7 -4 15 0 18 8 3 9 -1 18 -9 22 -12 4 -13 9 -4 19 14 17 -2 18 -21 2 -12
-11 -12 -10 -3 2 17 25 22 61 9 66 -6 2 -12 14 -13 24 -1 11 2 18 7 15 4 -3 7
3 5 12 -2 10 -4 20 -4 23 -1 3 -5 -1 -10 -9 -6 -9 -8 -4 -8 17 1 17 6 28 12
24 5 -3 3 3 -6 14 -17 21 -18 32 -5 53 7 11 5 13 -8 8 -14 -6 -15 -3 -6 13 8
15 8 20 -2 20 -10 0 -10 2 -1 8 10 7 10 12 -1 27 -10 14 -11 25 -5 38 7 12 6
19 -5 23 -9 3 -12 12 -9 21 5 12 3 14 -6 8 -10 -6 -11 -3 -2 14 9 16 9 21 -1
21 -9 0 -9 3 2 11 12 8 10 10 -10 5 l-25 -5 25 20 c14 10 18 17 9 13 -10 -3
-20 0 -25 7 -4 8 -3 10 4 5 7 -4 12 -2 12 3 0 6 -5 11 -11 11 -8 0 -7 6 2 17
10 11 10 14 2 9 -9 -5 -13 1 -13 18 0 14 -6 26 -12 26 -9 0 -8 4 2 10 12 8 12
10 1 10 -9 0 -11 7 -8 21 3 12 0 22 -9 26 -10 4 -11 10 -4 23 7 13 6 21 -2 26
-7 5 -8 3 -3 -6 5 -8 4 -11 -2 -7 -6 4 -13 16 -16 27 -4 17 -3 19 9 9 23 -19
16 -2 -8 22 -13 12 -17 19 -11 15 10 -5 11 -1 4 16 -4 13 -6 29 -4 36 3 6 0
12 -7 12 -6 0 -8 -4 -5 -10 3 -5 2 -10 -4 -10 -5 0 -9 9 -8 19 0 11 5 17 9 15
4 -3 5 2 2 10 -3 9 -10 13 -15 10 -5 -3 -9 0 -9 5 0 6 6 11 13 11 6 1 1 8 -13
16 -14 8 -17 13 -7 10 14 -5 16 -2 8 13 -6 10 -7 22 -3 26 4 5 2 5 -4 2 -7 -4
-14 2 -17 13 -3 11 -1 18 3 15 5 -3 12 0 16 6 4 8 3 9 -4 5 -7 -4 -12 0 -12
10 0 9 -8 23 -17 31 -10 8 -12 12 -6 8 9 -4 11 -1 7 9 -3 9 -11 13 -18 9 -6
-3 -6 -1 2 8 16 17 16 37 0 21 -7 -7 -17 -12 -23 -12 -6 0 -7 3 0 8 6 4 16 18
24 32 10 20 11 22 0 13 -20 -19 -31 -16 -24 7 4 11 2 20 -4 20 -6 0 -11 5 -11
11 0 5 5 7 10 4 6 -3 10 -4 10 0 0 3 -10 10 -22 15 -19 7 -19 9 -5 9 10 1 15
6 12 11 -4 6 -10 8 -15 5 -5 -3 -12 0 -16 6 -4 8 -3 9 4 5 8 -5 12 1 12 18 0
14 -5 28 -12 32 -7 5 -8 3 -3 -6 5 -8 4 -11 -2 -7 -6 4 -9 18 -8 32 2 14 -1
23 -6 19 -5 -3 -9 2 -9 11 0 10 -5 13 -12 9 -9 -5 -9 -2 1 9 7 9 9 17 4 17 -5
0 -13 15 -19 33 -5 17 -14 31 -20 30 -6 -1 -11 4 -11 12 0 8 4 12 8 9 4 -2 11
1 15 7 4 8 3 9 -5 5 -6 -4 -14 0 -17 8 -3 9 -11 13 -17 9 -5 -3 -7 -1 -4 5 9
13 -2 44 -13 37 -5 -3 -7 6 -4 21 3 16 1 23 -6 19 -6 -4 -7 1 -3 11 4 12 3 15
-6 10 -7 -5 -10 -2 -9 6 2 7 -3 12 -11 10 -12 -3 -12 -1 -1 14 12 14 12 18 -4
30 -11 7 -23 11 -27 8 -5 -3 -6 2 -2 11 5 13 7 14 14 3 7 -10 9 -9 9 5 0 15
-11 22 -32 18 -12 -2 -9 14 5 28 10 11 9 12 -2 6 -11 -6 -13 -4 -7 10 5 15 4
16 -9 5 -9 -7 -15 -9 -14 -4 2 5 0 19 -5 31 -5 15 -12 20 -24 16 -12 -4 -11
-1 5 13 l22 20 -22 14 c-20 12 -21 12 -8 -3 9 -11 10 -17 2 -17 -10 0 -15 13
-12 33 0 4 -4 7 -10 7 -8 0 -8 4 0 14 9 11 8 15 -4 20 -11 4 -14 2 -9 -6 4 -7
3 -8 -5 -4 -9 6 -9 11 0 22 14 17 -2 19 -20 2 -11 -11 -11 -9 0 9 7 12 17 19
21 17 15 -9 8 3 -9 17 -11 10 -14 10 -9 2 4 -7 2 -13 -3 -13 -6 0 -11 9 -11
21 0 12 -4 17 -11 13 -8 -5 -8 -1 0 13 12 23 3 37 -14 23 -14 -11 -14 17 0 39
5 9 4 12 -3 7 -6 -3 -17 0 -25 8 -8 8 -18 12 -22 8 -5 -4 -5 -1 -1 6 4 7 2 20
-6 29 -9 12 -9 15 -1 9 9 -5 11 -2 7 8 -3 9 -9 15 -12 14 -22 -2 -30 4 -27 23
3 14 0 19 -9 16 -15 -6 -16 9 -2 33 7 12 6 13 -5 3 -18 -17 -30 -16 -23 2 4 9
-1 18 -11 21 -13 5 -14 9 -3 15 9 6 7 9 -9 9 -13 0 -23 5 -23 11 0 5 4 7 10 4
6 -3 7 1 3 10 -3 9 -9 13 -12 8 -3 -4 -12 -9 -19 -11 -10 -2 -10 2 -1 19 6 13
7 19 1 15 -16 -10 -26 15 -11 26 11 8 10 8 -4 4 -10 -3 -21 -6 -23 -6 -3 0 -2
-5 2 -12 4 -7 3 -8 -5 -4 -9 6 -9 11 1 24 11 14 10 15 -6 9 -16 -6 -17 -5 -7
7 9 11 9 16 0 22 -8 5 -9 3 -4 -6 6 -9 4 -11 -4 -6 -7 5 -10 14 -7 22 3 8 0
11 -8 8 -8 -3 -17 0 -22 7 -4 8 -3 10 5 5 8 -6 8 -1 0 18 -10 22 -15 24 -27
13 -13 -11 -14 -9 -2 13 13 24 12 24 -5 10 -17 -14 -17 -13 -10 10 7 22 6 23
-9 11 -14 -12 -16 -12 -10 4 6 14 4 16 -7 10 -12 -8 -12 -6 0 9 13 15 12 18
-7 23 -12 3 -19 9 -16 14 3 5 1 9 -4 9 -5 0 -15 14 -22 30 -10 23 -16 28 -25
20 -11 -9 -12 -7 -8 9 3 12 1 21 -6 21 -6 0 -11 5 -11 11 0 5 6 7 13 3 8 -5 8
-3 -2 9 -7 9 -17 14 -22 11 -5 -3 -9 2 -9 10 0 9 -5 16 -11 16 -6 0 -9 8 -7
18 3 11 0 19 -8 19 -8 0 -14 -5 -14 -11 0 -5 -6 -1 -14 9 -8 11 -12 25 -9 32
3 7 -2 13 -10 13 -8 0 -18 7 -21 16 -6 15 -4 15 11 3 16 -13 17 -12 4 4 -8 10
-20 16 -27 13 -8 -3 -13 -2 -13 2 1 4 1 15 0 26 -1 16 -3 17 -18 5 -9 -8 -14
-9 -11 -4 9 14 -2 28 -32 43 l-25 12 25 -6 c22 -6 23 -5 8 10 -9 9 -24 16 -33
16 -12 0 -15 5 -11 16 6 15 4 15 -10 3 -16 -13 -16 -12 -5 10 8 15 9 21 2 17
-6 -4 -11 -2 -11 3 0 6 -5 11 -11 11 -5 0 -7 -6 -3 -12 5 -9 3 -9 -9 1 -9 7
-15 17 -12 21 2 4 -7 12 -21 19 -23 10 -24 14 -13 28 10 12 10 15 1 9 -7 -4
-12 -2 -12 4 0 6 -4 9 -9 6 -4 -3 -7 5 -6 19 2 16 -1 22 -10 19 -7 -3 -15 2
-18 10 -4 9 -13 16 -20 16 -24 0 -38 24 -24 40 6 7 7 10 1 7 -6 -4 -16 5 -22
18 -7 14 -17 25 -23 25 -8 0 -7 6 2 17 12 15 11 14 -13 -1 -27 -17 -27 -17
-23 3 3 14 0 18 -11 14 -10 -4 -17 2 -21 17 -4 16 -8 18 -14 8 -6 -9 -9 -6 -9
11 0 16 -4 21 -15 18 -8 -4 -17 -2 -20 4 -4 5 -10 7 -15 4 -10 -6 -7 21 3 31
4 4 7 12 7 18 0 6 -5 4 -10 -4 -7 -11 -10 -11 -10 -2 0 8 -5 10 -12 6 -7 -5
-9 -2 -5 8 3 10 0 15 -11 14 -9 0 -22 10 -29 24 -7 14 -18 24 -23 22 -6 -1
-15 9 -20 24 -6 14 -15 22 -21 18 -7 -4 -6 2 2 17 11 22 11 23 -4 10 -12 -9
-17 -10 -17 -2 0 7 -5 9 -11 5 -8 -5 -8 -1 0 14 9 17 8 19 -9 15 -12 -3 -20 0
-20 6 0 7 4 9 10 6 6 -3 7 1 4 10 -5 11 -10 13 -19 5 -15 -13 -24 -3 -20 23 3
14 0 15 -9 8 -15 -13 -26 -4 -26 19 0 9 -10 22 -22 28 -13 6 -17 11 -10 11 8
1 2 11 -12 24 -14 13 -22 28 -18 33 4 4 -2 2 -12 -6 -13 -10 -17 -10 -12 -2 7
11 -11 17 -37 13 -5 -1 -6 3 -2 9 3 6 11 7 17 4 7 -4 8 -2 4 4 -4 6 -12 9 -19
6 -7 -2 -28 12 -47 33 -22 24 -26 30 -10 18 l25 -19 -23 24 c-19 21 -24 23
-33 10 -9 -13 -10 -12 -5 3 3 9 1 17 -4 17 -5 0 -7 8 -4 18 3 9 -2 6 -11 -8
-10 -15 -14 -18 -11 -7 3 10 -1 25 -9 33 -12 12 -15 12 -15 2 0 -7 -9 0 -19
16 -11 17 -18 33 -15 37 2 4 -5 5 -16 2 -11 -3 -20 0 -20 6 0 6 -7 11 -16 11
-9 0 -12 5 -8 12 5 8 2 9 -9 5 -9 -3 -19 -2 -22 4 -4 5 -11 6 -17 3 -7 -4 -8
-2 -4 5 6 9 11 9 21 1 10 -8 15 -8 21 2 4 7 4 10 -1 6 -5 -5 -23 3 -41 17 -18
14 -40 25 -50 25 -10 0 -14 3 -11 7 8 8 -32 53 -46 53 -5 0 -16 8 -24 18 -9
10 -11 11 -7 2 6 -11 2 -10 -13 3 -11 9 -23 14 -27 10 -4 -5 -7 -3 -5 2 4 17
-13 45 -27 45 -8 0 -14 5 -14 11 0 5 -5 7 -10 4 -6 -4 -10 -3 -9 2 3 20 -2 34
-11 28 -5 -3 -10 -2 -10 3 0 10 -37 25 -53 23 -5 -1 -6 3 -2 9 5 8 12 7 23 -2
15 -12 16 -11 3 4 -7 10 -17 16 -21 13 -4 -3 -11 2 -14 11 -4 9 -13 14 -21 10
-13 -4 -13 -2 -5 14 8 16 8 18 -5 14 -15 -6 -45 17 -45 35 0 6 -8 7 -17 4 -13
-5 -15 -2 -10 11 4 9 3 15 -2 11 -5 -3 -13 0 -16 6 -4 5 -14 8 -22 4 -14 -5
-14 -3 -2 12 9 11 10 14 2 9 -8 -4 -13 -2 -13 4 0 6 -4 8 -10 5 -5 -3 -10 0
-10 7 0 9 -3 9 -10 -2 -8 -13 -10 -13 -10 2 0 9 6 19 13 21 9 4 9 6 0 6 -6 1
-15 -4 -18 -9 -8 -13 -35 6 -35 23 0 6 7 2 16 -9 14 -18 15 -18 4 4 -10 20
-14 21 -28 10 -12 -10 -14 -10 -8 0 4 7 2 12 -6 12 -11 0 -10 2 0 9 11 7 10 9
-3 14 -9 4 -13 3 -10 -3 3 -6 -1 -10 -9 -10 -10 0 -13 6 -9 18 3 9 2 14 -2 9
-5 -4 -17 5 -27 20 -10 16 -18 23 -18 18 0 -6 5 -16 12 -23 23 -23 1 -12 -26
13 -14 13 -26 30 -26 37 0 9 -3 9 -10 -2 -6 -10 -10 -11 -10 -2 0 6 -7 12 -16
12 -9 0 -12 5 -8 12 5 8 0 9 -15 5 -18 -4 -20 -3 -10 9 11 14 2 19 -24 15 -5
-1 -6 9 -3 21 3 13 3 17 0 11 -3 -7 -12 -13 -20 -13 -9 0 -12 5 -9 10 3 6 1
10 -5 10 -6 0 -8 5 -4 13 5 8 2 8 -9 -2 -14 -11 -17 -11 -18 0 -1 8 -1 18 0
23 1 5 -6 3 -15 -5 -10 -8 -15 -9 -12 -3 6 9 -35 49 -51 49 -3 0 -12 4 -18 8
-7 5 -13 5 -13 2 0 -4 -16 9 -35 29 -34 35 -53 47 -39 25 5 -8 1 -8 -13 0 -11
6 -24 7 -28 3 -5 -4 -5 -1 -1 6 4 7 11 10 15 8 4 -3 8 1 8 9 0 11 -4 12 -13 4
-8 -7 -14 -7 -19 1 -3 5 -15 10 -26 10 -13 0 -19 7 -20 23 0 21 -1 21 -9 2 -5
-11 -9 -14 -9 -7 -1 7 -6 10 -13 6 -7 -5 -9 -2 -5 8 4 12 1 14 -14 11 -10 -3
-19 0 -19 6 0 6 -9 11 -20 11 -10 0 -24 9 -30 21 -9 16 -14 18 -26 8 -10 -8
-14 -8 -14 0 0 6 -9 11 -20 11 -11 0 -20 5 -20 10 0 6 -7 10 -15 10 -8 0 -15
5 -15 12 0 6 -7 3 -15 -8 -13 -16 -14 -16 -9 -1 6 16 -11 22 -63 20 -7 -1 -11
2 -9 6 3 4 -4 13 -16 20 -11 7 -18 8 -14 3 3 -5 -1 -9 -9 -9 -8 0 -13 5 -12
11 1 6 -6 10 -17 8 -11 -2 -15 1 -11 7 8 14 -8 14 -22 0 -7 -7 -12 -6 -17 6
-4 10 -2 14 6 9 7 -4 8 -3 4 5 -6 9 -11 9 -21 1 -10 -8 -15 -8 -21 1 -4 8 -3
9 4 5 8 -5 10 -1 5 10 -4 11 -8 13 -11 6 -5 -15 -42 -16 -42 -1 0 6 -9 9 -20
6 -11 -3 -18 -2 -15 3 3 4 -2 11 -11 14 -9 3 -12 2 -8 -5 7 -13 -38 12 -48 26
-5 6 -8 4 -8 -4 0 -11 -4 -10 -16 5 -8 10 -13 12 -9 4 4 -10 2 -9 -8 3 -15 18
-32 24 -22 6 4 -6 -2 -5 -14 3 -12 7 -21 17 -21 23 0 5 -5 3 -10 -5 -8 -12
-10 -12 -10 5 0 17 -2 17 -10 5 -8 -12 -10 -12 -10 -1 0 8 -3 11 -7 8 -3 -4
-12 1 -20 11 -14 16 -14 16 -9 -3 5 -17 3 -16 -14 5 -16 20 -19 21 -13 5 6
-17 4 -18 -9 -8 -8 7 -19 9 -24 5 -4 -4 -3 0 4 9 15 20 4 33 -15 18 -10 -9
-13 -8 -13 2 0 11 -2 11 -10 -1 -8 -12 -10 -12 -10 -1 0 8 -7 11 -20 8 -11 -3
-18 -2 -16 2 3 4 1 13 -5 21 -5 9 -9 10 -9 3 0 -6 -9 -9 -20 -6 -11 3 -17 9
-14 14 3 5 1 9 -5 9 -5 0 -12 -6 -14 -12 -4 -10 -6 -10 -6 0 -1 6 -8 12 -17
12 -8 0 -12 5 -8 11 4 7 -1 7 -16 -1 -18 -10 -21 -9 -15 1 6 9 2 11 -13 7 -19
-5 -20 -4 -10 15 10 20 10 21 -6 8 -23 -19 -60 -23 -45 -5 7 8 6 14 -2 20 -8
4 -9 3 -5 -4 4 -7 3 -12 -3 -12 -5 0 -12 6 -14 13 -4 8 -6 7 -7 -3 0 -10 -6
-6 -16 10 -8 14 -13 17 -10 8 3 -12 1 -15 -10 -11 -7 3 -14 10 -14 15 0 6 -9
8 -21 5 -14 -4 -19 -2 -16 7 3 7 -1 13 -9 13 -7 0 -11 -4 -8 -9 3 -4 1 -8 -3
-8 -5 0 -14 10 -22 22 -13 21 -14 21 -29 2 -14 -18 -14 -18 -9 5 4 18 3 21 -6
12 -13 -13 -31 -15 -23 -2 4 5 -3 7 -14 4 -12 -3 -20 0 -20 6 0 7 -4 9 -10 6
-5 -3 -10 -1 -10 4 0 6 -5 11 -11 11 -5 0 -7 -4 -4 -10 9 -15 0 -12 -23 8 -14
13 -34 18 -61 16 -23 -1 -38 2 -35 7 3 5 -2 9 -11 9 -10 0 -13 5 -9 13 6 9 4
9 -7 1 -17 -12 -84 7 -72 21 5 5 -1 3 -11 -5 -17 -13 -18 -13 -11 -1 6 11 4
13 -8 8 -12 -4 -17 -1 -18 11 0 10 -3 12 -6 5 -2 -7 -9 -13 -14 -13 -6 0 -7 6
-3 13 6 9 4 9 -8 -1 -13 -10 -18 -10 -24 -1 -5 8 -3 9 6 4 8 -5 11 -4 7 2 -3
5 -20 8 -38 5 -21 -3 -30 -1 -25 6 4 7 -3 10 -23 7 -21 -2 -38 4 -57 20 -26
23 -29 23 -47 8 -17 -16 -17 -16 -11 0 7 20 -6 22 -25 5 -11 -10 -13 -10 -7 0
5 7 1 12 -10 12 -9 0 -23 8 -30 18 -11 13 -13 14 -9 1 4 -10 0 -16 -10 -16 -9
0 -14 6 -11 13 3 8 0 16 -6 20 -7 4 -8 3 -4 -4 4 -7 1 -12 -9 -12 -9 0 -13 5
-9 11 4 7 -1 7 -15 -1 -17 -9 -26 -9 -37 0 -7 7 -12 16 -9 20 7 11 -29 7 -37
-5 -5 -6 -8 -3 -8 6 0 9 -9 19 -20 22 -13 3 -18 1 -13 -6 4 -7 -1 -6 -10 2 -9
7 -23 11 -31 8 -11 -4 -13 -1 -9 11 6 15 5 16 -12 2 -11 -9 -16 -10 -11 -2 7
12 -3 16 -39 12 -17 -2 -18 0 -5 16 14 16 13 16 -7 5 -16 -8 -23 -8 -23 -1 0
6 -4 8 -10 5 -5 -3 -10 -2 -10 3 0 6 -7 13 -16 16 -15 6 -15 4 -3 -11 12 -15
11 -15 -8 1 -13 10 -21 22 -18 26 2 3 -10 4 -27 2 -24 -4 -29 -2 -23 9 7 11 4
10 -10 -1 -10 -8 -16 -10 -13 -5 4 6 3 17 -3 25 -5 8 -9 10 -9 4 0 -6 -7 -11
-15 -11 -8 0 -12 4 -10 8 3 4 -2 10 -11 13 -8 3 -12 2 -9 -4 3 -6 -1 -7 -9 -4
-9 3 -13 10 -10 15 3 5 -2 6 -11 3 -11 -5 -14 -2 -9 12 3 11 2 15 -3 8 -9 -12
-43 -15 -43 -3 0 4 -7 10 -16 13 -12 5 -14 3 -8 -7 5 -7 2 -5 -8 5 -12 13 -18
15 -21 6 -4 -8 -6 -7 -6 4 -1 11 -7 15 -23 10 -16 -4 -19 -2 -13 9 6 11 5 12
-5 2 -11 -10 -17 -8 -32 9 -17 20 -27 13 -10 -8 4 -5 -1 -1 -10 9 -10 11 -18
15 -18 9 0 -5 -7 -12 -15 -16 -12 -4 -13 -2 -6 13 7 12 6 18 -2 19 -7 0 -22 3
-35 6 -12 3 -20 1 -17 -4 7 -11 -22 -7 -32 5 -5 4 -1 4 7 0 13 -8 13 -7 1 8
-14 18 -26 23 -16 8 3 -6 -4 -9 -15 -8 -11 1 -20 6 -20 12 0 5 -5 3 -10 -5 -9
-13 -10 -13 -10 0 0 9 -9 16 -19 16 -11 0 -17 -4 -15 -8 3 -4 -2 -5 -10 -2 -9
3 -13 11 -9 17 3 6 1 7 -6 3 -6 -4 -22 -1 -35 7 -17 12 -26 13 -35 4 -8 -8
-11 -7 -11 3 0 13 -2 13 -10 0 -9 -13 -10 -13 -10 0 0 13 -1 13 -10 0 -7 -11
-10 -11 -10 -2 0 18 -42 32 -57 20 -9 -7 -13 -7 -13 2 0 8 -3 10 -6 7 -4 -3
-15 -2 -25 3 -12 7 -20 6 -24 -1 -5 -7 -16 -2 -31 12 -21 20 -28 19 -26 -2 1
-3 -5 -6 -13 -6 -8 0 -12 4 -10 8 3 4 -2 9 -10 12 -9 4 -12 1 -9 -7 3 -8 0
-17 -7 -22 -8 -4 -10 -3 -5 4 4 7 2 12 -4 12 -6 0 -8 5 -5 10 3 6 1 10 -4 10
-6 0 -11 -7 -11 -16 0 -13 -5 -11 -21 7 -11 13 -18 19 -15 13 4 -8 -7 -13 -29
-16 -24 -3 -31 -1 -25 7 10 13 -17 14 -36 3 -5 -4 -29 -7 -51 -6 -23 0 -47 -3
-55 -8 -10 -6 -10 -5 1 9 15 20 1 23 -17 5 -10 -10 -15 -10 -22 2 -9 14 -14 7
-11 -12 0 -5 -3 -8 -9 -8 -5 0 -10 8 -10 17 0 15 -2 14 -15 -3 -10 -12 -13
-13 -10 -3 5 13 -6 15 -76 15 -44 -1 -83 3 -86 8 -4 5 0 6 7 1 9 -6 11 -4 5 5
-6 10 -11 10 -20 -3 -16 -22 -26 -22 -18 1 6 15 4 15 -16 -3 -12 -11 -21 -14
-19 -8 2 6 -1 11 -7 11 -5 0 -9 -5 -7 -12 1 -6 -3 -4 -10 4 -14 16 -61 24 -52
9 3 -5 9 -7 14 -4 5 3 11 1 15 -4 3 -6 -4 -8 -17 -6 -13 3 -25 10 -26 15 -2 6
-10 3 -18 -7 -12 -15 -13 -15 -8 -1 4 12 1 16 -13 14 -10 -2 -25 0 -34 5 -10
5 -24 2 -39 -8 -13 -9 -20 -11 -16 -5 4 7 1 12 -9 12 -10 0 -14 -5 -10 -12 4
-7 0 -5 -7 4 -13 15 -15 15 -25 0 -10 -15 -11 -15 -8 4 2 12 -2 21 -10 21 -7
0 -11 -7 -8 -16 4 -12 1 -12 -10 2 -10 12 -17 14 -22 8 -9 -16 -25 -13 -25 3
0 8 -4 18 -10 21 -5 3 -7 0 -5 -7 4 -9 -2 -14 -15 -15 -12 -1 -18 2 -14 9 4 6
3 8 -4 4 -5 -3 -12 -3 -15 1 -2 5 -2 2 -1 -4 2 -7 -1 -13 -6 -13 -6 0 -10 7
-10 15 0 8 -4 15 -10 15 -5 0 -7 -8 -3 -17 5 -15 3 -14 -10 2 -13 15 -16 16
-17 5 0 -13 -1 -13 -10 0 -12 19 -43 19 -52 0 -5 -12 -7 -12 -7 3 -1 9 -6 17
-12 17 -5 0 -7 -6 -4 -12 4 -7 1 -6 -7 2 -7 8 -19 16 -27 18 -12 3 -12 0 -1
-13 11 -13 10 -15 -3 -9 -8 3 -18 12 -21 21 -5 12 -9 13 -21 3 -12 -10 -15
-10 -15 1 0 11 -2 11 -10 -1 -8 -13 -10 -12 -10 3 0 10 -5 15 -10 12 -6 -4 -8
-11 -5 -16 3 -5 -1 -6 -9 -3 -9 3 -16 10 -16 16 0 5 -5 6 -10 3 -6 -4 -7 -12
-3 -18 4 -7 0 -6 -10 2 -9 7 -17 10 -17 5 0 -5 -8 0 -17 11 -15 20 -16 20 -9
0 4 -11 4 -16 0 -12 -4 4 -14 1 -22 -6 -13 -10 -14 -9 -3 11 7 14 8 22 1 22
-5 0 -10 -4 -10 -10 0 -5 -4 -10 -10 -10 -5 0 -7 8 -4 18 5 16 5 16 -6 -1 -6
-9 -8 -22 -4 -29 4 -7 3 -8 -4 -4 -7 4 -12 15 -12 24 0 13 -2 13 -16 -4 -8
-10 -13 -14 -10 -8 9 17 -20 25 -50 14 -14 -6 -23 -7 -20 -2 2 4 -25 5 -60 2
-38 -3 -69 -1 -76 5 -8 7 -9 5 -4 -9 5 -16 4 -17 -9 -6 -8 7 -12 18 -8 24 5 7
-3 0 -16 -14 -13 -14 -20 -19 -17 -12 7 12 -1 15 -39 14 -11 0 -23 5 -27 12
-5 7 -8 5 -8 -6 0 -14 -4 -16 -24 -8 -18 6 -28 5 -37 -6 -9 -11 -15 -12 -25
-3 -11 9 -14 8 -14 -2 -1 -9 -4 -8 -11 4 -6 9 -14 15 -20 12 -5 -4 -9 0 -10 7
0 7 -4 4 -9 -7 -5 -11 -9 -14 -9 -7 -1 6 -10 12 -22 12 -13 0 -18 -4 -13 -12
4 -7 -3 -4 -16 7 -13 11 -20 14 -16 8 4 -7 2 -13 -3 -13 -6 0 -11 6 -11 13 0
8 -4 7 -10 -3 -9 -13 -10 -13 -10 0 0 10 -3 11 -8 4 -4 -6 -22 -10 -40 -8 -18
1 -30 -2 -27 -7 4 -5 -1 -6 -9 -3 -9 3 -14 10 -11 14 3 5 -6 3 -19 -3 -13 -7
-22 -16 -19 -22 3 -5 -2 -2 -12 7 -17 16 -19 16 -33 0 -13 -16 -13 -16 -8 1 5
15 2 16 -14 7 -17 -9 -19 -8 -13 7 4 12 -1 10 -16 -7 -12 -14 -20 -19 -16 -12
4 7 0 12 -9 12 -9 0 -16 -5 -16 -11 0 -6 -7 -3 -16 5 -17 18 -28 21 -19 6 3
-5 -2 -10 -12 -11 -10 -1 -27 -2 -38 -3 -11 0 -26 6 -33 14 -10 13 -11 12 -5
-5 6 -18 5 -19 -12 -5 -17 14 -18 13 -12 -4 6 -16 5 -17 -8 -6 -10 8 -15 9
-15 1 0 -6 -5 -11 -11 -11 -5 0 -7 5 -4 10 3 6 1 10 -4 10 -6 0 -11 -6 -11
-12 0 -9 -4 -8 -10 2 -8 12 -10 12 -10 1 0 -8 -3 -11 -7 -8 -3 4 -13 1 -21 -6
-13 -9 -14 -9 -8 1 4 6 3 12 -3 12 -5 0 -13 -5 -16 -11 -5 -6 -12 -4 -21 8
-11 13 -13 14 -9 2 4 -10 0 -16 -10 -16 -8 0 -15 4 -15 9 0 5 -4 7 -10 3 -5
-3 -6 -13 -3 -22 6 -15 5 -16 -9 -3 -9 8 -13 20 -10 25 3 6 -5 0 -18 -13 -12
-13 -25 -21 -28 -17 -4 3 -1 10 7 14 8 5 2 8 -17 7 -17 -1 -28 -4 -26 -8 2 -4
0 -9 -6 -13 -5 -3 -10 -2 -10 2 0 5 -11 9 -24 9 -14 0 -23 -3 -20 -7 7 -13
-23 -18 -36 -6 -10 9 -11 9 -6 0 4 -8 1 -13 -8 -13 -8 0 -16 3 -19 8 -2 4 -2
1 -1 -6 3 -9 -8 -12 -36 -10 -25 1 -46 -4 -58 -15 -10 -9 -22 -14 -25 -11 -4
4 -14 1 -24 -7 -15 -12 -16 -12 -9 1 4 8 -1 5 -10 -7 -17 -24 -34 -30 -34 -12
0 5 4 8 8 5 5 -3 9 2 9 11 0 13 -4 12 -17 -5 -10 -12 -20 -18 -24 -15 -3 4 -6
1 -6 -6 0 -7 -4 -9 -10 -6 -5 3 -10 1 -10 -5 0 -7 -7 -7 -22 1 -21 11 -22 11
-10 -4 12 -14 11 -16 -8 -12 -16 3 -20 0 -16 -11 3 -9 1 -12 -4 -9 -6 3 -10
14 -10 23 -1 14 -3 13 -13 -4 -7 -12 -18 -19 -25 -17 -6 3 -10 9 -6 14 9 15
-3 10 -17 -8 -12 -15 -12 -16 1 -8 8 4 12 4 7 0 -13 -15 -49 -17 -41 -3 5 8 0
7 -11 -2 -17 -14 -18 -13 -12 2 4 13 2 15 -10 11 -12 -5 -15 -2 -11 9 8 20
-10 38 -31 31 -14 -4 -14 -3 -1 6 13 9 12 12 -5 26 -11 9 -14 14 -7 10 6 -3
12 -1 12 4 0 6 -8 11 -17 12 -11 0 -13 3 -6 6 10 3 9 8 -2 19 -8 8 -11 22 -8
31 5 12 3 14 -8 8 -12 -8 -12 -6 0 8 11 14 11 20 1 32 -7 8 -10 24 -7 35 3 11
-2 27 -10 36 -13 12 -13 18 -3 27 10 9 11 9 5 -2 -6 -10 -4 -12 5 -6 10 6 10
11 -3 20 -20 14 -23 39 -4 30 6 -4 5 -1 -4 7 -9 7 -14 19 -11 27 3 10 0 11 -9
5 -12 -7 -12 -5 0 9 9 11 10 17 2 17 -6 0 -11 5 -11 11 0 5 4 8 9 5 14 -9 6
23 -9 37 -11 9 -11 8 0 -8 14 -18 14 -19 -2 -6 -10 7 -18 17 -18 22 0 5 8 9
18 10 10 0 12 3 4 6 -6 2 -9 10 -5 16 4 6 0 8 -10 4 -12 -4 -14 -2 -10 10 5
12 3 14 -8 8 -11 -6 -12 -5 -1 6 15 16 16 29 1 29 -5 0 -7 -6 -3 -12 5 -10 4
-10 -6 -1 -16 15 -23 46 -9 37 5 -3 6 -10 3 -16 -5 -7 -2 -8 6 -3 10 6 6 14
-16 33 -16 13 -23 21 -15 17 26 -15 -3 24 -39 50 -19 14 -29 25 -24 25 6 0 15
-5 22 -12 9 -9 15 -9 25 1 9 11 9 13 0 7 -13 -7 -61 19 -55 30 2 3 0 9 -4 12
-4 4 -4 1 0 -5 4 -7 2 -13 -5 -13 -7 0 -9 10 -7 25 4 21 2 23 -13 15 -25 -14
-33 -12 -20 3 8 11 7 18 -7 31 -10 9 -22 13 -25 9 -4 -3 -7 1 -7 10 0 10 -7
17 -15 17 -8 0 -15 5 -15 11 0 5 -4 7 -10 4 -5 -3 -10 1 -10 9 0 9 -9 16 -20
16 -11 0 -20 7 -20 16 0 8 -4 13 -9 9 -5 -3 -12 3 -16 14 -4 12 -13 18 -24 16
-15 -3 -18 1 -14 18 4 18 3 19 -6 7 -9 -13 -11 -13 -11 3 0 9 -5 17 -11 17 -5
0 -7 -6 -3 -12 4 -7 3 -10 -1 -5 -14 12 -14 48 0 37 7 -6 11 -3 11 9 0 10 -5
17 -11 14 -7 -2 -12 3 -12 11 0 9 6 12 16 8 14 -5 14 -4 1 13 -8 10 -10 16 -3
12 6 -4 15 -2 19 4 4 7 3 9 -3 6 -6 -4 -17 1 -24 10 -10 12 -10 14 -1 9 6 -4
13 -2 13 3 5 38 5 57 0 66 -10 19 -9 35 2 35 8 0 8 3 0 11 -8 8 -8 20 -3 35 6
15 5 26 -1 30 -8 4 -7 9 2 15 12 8 12 10 1 18 -11 7 -10 9 3 14 13 5 14 11 5
27 -9 17 -8 20 7 21 16 0 16 1 -2 9 -11 5 -15 9 -8 9 6 1 10 9 8 19 -1 9 -9
16 -16 14 -9 -2 -8 3 4 16 9 10 14 22 10 27 -5 4 -3 5 4 1 6 -3 14 -2 18 4 3
5 -2 10 -12 10 -15 0 -16 2 -3 10 13 9 13 11 0 20 -13 8 -13 10 2 10 15 0 16
4 8 26 -6 15 -6 23 -1 19 5 -3 12 -1 16 5 3 5 1 10 -5 10 -7 0 -6 5 2 14 7 8
17 11 22 8 5 -3 6 0 2 7 -6 9 -12 9 -24 -1 -15 -12 -16 -11 -4 4 8 9 11 22 7
28 -4 6 -1 9 6 8 7 -2 13 2 14 9 0 6 3 15 8 19 4 4 7 12 7 18 0 6 -4 5 -9 -3
-5 -8 -11 -9 -15 -3 -3 6 3 14 15 17 17 6 19 9 8 16 -12 7 -12 9 0 9 11 0 11
3 1 15 -11 13 -10 14 3 10 17 -7 33 10 17 20 -13 8 -13 25 1 25 5 0 7 -5 3
-12 -5 -7 -3 -8 5 -4 7 5 10 14 7 22 -3 8 -1 14 4 14 5 0 14 10 21 21 9 17 8
20 -2 14 -7 -5 -6 1 4 14 8 13 13 30 10 37 -3 8 0 14 7 14 6 0 9 -4 5 -9 -3
-5 -1 -12 4 -15 5 -3 7 8 6 24 -1 17 2 30 9 30 6 0 4 5 -4 10 -12 8 -12 10 5
10 15 0 17 3 7 9 -11 7 -10 9 3 15 9 3 14 10 11 14 -3 5 1 20 8 34 8 15 10 30
6 35 -5 4 -11 21 -14 36 -4 23 -2 28 11 23 13 -5 14 -4 4 8 -7 8 -9 21 -5 28
6 10 3 9 -9 -1 -21 -17 -22 -8 -1 13 14 15 14 16 -1 16 -9 0 -13 5 -10 10 4 6
11 7 17 4 7 -5 8 -2 3 6 -4 7 -2 16 6 21 11 7 11 9 1 9 -7 0 -11 4 -7 9 3 6
-3 14 -12 20 -11 6 -13 11 -5 11 8 0 10 5 5 13 -13 21 -12 39 2 33 9 -3 12 0
8 9 -3 8 -10 12 -17 8 -6 -3 -8 -3 -4 2 4 4 3 14 -3 21 -7 8 -6 14 2 20 7 4 9
3 6 -3 -4 -6 -1 -13 7 -16 10 -4 12 0 9 14 -3 10 -9 19 -12 19 -12 0 -9 34 3
42 7 5 6 8 -3 8 -11 0 -11 3 0 17 10 11 10 14 2 9 -8 -4 -13 -2 -13 6 0 8 6
20 13 27 10 10 9 11 -5 6 -11 -4 -18 -2 -18 4 0 6 5 11 11 11 5 0 7 5 4 10 -4
6 -10 8 -14 6 -3 -3 -7 4 -7 14 0 10 4 16 8 14 4 -3 8 0 8 5 0 6 -6 11 -14 11
-8 0 -18 4 -21 10 -3 6 1 7 10 4 11 -5 14 -2 9 10 -3 9 -10 16 -15 16 -5 0 -9
5 -9 11 0 5 6 7 13 3 6 -4 3 3 -8 16 -11 13 -15 20 -8 17 6 -4 14 -3 18 3 3 5
-1 10 -9 10 -10 0 -13 6 -10 15 4 8 1 15 -5 15 -6 0 -11 5 -11 11 0 5 4 7 10
4 6 -4 7 1 3 11 -5 13 -3 15 7 9 9 -5 11 -4 6 4 -6 9 -11 9 -22 0 -8 -6 -17
-9 -21 -5 -3 3 -2 6 3 6 5 0 10 9 11 21 1 15 -2 19 -15 15 -13 -5 -13 -3 2 9
17 13 18 17 6 28 -10 10 -11 9 -5 -2 5 -9 4 -12 -3 -7 -9 5 -9 13 -2 27 8 15
7 19 -4 19 -8 0 -18 4 -21 10 -4 6 1 7 11 3 14 -5 15 -3 5 15 -7 12 -9 22 -5
22 3 0 1 7 -6 15 -10 11 -10 15 0 15 7 0 5 11 -8 33 -11 17 -18 42 -16 55 3
15 0 21 -7 16 -8 -5 -10 3 -7 25 3 19 -1 36 -9 42 -7 6 -10 15 -7 20 3 5 -2 9
-12 9 -13 0 -14 3 -4 15 7 8 10 16 6 16 -3 1 -10 2 -15 3 -5 0 -13 5 -18 10
-4 5 -3 6 3 3 7 -4 14 2 17 13 3 11 2 19 -2 18 -21 -2 -30 4 -24 19 5 12 3 14
-8 8 -11 -7 -11 -5 1 10 12 15 12 17 1 10 -11 -6 -13 -2 -7 21 5 21 4 25 -4
14 -8 -13 -10 -12 -10 3 0 10 -4 16 -9 12 -5 -3 -13 0 -17 6 -4 8 -3 9 4 5 7
-4 12 -2 12 3 0 6 -4 11 -10 11 -5 0 -10 9 -10 20 0 11 -4 20 -10 20 -5 0 -10
5 -10 11 0 7 -8 18 -17 26 -10 8 -12 11 -4 7 10 -5 12 -3 6 5 -4 7 -16 10 -27
8 -15 -4 -17 -3 -8 8 8 10 6 15 -9 20 -12 3 -21 11 -21 16 0 6 6 7 13 3 6 -4
3 2 -7 14 -11 12 -24 22 -30 22 -16 0 -38 39 -30 52 5 7 2 9 -7 6 -8 -3 -23 4
-34 15 -20 20 -20 20 5 8 l25 -12 -22 19 c-12 11 -19 23 -15 27 4 4 -2 5 -13
3 -11 -1 -20 2 -20 9 0 7 -9 19 -20 28 l-20 15 20 -6 c17 -4 16 -3 -3 8 -12 8
-19 17 -16 21 4 4 2 7 -4 7 -5 0 -13 -6 -16 -12 -4 -7 -4 -3 -2 10 2 12 0 22
-6 22 -5 0 -6 6 -2 13 6 10 4 10 -7 0 -21 -20 -31 -15 -18 10 11 20 11 21 -5
8 -15 -12 -17 -12 -14 0 2 9 -4 13 -16 11 -16 -3 -18 -1 -8 11 16 18 -3 35
-35 32 -12 -1 -20 2 -17 6 2 4 -2 14 -10 22 -8 8 -13 16 -12 18 2 2 -3 10 -11
18 -13 12 -15 11 -9 -10 l6 -24 -11 23 c-7 12 -17 22 -23 22 -6 0 -4 5 4 11
12 9 10 10 -8 6 -20 -5 -22 -3 -10 11 10 12 10 14 1 8 -8 -4 -13 -2 -13 4 0 7
-7 9 -17 6 -10 -4 -14 -4 -11 0 4 3 0 13 -8 21 -8 8 -11 20 -7 26 4 7 -2 5
-12 -3 -15 -12 -17 -12 -10 -1 6 11 4 13 -10 7 -15 -5 -16 -4 -5 9 11 13 10
14 -3 10 -9 -4 -21 2 -29 14 -8 12 -18 18 -21 14 -4 -3 -7 -1 -7 6 0 7 -5 9
-12 5 -8 -5 -8 -1 2 12 8 10 10 16 6 12 -5 -4 -15 0 -23 10 -8 9 -12 12 -9 6
3 -7 0 -14 -8 -17 -8 -3 -13 1 -12 11 0 10 -5 16 -13 14 -12 -3 -12 -1 -1 13
7 9 9 15 4 14 -21 -4 -34 2 -32 13 2 7 -1 12 -7 13 -19 1 -55 32 -47 41 4 4
-1 2 -10 -5 -16 -12 -18 -11 -18 3 0 10 -4 14 -10 11 -5 -3 -10 -1 -10 4 0 6
-9 11 -19 11 -20 0 -35 25 -25 41 3 5 1 9 -5 9 -5 0 -12 -8 -14 -17 -3 -13 -5
-11 -6 6 -1 19 -4 21 -15 12 -10 -9 -17 -7 -27 6 -9 11 -10 14 -1 9 6 -4 12
-2 12 3 0 6 -8 11 -19 11 -10 0 -24 7 -31 15 -7 8 -17 12 -24 8 -6 -4 -4 1 4
12 14 16 13 17 -7 11 -19 -6 -21 -4 -18 14 4 19 2 20 -12 8 -12 -9 -15 -9 -9
0 4 7 1 12 -8 12 -9 0 -16 5 -16 11 0 5 -4 7 -10 4 -6 -4 -7 1 -3 11 4 11 2
15 -4 11 -6 -4 -22 2 -34 14 -13 11 -17 17 -9 13 10 -5 9 0 -4 14 -20 23 -32
30 -21 12 3 -5 1 -10 -4 -10 -6 0 -11 6 -11 14 0 7 -8 20 -17 27 -15 12 -16
12 -8 -1 5 -8 -4 -3 -20 13 -15 15 -36 27 -47 27 -11 0 -16 5 -13 10 3 6 1 11
-4 11 -6 1 -17 2 -23 3 -7 0 -13 8 -13 16 0 9 -11 16 -28 18 -17 2 -25 8 -21
14 5 7 1 9 -9 5 -12 -4 -17 -1 -17 10 0 13 -3 13 -15 3 -13 -11 -14 -10 -9 4
5 12 2 15 -12 9 -10 -4 -15 -2 -11 4 3 5 0 10 -8 10 -8 0 -15 -5 -15 -10 0 -6
-3 -7 -6 -4 -4 4 -1 14 7 23 13 16 12 16 -9 5 -22 -12 -23 -11 -17 11 6 21 6
21 -6 5 -13 -16 -16 -16 -40 7 -21 19 -29 22 -39 13 -10 -9 -11 -9 -6 1 4 6 2
12 -4 12 -6 0 -8 5 -4 12 4 6 3 8 -4 4 -6 -3 -13 -2 -17 4 -3 5 -11 10 -16 10
-6 0 -7 -5 -3 -11 4 -7 -7 -3 -25 7 -17 10 -29 24 -27 31 3 7 -1 10 -9 6 -8
-3 -13 -9 -10 -13 3 -5 0 -12 -6 -16 -8 -4 -9 -3 -5 5 4 6 0 14 -8 17 -9 3
-13 11 -9 18 4 6 -1 5 -10 -3 -16 -12 -21 -9 -18 12 1 4 -7 3 -18 -3 -15 -7
-23 -6 -35 5 -16 16 -30 20 -22 6 11 -17 -27 -5 -39 13 -9 11 -15 13 -20 6 -3
-5 -11 -8 -16 -4 -5 3 -7 9 -4 14 3 5 0 12 -6 16 -7 4 -9 3 -6 -3 4 -6 0 -16
-8 -23 -13 -11 -14 -10 -9 5 5 13 4 16 -4 11 -7 -4 -12 -2 -12 6 0 9 -3 9 -10
-2 -6 -9 -10 -11 -10 -3 0 7 -7 10 -15 7 -12 -5 -14 -2 -8 12 6 17 5 17 -10 5
-13 -10 -17 -10 -17 -1 0 9 -4 9 -17 -1 -11 -10 -14 -10 -9 -1 5 8 1 12 -11
12 -15 0 -16 2 -3 10 9 6 10 10 3 10 -6 0 -15 -5 -18 -10 -5 -8 -11 -7 -20 0
-8 7 -20 8 -27 4 -8 -5 -8 -1 2 11 14 17 13 18 -7 13 -23 -6 -68 23 -56 36 4
4 -1 4 -12 0 -15 -6 -17 -4 -12 11 6 15 5 16 -8 5 -11 -9 -15 -9 -15 -1 0 7
-5 9 -12 5 -8 -5 -7 0 2 11 9 11 10 16 2 11 -7 -4 -15 -1 -18 9 -5 12 -9 13
-14 5 -5 -9 -10 -6 -15 9 -3 12 -10 19 -15 16 -4 -3 -15 6 -24 20 -10 16 -23
23 -37 20 -18 -4 -19 -2 -7 13 12 15 11 15 -14 -1 -19 -12 -26 -13 -22 -4 7
19 -22 42 -32 26 -5 -8 -3 -9 6 -4 9 6 11 4 6 -4 -8 -12 -20 -7 -22 10 -3 22
-5 23 -14 9 -9 -13 -10 -13 -10 0 0 8 -9 21 -20 27 -16 11 -21 10 -29 -5 -9
-15 -10 -15 -11 -1 0 11 -11 16 -37 17 -20 1 -39 5 -42 10 -8 10 -22 9 -40 -2
-10 -6 -12 -5 -7 2 4 7 2 12 -3 12 -6 0 -11 -6 -11 -12 0 -8 -3 -9 -8 -3 -4 6
-13 11 -21 13 -11 2 -12 0 -3 -11 10 -12 7 -14 -20 -11 -17 2 -35 8 -38 14 -3
5 -11 1 -17 -10z m285 -35 c-3 -3 -9 2 -12 12 -6 14 -5 15 5 6 7 -7 10 -15 7
-18z m157 -64 c3 -5 2 -12 -3 -15 -5 -3 -9 1 -9 9 0 17 3 19 12 6z m-865 -491
c0 -5 -5 -10 -11 -10 -5 0 -7 5 -4 10 3 6 8 10 11 10 2 0 4 -4 4 -10z m2015
-90 c-3 -5 -12 -10 -18 -10 -7 0 -6 4 3 10 19 12 23 12 15 0z m-1985 -90 c0
-5 -5 -10 -11 -10 -5 0 -7 5 -4 10 3 6 8 10 11 10 2 0 4 -4 4 -10z m2824 -578
c3 -5 -1 -9 -9 -9 -8 0 -12 4 -9 9 3 4 7 8 9 8 2 0 6 -4 9 -8z m271 -311 c3
-5 2 -12 -3 -15 -5 -3 -9 1 -9 9 0 17 3 19 12 6z m-2961 -170 c3 -5 -1 -11 -9
-14 -9 -4 -12 -1 -8 9 6 16 10 17 17 5z m3181 -230 c3 -5 2 -12 -3 -15 -5 -3
-9 1 -9 9 0 17 3 19 12 6z m175 -1055 c0 -3 -4 -8 -10 -11 -5 -3 -10 -1 -10 4
0 6 5 11 10 11 6 0 10 -2 10 -4z m-1330 -732 c0 -8 -19 -13 -24 -6 -3 5 1 9 9
9 8 0 15 -2 15 -3z m40 -64 c0 -5 -2 -10 -4 -10 -3 0 -8 5 -11 10 -3 6 -1 10
4 10 6 0 11 -4 11 -10z m1070 -116 c0 -8 -19 -13 -24 -6 -3 5 1 9 9 9 8 0 15
-2 15 -3z m2410 -958 c0 -2 -7 -7 -16 -10 -8 -3 -12 -2 -9 4 6 10 25 14 25 6z
m-1489 -99 c-10 -9 -11 -8 -5 6 3 10 9 15 12 12 3 -3 0 -11 -7 -18z m2562 -22
c-3 -9 -8 -14 -10 -11 -3 3 -2 9 2 15 9 16 15 13 8 -4z m465 -20 c-3 -3 -9 2
-12 12 -6 14 -5 15 5 6 7 -7 10 -15 7 -18z m241 -38 c8 -10 7 -14 -2 -14 -8 0
-14 6 -14 14 0 7 1 13 2 13 2 0 8 -6 14 -13z m1179 -392 c-3 -3 -9 2 -12 12
-6 14 -5 15 5 6 7 -7 10 -15 7 -18z m426 -113 c3 -5 -1 -9 -9 -9 -8 0 -12 4
-9 9 3 4 7 8 9 8 2 0 6 -4 9 -8z m171 -52 c3 -5 1 -10 -4 -10 -6 0 -11 5 -11
10 0 6 2 10 4 10 3 0 8 -4 11 -10z m-9132 -305 c-3 -9 -8 -14 -10 -11 -3 3 -2
9 2 15 9 16 15 13 8 -4z m10304 -147 c-3 -8 -6 -5 -6 6 -1 11 2 17 5 13 3 -3
4 -12 1 -19z m250 -140 c-3 -8 -6 -5 -6 6 -1 11 2 17 5 13 3 -3 4 -12 1 -19z
m103 -53 c11 -13 10 -14 -4 -9 -9 3 -16 10 -16 15 0 13 6 11 20 -6z m-10704
-300 c1 -8 -2 -15 -6 -15 -5 0 -8 9 -7 20 1 21 10 18 13 -5z m11179 -54 c3 -5
2 -12 -3 -15 -5 -3 -9 1 -9 9 0 17 3 19 12 6z m365 -306 c11 -13 10 -14 -4 -9
-9 3 -16 10 -16 15 0 13 6 11 20 -6z m-12120 -413 c0 -12 -3 -12 -15 -2 -8 7
-15 13 -15 15 0 1 7 2 15 2 8 0 15 -7 15 -15z m500 -224 c0 -6 -6 -5 -15 2 -8
7 -15 14 -15 16 0 2 7 1 15 -2 8 -4 15 -11 15 -16z m12525 -216 c5 -14 4 -14
-13 1 -10 9 -22 14 -27 10 -4 -5 -5 -3 -1 4 8 15 32 7 41 -15z m1345 -2152 c0
-5 -5 -10 -11 -10 -5 0 -7 5 -4 10 3 6 8 10 11 10 2 0 4 -4 4 -10z m230 -936
c0 -8 -19 -13 -24 -6 -3 5 1 9 9 9 8 0 15 -2 15 -3z m115 -1124 c4 -6 1 -9 -7
-8 -7 2 -12 -3 -10 -10 1 -8 -2 -11 -8 -7 -8 5 -7 11 1 21 14 17 16 17 24 4z
m-375 -3044 c0 -2 -8 -10 -17 -17 -16 -13 -17 -12 -4 4 13 16 21 21 21 13z
m-16 -107 c-8 -14 -21 -11 -21 5 0 8 6 12 14 9 7 -3 10 -9 7 -14z m-16324
-675 c0 -2 -7 -4 -15 -4 -8 0 -15 4 -15 10 0 5 7 7 15 4 8 -4 15 -8 15 -10z
m16000 -228 c0 -3 -4 -8 -10 -11 -5 -3 -10 -1 -10 4 0 6 5 11 10 11 6 0 10 -2
10 -4z m-15904 -40 c0 -14 -5 -21 -9 -17 -4 4 -5 15 -1 24 9 24 12 21 10 -7z
m34 -66 c0 -5 -5 -10 -11 -10 -5 0 -7 5 -4 10 3 6 8 10 11 10 2 0 4 -4 4 -10z
m15710 -234 c0 -3 -4 -8 -10 -11 -5 -3 -10 -1 -10 4 0 6 5 11 10 11 6 0 10 -2
10 -4z m-75 -146 c-3 -5 -12 -10 -18 -10 -7 0 -6 4 3 10 19 12 23 12 15 0z
m-300 -629 c3 -5 1 -12 -5 -16 -5 -3 -10 1 -10 9 0 18 6 21 15 7z m-14375
-731 c0 -5 -5 -10 -11 -10 -5 0 -7 5 -4 10 3 6 8 10 11 10 2 0 4 -4 4 -10z
m13667 -485 c0 -8 -4 -12 -9 -9 -5 3 -6 10 -3 15 9 13 12 11 12 -6z m-252
-915 c3 -5 -1 -10 -10 -10 -9 0 -13 5 -10 10 3 6 8 10 10 10 2 0 7 -4 10 -10z
m-12500 -192 c5 4 5 1 1 -6 -6 -10 -11 -10 -22 -1 -8 6 -14 14 -14 16 0 3 6 0
13 -6 8 -6 18 -7 22 -3z m75 -138 c0 -5 -2 -10 -4 -10 -3 0 -8 5 -11 10 -3 6
-1 10 4 10 6 0 11 -4 11 -10z m660 -890 c0 -5 -7 -7 -15 -4 -8 4 -15 8 -15 10
0 2 7 4 15 4 8 0 15 -4 15 -10z m11250 -64 c0 -2 -8 -10 -17 -17 -16 -13 -17
-12 -4 4 13 16 21 21 21 13z m-106 -191 c-4 -8 -13 -15 -22 -15 -13 0 -12 3 4
15 24 18 25 18 18 0z m-10514 -587 c0 -6 -6 -5 -15 2 -8 7 -15 14 -15 16 0 2
7 1 15 -2 8 -4 15 -11 15 -16z m414 -357 c-2 -3 -12 3 -22 13 -16 17 -16 18 5
5 12 -7 20 -15 17 -18z m171 -161 c10 -11 16 -20 13 -20 -3 0 -13 9 -23 20
-10 11 -16 20 -13 20 3 0 13 -9 23 -20z m500 -358 c-3 -3 -11 0 -18 7 -9 10
-8 11 6 5 10 -3 15 -9 12 -12z m79 -44 c-3 -4 -11 -5 -19 -1 -21 7 -19 12 4
10 11 0 18 -5 15 -9z m6789 -9 c-8 -8 -13 -7 -18 2 -5 8 -4 10 3 5 7 -4 12 -2
12 5 0 7 3 9 7 6 4 -4 2 -12 -4 -18z m-6423 -184 c0 -7 -30 -13 -34 -7 -3 4 4
9 15 9 10 1 19 0 19 -2z m6030 -9 c0 -11 -19 -15 -25 -6 -3 5 1 10 9 10 9 0
16 -2 16 -4z m-4430 -50 c0 -3 -4 -8 -10 -11 -5 -3 -10 -1 -10 4 0 6 5 11 10
11 6 0 10 -2 10 -4z m4265 -25 c3 -5 2 -12 -3 -15 -5 -3 -9 1 -9 9 0 17 3 19
12 6z m-4925 -75 c0 -2 -8 -10 -17 -17 -16 -13 -17 -12 -4 4 13 16 21 21 21
13z m4580 -90 c0 -2 -8 -10 -17 -17 -16 -13 -17 -12 -4 4 13 16 21 21 21 13z
m-2400 -120 c0 -3 -4 -8 -10 -11 -5 -3 -10 -1 -10 4 0 6 5 11 10 11 6 0 10 -2
10 -4z"/>
<path d="M7256 24863 c-6 -14 -5 -15 5 -6 7 7 10 15 7 18 -3 3 -9 -2 -12 -12z"/>
<path d="M8531 24814 c0 -11 3 -14 6 -6 3 7 2 16 -1 19 -3 4 -6 -2 -5 -13z"/>
<path d="M9406 24317 c3 -10 9 -15 12 -12 3 3 0 11 -7 18 -10 9 -11 8 -5 -6z"/>
<path d="M9995 23840 c-3 -5 -1 -10 4 -10 6 0 11 5 11 10 0 6 -2 10 -4 10 -3
0 -8 -4 -11 -10z"/>
<path d="M10556 22987 c3 -10 9 -15 12 -12 3 3 0 11 -7 18 -10 9 -11 8 -5 -6z"/>
<path d="M7615 22480 c-3 -6 1 -7 9 -4 18 7 21 14 7 14 -6 0 -13 -4 -16 -10z"/>
<path d="M8190 21616 c0 -2 7 -7 16 -10 8 -3 12 -2 9 4 -6 10 -25 14 -25 6z"/>
<path d="M12630 20201 c0 -6 4 -13 10 -16 6 -3 7 1 4 9 -7 18 -14 21 -14 7z"/>
<path d="M12486 20181 c-4 -5 -2 -12 3 -15 5 -4 12 -2 15 3 4 5 2 12 -3 15 -5
4 -12 2 -15 -3z"/>
<path d="M11433 20115 c0 -8 4 -12 9 -9 5 3 6 10 3 15 -9 13 -12 11 -12 -6z"/>
<path d="M15630 19670 c0 -5 5 -10 11 -10 5 0 7 5 4 10 -3 6 -8 10 -11 10 -2
0 -4 -4 -4 -10z"/>
<path d="M15884 19602 c4 -3 14 -7 22 -8 9 -1 13 0 10 4 -4 3 -14 7 -22 8 -9
1 -13 0 -10 -4z"/>
<path d="M18717 18210 c7 -8 20 -15 29 -16 9 -1 13 1 9 4 -4 4 -10 7 -13 7 -4
0 -14 4 -22 9 -12 7 -13 6 -3 -4z"/>
<path d="M6485 18031 c-3 -5 -2 -12 3 -15 5 -3 9 1 9 9 0 17 -3 19 -12 6z"/>
<path d="M6485 17959 c-4 -6 -5 -12 -2 -15 2 -3 7 2 10 11 7 17 1 20 -8 4z"/>
<path d="M19160 17841 c0 -6 4 -13 10 -16 6 -3 7 1 4 9 -7 18 -14 21 -14 7z"/>
<path d="M6975 17550 c3 -5 8 -10 11 -10 2 0 4 5 4 10 0 6 -5 10 -11 10 -5 0
-7 -4 -4 -10z"/>
<path d="M19461 17534 c0 -11 3 -14 6 -6 3 7 2 16 -1 19 -3 4 -6 -2 -5 -13z"/>
<path d="M19560 17415 c0 -2 6 -8 13 -14 10 -8 14 -7 14 2 0 8 -6 14 -14 14
-7 0 -13 -1 -13 -2z"/>
<path d="M7096 17388 c3 -5 10 -6 15 -3 13 9 11 12 -6 12 -8 0 -12 -4 -9 -9z"/>
<path d="M19747 17229 c7 -7 15 -10 18 -7 3 3 -2 9 -12 12 -14 6 -15 5 -6 -5z"/>
<path d="M19852 17121 c-11 -6 -10 -10 4 -15 9 -4 22 -2 28 4 8 8 6 9 -8 4
-13 -5 -17 -4 -12 4 8 14 6 15 -12 3z"/>
<path d="M20095 16840 c3 -5 8 -10 11 -10 2 0 4 5 4 10 0 6 -5 10 -11 10 -5 0
-7 -4 -4 -10z"/>
<path d="M6413 16785 c0 -8 4 -12 9 -9 5 3 6 10 3 15 -9 13 -12 11 -12 -6z"/>
<path d="M5315 15400 c3 -5 8 -10 11 -10 2 0 4 5 4 10 0 6 -5 10 -11 10 -5 0
-7 -4 -4 -10z"/>
<path d="M21270 14340 c-9 -6 -10 -10 -3 -10 6 0 15 5 18 10 8 12 4 12 -15 0z"/>
<path d="M21423 12767 c0 -8 6 -14 14 -14 9 0 10 4 2 14 -6 7 -12 13 -14 13
-1 0 -2 -6 -2 -13z"/>
<path d="M21350 11400 c0 -5 5 -10 10 -10 6 0 10 5 10 10 0 6 -4 10 -10 10 -5
0 -10 -4 -10 -10z"/>
<path d="M20945 9711 c-3 -5 -2 -12 3 -15 5 -3 9 1 9 9 0 17 -3 19 -12 6z"/>
<path d="M4516 9572 c-3 -5 1 -9 9 -9 8 0 12 4 9 9 -3 4 -7 8 -9 8 -2 0 -6 -4
-9 -8z"/>
<path d="M20891 9537 c-8 -10 -7 -14 2 -14 8 0 14 6 14 14 0 7 -1 13 -2 13 -2
0 -8 -6 -14 -13z"/>
<path d="M4550 9466 c0 -2 7 -7 16 -10 8 -3 12 -2 9 4 -6 10 -25 14 -25 6z"/>
<path d="M5055 8330 c-3 -6 1 -7 9 -4 18 7 21 14 7 14 -6 0 -13 -4 -16 -10z"/>
<path d="M5075 8280 c-3 -6 1 -7 9 -4 18 7 21 14 7 14 -6 0 -13 -4 -16 -10z"/>
<path d="M5860 6940 c0 -5 5 -10 11 -10 5 0 7 5 4 10 -3 6 -8 10 -11 10 -2 0
-4 -4 -4 -10z"/>
<path d="M6033 6625 c0 -8 4 -12 9 -9 5 3 6 10 3 15 -9 13 -12 11 -12 -6z"/>
<path d="M6053 6595 c0 -8 4 -12 9 -9 5 3 6 10 3 15 -9 13 -12 11 -12 -6z"/>
<path d="M18785 4649 c-4 -6 -5 -12 -2 -15 2 -3 7 2 10 11 7 17 1 20 -8 4z"/>
<path d="M17975 3480 c-3 -5 -1 -10 4 -10 6 0 11 5 11 10 0 6 -2 10 -4 10 -3
0 -8 -4 -11 -10z"/>
<path d="M8394 3389 c-4 -7 -3 -9 4 -5 5 3 13 0 15 -6 4 -9 6 -10 6 -1 1 17
-16 25 -25 12z"/>
<path d="M17791 3356 c-9 -11 -9 -16 0 -22 7 -4 9 -3 5 4 -3 5 0 12 6 15 7 2
10 7 7 11 -3 4 -12 0 -18 -8z"/>
<path d="M11655 2441 c-3 -5 -2 -12 3 -15 5 -3 9 1 9 9 0 17 -3 19 -12 6z"/>
<path d="M10370 2380 c0 -5 5 -10 11 -10 5 0 7 5 4 10 -3 6 -8 10 -11 10 -2 0
-4 -4 -4 -10z"/>
<path d="M12210 2310 c0 -5 5 -10 11 -10 5 0 7 5 4 10 -3 6 -8 10 -11 10 -2 0
-4 -4 -4 -10z"/>
</g>
</svg>
